<?xml version="1.0" encoding="UTF-8" standalone="no"?>
<svg
   xmlns:dc="http://purl.org/dc/elements/1.1/"
   xmlns:cc="http://creativecommons.org/ns#"
   xmlns:rdf="http://www.w3.org/1999/02/22-rdf-syntax-ns#"
   xmlns:svg="http://www.w3.org/2000/svg"
   xmlns="http://www.w3.org/2000/svg"
   id="svg3014"
   version="1.1"
   viewBox="0 0 53.129913 37.939896"
   height="37.939896mm"
   width="53.129913mm">
  <defs
     id="defs3008" />
  <metadata
     id="metadata3011">
    <rdf:RDF>
      <cc:Work
         rdf:about="">
        <dc:format>image/svg+xml</dc:format>
        <dc:type
           rdf:resource="http://purl.org/dc/dcmitype/StillImage" />
        <dc:title></dc:title>
      </cc:Work>
    </rdf:RDF>
  </metadata>
  <g
     transform="translate(32.612613,-116.34552)"
     id="layer1">
    <path
       d="m 8.2571499,152.79313 c 0,0.82547 -8.284633,1.49229 -18.5038979,1.49229 -10.219266,0 -18.5039,-0.66682 -18.5039,-1.49229 0,-0.82542 8.284634,-1.49228 18.5039,-1.49228 10.2192649,0 18.5038979,0.66686 18.5038979,1.49228"
       style="fill:#afaeae;fill-opacity:1;fill-rule:nonzero;stroke:none;stroke-width:0.0352777"
       id="path1185" />
    <path
       d="m 14.358797,130.21645 c -0.06174,-0.0801 -0.297747,-0.0332 -0.298098,0.0797 -0.0046,0.90558 -0.07408,1.8161 -0.189442,2.71392 -0.09102,0.70944 -0.214135,1.42064 -0.42545,2.10538 -0.166865,0.53975 -0.400757,1.17933 -0.880885,1.52012 -0.08784,0.0624 -0.05891,0.15451 0.04445,0.16686 0.64417,0.0755 1.288343,0.15134 1.932516,0.22719 0.03281,0.004 0.06738,-0.005 0.09878,-0.019 0.04586,-0.0138 0.08678,-0.0385 0.103365,-0.0723 1.033637,-2.09056 1.076677,-4.83447 -0.385233,-6.72183"
       style="fill:#ffffff;fill-opacity:1;fill-rule:nonzero;stroke:none;stroke-width:0.0352777"
       id="path2515" />
    <path
       d="m 14.28048,130.27678 c 0,0 0,0 2.65e-4,0 -2.65e-4,0 -2.65e-4,0 -2.65e-4,0 z m -1.64465,6.42937 1.9177,0.22543 c 0.01199,0.001 0.02822,-0.002 0.04551,-0.0106 l 0.01304,-0.005 c 0.02893,-0.008 0.04163,-0.0194 0.0441,-0.0226 0.920396,-1.86161 1.16205,-4.62845 -0.372887,-6.61353 -0.02646,-0.0134 -0.104069,7.2e-4 -0.123825,0.0226 -0.0049,0.85796 -0.06879,1.77306 -0.190146,2.71992 -0.111125,0.86607 -0.243417,1.52047 -0.429331,2.12196 -0.187325,0.60642 -0.426509,1.21426 -0.904169,1.56174 z m 1.922285,0.42298 c -0.0092,0 -0.01871,-7.1e-4 -0.02787,-0.002 l -1.932517,-0.22684 c -0.09067,-0.0106 -0.159105,-0.0646 -0.178506,-0.14005 -0.01905,-0.0744 0.01482,-0.1531 0.08855,-0.20531 0.438853,-0.31151 0.664985,-0.89042 0.843843,-1.46897 0.182034,-0.5902 0.312209,-1.23437 0.421923,-2.0888 0.12065,-0.94121 0.18415,-1.84996 0.188384,-2.70192 7.93e-4,-0.0882 0.0635,-0.16228 0.168627,-0.19791 0.09948,-0.0339 0.237773,-0.03 0.30621,0.0582 v 0 c 1.376891,1.77729 1.535641,4.52085 0.395816,6.82625 -0.02681,0.0547 -0.08255,0.0974 -0.156985,0.12135 -0.03916,0.0169 -0.07902,0.0257 -0.117475,0.0257"
       style="fill:#625751;fill-opacity:1;fill-rule:nonzero;stroke:none;stroke-width:0.0352777"
       id="path2517" />
    <path
       d="m 2.8624739,144.03017 c 0.01871,-0.26458 0.225776,-0.50094 0.497416,-0.52564 0.237419,-0.0176 0.479425,0.11289 0.495652,0.71967 0.02893,1.06892 0.36195,6.13477 0.440621,7.32359 0.0088,0.13053 0.06174,0.26117 0.159102,0.35278 0.09807,0.0918 0.168275,0.22589 -0.09031,0.33172 -0.421217,0.16577 -1.83515,-3.43616 -1.502481,-8.20212"
       style="fill:#625751;fill-opacity:1;fill-rule:nonzero;stroke:none;stroke-width:0.0352777"
       id="path2519" />
    <path
       d="m -0.1128531,143.95256 c 0.107243,-0.24694 0.381352,-0.39864 0.644877,-0.32808 0.230716,0.06 0.41416,0.26458 0.225776,0.84314 -0.33161,1.016 -1.718378,5.89837 -2.042935,7.0449 -0.03669,0.13052 -0.02963,0.26818 0.0314,0.38463 0.06138,0.11987 0.08184,0.2716 -0.196498,0.28222 -0.453673,0.0177 -0.576085,-3.84887 1.337382,-8.22681"
       style="fill:#625751;fill-opacity:1;fill-rule:nonzero;stroke:none;stroke-width:0.0352777"
       id="path2521" />
    <path
       d="m -18.362753,144.82039 c -0.04375,-0.26105 0.107597,-0.52564 0.372886,-0.59619 0.232127,-0.0635 0.504119,0.0212 0.661811,0.59972 0.278341,1.02306 1.793522,5.83149 2.149475,6.96024 0.04022,0.12703 0.122766,0.23988 0.2413,0.31044 0.118886,0.0706 0.221191,0.18701 -0.0127,0.33514 -0.381,0.23636 -2.63137,-2.97036 -3.412772,-7.60935"
       style="fill:#625751;fill-opacity:1;fill-rule:nonzero;stroke:none;stroke-width:0.0352777"
       id="path2523" />
    <path
       d="m -21.866189,143.96667 c 0.117827,-0.23283 0.395463,-0.3563 0.65158,-0.254 0.224014,0.0882 0.394758,0.3175 0.180622,0.87489 -0.377472,0.98778 -1.98755,5.75377 -2.364316,6.87204 -0.04233,0.12707 -0.04233,0.26458 0.01164,0.39165 0.05433,0.1305 0.06738,0.28568 -0.207434,0.26459 -0.447675,-0.0389 -0.375355,-3.95471 1.727906,-8.14917"
       style="fill:#625751;fill-opacity:1;fill-rule:nonzero;stroke:none;stroke-width:0.0352777"
       id="path2525" />
    <path
       d="m 6.7490249,118.42768 c -0.013758,-0.22225 -0.0127,-0.49319 -0.101951,-0.69991 -0.129117,-0.29987 -0.496007,-0.44874 -0.803982,-0.45579 -0.438854,-0.0106 -0.924629,0.30409 -1.306687,0.4953 -0.396523,0.19826 -0.783521,0.41733 -1.15288,0.66287 -0.960966,0.63993 -1.864783,1.50177 -2.291291,2.59856 -0.325967,0.8382 -0.260702,1.91417 0.432858,2.5527 0.0078,0.008 0.01765,0.018 0.03034,0.0282 0.61454,0.49142 1.373365,0.88724 2.181225,0.8569 0.83326,-0.0311 1.393825,-0.58138 1.775883,-1.27812 0.790927,-1.44215 1.337734,-3.09844 1.236485,-4.76073"
       style="fill:#625751;fill-opacity:1;fill-rule:nonzero;stroke:none;stroke-width:0.0352777"
       id="path2527" />
    <path
       d="m 5.4134089,118.31408 c -0.498475,0.15029 -0.983896,0.46637 -1.397704,0.77188 -0.520348,0.38417 -0.969433,0.86783 -1.273881,1.44074 -0.329494,0.61948 -0.536224,1.42029 -0.398286,2.12549 0.0074,0.7941 0.928511,1.69263 1.710971,1.18957 0.403579,-0.25965 0.60819,-0.79058 0.770466,-1.2185 0.258588,-0.68015 0.43815,-1.38818 0.634297,-2.08809 0.08854,-0.31574 0.178152,-0.63182 0.28222,-0.94297 0.102658,-0.30727 0.266348,-0.6216 0.270933,-0.95109 0.0056,-0.37183 -0.300566,-0.41734 -0.599016,-0.32703"
       style="fill:#a7978a;fill-opacity:1;fill-rule:nonzero;stroke:none;stroke-width:0.0352777"
       id="path2529" />
    <path
       d="m 18.96043,133.24999 c -0.01199,0.001 -0.024,0.002 -0.03598,0.002 0.0141,7.1e-4 0.02646,0.002 -0.05574,-3.5e-4 -0.147108,-0.005 -0.29351,-0.0138 -0.439915,-0.03 -0.556683,-0.0614 -1.107017,-0.19579 -1.669695,-0.36971 -2.36079,-0.72989 -4.524375,-2.07292 -6.49958,-3.52883 -1.6809881,-1.23898 -3.2550821,-2.6187 -4.7533301,-4.07179 -0.676627,-0.65617 -1.306335,-1.38183 -2.031648,-1.9872 -0.980368,-0.81879 -2.10467,-1.46438 -3.322108,-1.85631 -1.676752,-0.5394 -3.458631,-0.51012 -5.133973,0.0173 -2.24402,0.70697 -4.437592,1.56316 -6.6664419,2.31458 -1.928989,0.65017 -3.919714,1.27035 -5.963003,1.40582 -0.445911,0.0296 -0.891117,0.0296 -1.336675,-0.002 -1.606903,-0.11536 -3.285772,0.0557 -4.71558,0.85019 -1.120775,0.62336 -1.99637,1.57868 -2.596445,2.70651 -1.027289,1.93076 -1.303514,4.2291 -1.238603,6.38951 0.01305,0.43639 0.09772,0.88265 0.09525,1.31728 -0.0011,0.1905 -0.04374,0.3877 -0.05115,0.57961 -0.03387,0.85408 0.06632,1.71697 0.263525,2.54917 0.293864,1.23473 0.833262,2.413 1.579034,3.43959 1.014236,1.40052 2.378427,2.49414 3.89255,3.31258 2.175228,1.17468 4.628797,1.7744 7.066139,2.08484 3.73133,0.47625 7.5374489,0.28942 11.2624299,-0.14813 2.513187,-0.29986 5.009796,-0.72675 7.487709,-1.23821 0.349602,-0.0741 0.698852,-0.14817 1.04775,-0.22225 0.157337,-0.0353 0.326318,-0.0494 0.466725,-0.127 0.177445,-0.0988 0.341487,-0.24694 0.502002,-0.36689 0.798689,-0.6103 1.548341,-1.29117 2.234848,-2.02494 0.66816,-0.71614 1.175808,-1.60867 1.9727331,-2.19428 0.671335,-0.49036 1.454854,-0.8255 2.234494,-1.1042 1.453443,-0.51858 2.977798,-0.84666 4.50215,-1.0795 0.270227,-0.0423 0.54116,-0.0811 0.813152,-0.11288 0.07514,-0.007 0.114654,-0.0494 0.130174,-0.11995 0.388057,-1.78505 0.776465,-3.57117 1.164874,-5.35728 0.05609,-0.25824 0.112183,-0.51612 0.168275,-0.774 0.03634,-0.16757 -0.259999,-0.26211 -0.373944,-0.25329"
       style="fill:#625751;fill-opacity:1;fill-rule:nonzero;stroke:none;stroke-width:0.0352777"
       id="path2531" />
    <path
       d="m -23.554937,129.20962 c -0.4699,0.0282 -0.949325,0.19262 -1.379713,0.37077 -1.135239,0.47026 -2.112787,1.26506 -2.887134,2.21121 -0.678744,0.82903 -1.200503,1.77095 -1.615369,2.75555 -0.04621,0.10901 0.398639,0.37148 0.413103,0.3369 0.983897,-2.33327 2.772127,-4.64432 5.361163,-5.24545 0.159456,-0.037 0.324203,-0.072 0.488245,-0.0818 0.07126,-0.004 -0.09031,-0.15945 -0.1016,-0.17004 -0.05821,-0.055 -0.187325,-0.18274 -0.278695,-0.17709 v 0"
       style="fill:#625751;fill-opacity:1;fill-rule:nonzero;stroke:none;stroke-width:0.0352777"
       id="path2533" />
    <path
       d="m -32.185292,137.61667 c 0.530225,-0.66957 1.100314,-1.31762 1.714147,-1.9117 0.321733,-0.31115 0.750711,-0.72919 1.145822,-0.86501 0.09419,-0.0321 0.129823,-0.0314 0.177095,-0.0353 0.02081,-0.001 0.01693,0.0219 -0.0071,-0.0222 0.03034,0.0557 0.0321,0.037 0.04621,0.13793 0.01799,0.12665 0.01093,0.25047 -0.0018,0.38488 -0.04727,0.50342 -0.188736,0.99801 -0.334786,1.47991 -0.261409,0.86289 -0.579967,1.70815 -0.91052,2.54635 -0.100541,0.25364 0.321028,0.55703 0.43815,0.2607 0.502356,-1.27424 1.062214,-2.61267 1.252361,-3.98004 0.06174,-0.44556 0.08502,-1.25024 -0.534811,-1.30916 -0.45473,-0.043 -0.913694,0.3743 -1.229077,0.6477 -0.493184,0.42827 -0.94227,0.90735 -1.37407,1.3963 -0.261761,0.29598 -0.518936,0.59725 -0.764469,0.90699 -0.17145,0.2166 0.195086,0.59901 0.382764,0.36265 v 0"
       style="fill:#625751;fill-opacity:1;fill-rule:nonzero;stroke:none;stroke-width:0.0352777"
       id="path2535" />
    <path
       d="m -32.187761,138.79636 c 0.452613,-0.75988 0.940858,-1.50283 1.462616,-2.21686 0.351367,-0.48154 0.719314,-0.9719 1.163108,-1.37301 0.132645,-0.11994 0.286103,-0.25823 0.45967,-0.31467 0.01093,-0.004 0.168628,-0.0265 0.1651,-0.0201 -0.04233,0.0737 -0.121708,-0.23284 -0.09666,-0.0445 0.132644,0.99589 -0.120297,2.00977 -0.344311,2.97885 -0.03316,0.14393 0.371122,0.45791 0.401814,0.32526 0.145697,-0.63112 0.282575,-1.26823 0.3556,-1.91241 0.03845,-0.34184 0.07549,-0.7119 0.0042,-1.05268 -0.08467,-0.40676 -0.461786,-0.83962 -0.900642,-0.63712 -0.487186,0.22437 -0.866775,0.74436 -1.190272,1.15217 -0.42792,0.5401 -0.81915,1.10878 -1.19627,1.68522 -0.226836,0.34713 -0.450144,0.69744 -0.662164,1.0541 -0.0829,0.13899 0.321381,0.47131 0.378178,0.37571 v 0"
       style="fill:#625751;fill-opacity:1;fill-rule:nonzero;stroke:none;stroke-width:0.0352777"
       id="path2537" />
    <path
       d="m -31.758431,135.75788 c 0.01129,-0.009 0.02223,-0.018 0.03316,-0.0272 -0.0822,0.0691 0.03069,-0.0247 0.05786,-0.0462 0.116064,-0.091 0.232833,-0.18027 0.351719,-0.26706 0.300214,-0.21766 0.67557,-0.46425 0.965906,-0.60607 0.138641,-0.0674 0.396522,-0.16616 0.469547,-0.18203 0.04057,-0.008 0.08149,-0.0159 0.122767,-0.0205 0.04163,-0.004 0.08608,-0.006 0.0575,-0.005 0.08467,-0.002 0.128763,0.0201 0.124177,0.0173 0.09842,0.0614 0.132997,0.12629 0.157339,0.26282 0.04374,0.24765 -0.0067,0.5147 -0.05962,0.756 -0.286455,1.30775 -0.931686,2.55164 -1.529997,3.73698 -0.152047,0.30338 0.331258,0.42686 0.462139,0.16933 0.595489,-1.18075 1.220258,-2.41088 1.542344,-3.7017 0.111831,-0.44803 0.279753,-1.17016 -0.129822,-1.52753 -0.633236,-0.55245 -1.766006,0.25753 -2.29235,0.62336 -0.246239,0.17145 -0.486833,0.35278 -0.716492,0.5461 -0.26423,0.22261 0.157692,0.46179 0.383822,0.27129 v 0"
       style="fill:#625751;fill-opacity:1;fill-rule:nonzero;stroke:none;stroke-width:0.0352777"
       id="path2539" />
    <path
       d="m 20.460088,135.72084 c -0.100189,-0.83855 -0.439208,-1.64182 -1.033639,-2.25072 -0.545749,-0.5588 -1.319036,-0.79445 -1.930752,-0.18344 -0.69568,0.69532 -0.87489,1.90253 -0.945447,2.83562 -0.07303,0.96626 -0.06244,2.20628 0.53199,3.0286 0.504473,0.69885 1.58891,0.71649 2.288469,0.30868 1.242483,-0.72743 1.214263,-2.50013 1.089379,-3.73874"
       style="fill:#a7978a;fill-opacity:1;fill-rule:nonzero;stroke:none;stroke-width:0.0352777"
       id="path2541" />
    <path
       d="m 18.54909,136.95557 c 0,0.41204 -0.0956,0.74647 -0.213431,0.74647 -0.117827,0 -0.213077,-0.33443 -0.213077,-0.74647 0,-0.4124 0.09525,-0.74684 0.213077,-0.74684 0.117829,0 0.213431,0.33444 0.213431,0.74684"
       style="fill:#0f0e0e;fill-opacity:1;fill-rule:nonzero;stroke:none;stroke-width:0.0352777"
       id="path2543" />
    <path
       d="m 19.508999,137.0621 c 0,0.4124 -0.0956,0.74648 -0.213432,0.74648 -0.117827,0 -0.213429,-0.33408 -0.213429,-0.74648 0,-0.41239 0.0956,-0.74647 0.213429,-0.74647 0.11783,0 0.213432,0.33408 0.213432,0.74647"
       style="fill:#0f0e0e;fill-opacity:1;fill-rule:nonzero;stroke:none;stroke-width:0.0352777"
       id="path2545" />
    <path
       d="m -0.8237011,119.67404 c -0.422275,-1.09537 -1.104549,-2.10397 -2.090561,-2.76331 -0.583141,-0.38982 -1.753306,-1.00788 -2.182635,-0.0787 -0.18274,0.39582 -0.229306,0.90911 -0.264938,1.33985 -0.03633,0.43921 -0.03175,0.88301 0.0085,1.32186 0.08185,0.89288 0.310446,1.77341 0.699206,2.58233 0.547865,1.05234 1.913819,1.38995 2.877961,0.68192 0.37606,-0.27622 0.819856,-0.55174 1.056568,-0.96484 0.397582,-0.69356 0.164042,-1.42452 -0.104068,-2.11914"
       style="fill:#625751;fill-opacity:1;fill-rule:nonzero;stroke:none;stroke-width:0.0352777"
       id="path2547" />
    <path
       d="m -1.5102081,120.20709 c -2.64e-4,-0.004 0,-0.003 0,0 z m 0.180623,0.43427 c -0.03598,-0.1143 -0.0822,-0.3556 -0.19191,-0.46214 -0.1143,-0.35595 -0.311505,-0.69533 -0.49389,-1.01812 -0.267758,-0.47484 -0.56021,-0.94015 -0.896056,-1.37019 -0.200377,-0.25611 -0.468487,-0.62441 -0.801156,-0.71614 -0.304448,-0.0843 -0.493538,0.12877 -0.551392,0.3997 -0.0039,0.01 -0.0067,0.0198 -0.0064,0.0307 -0.0021,0.0116 -0.0013,0.0212 2.65e-4,0.0307 0.01905,1.27953 0.136173,2.62467 0.522817,3.8474 0.177093,0.56021 0.477308,1.33491 1.1303,1.46755 0.724252,0.14711 1.382183,-0.33513 1.446387,-1.05903 0.03422,-0.38594 -0.0441,-0.78352 -0.159102,-1.15041"
       style="fill:#a7978a;fill-opacity:1;fill-rule:nonzero;stroke:none;stroke-width:0.0352777"
       id="path2549" />
    <path
       d="m 0.6576129,126.08084 c -0.115713,-0.24236 -0.304096,-0.45332 -0.464608,-0.37677 -0.160163,0.0762 -0.114655,0.35525 0.0011,0.59831 0.05574,0.11712 0.126294,0.22014 0.197554,0.29069 0.08114,0.0794 0.148873,0.1016 0.198615,0.1016 0.02893,0 0.05186,-0.007 0.06844,-0.0152 0.04515,-0.0215 0.117827,-0.084 0.100541,-0.26211 -0.0095,-0.0998 -0.04586,-0.21943 -0.1016,-0.33655"
       style="fill:#ffffff;fill-opacity:1;fill-rule:nonzero;stroke:none;stroke-width:0.0352777"
       id="path2551" />
    <path
       d="m 3.6389379,126.20431 c -0.0095,-0.0998 -0.04586,-0.21943 -0.1016,-0.33655 -0.116064,-0.24271 -0.3048,-0.45367 -0.464608,-0.37712 -0.160163,0.0762 -0.114654,0.3556 0.0011,0.59831 0.05609,0.11712 0.125942,0.22049 0.197554,0.29069 0.08079,0.0797 0.148521,0.1016 0.198615,0.1016 0.02893,0 0.05186,-0.007 0.06808,-0.0152 0.04516,-0.0215 0.118182,-0.084 0.100896,-0.26176"
       style="fill:#ffffff;fill-opacity:1;fill-rule:nonzero;stroke:none;stroke-width:0.0352777"
       id="path2553" />
    <path
       d="m 11.707672,141.3032 c -0.56868,-0.12347 -1.020234,-0.58914 -1.387123,-1.01247 -0.4709591,-0.54681 -0.8681861,-1.15288 -1.2340171,-1.7713 -0.467783,-0.79128 -0.896057,-1.61431 -1.261533,-2.45886 -0.04974,-0.11501 -0.282927,-0.0445 -0.30974,0.0582 -0.601837,2.29341 0.508706,4.79989 2.268715,6.30625 0.03457,0.0318 0.09842,0.0318 0.158398,0.0141 0.03069,0 0.05997,-0.007 0.08255,-0.0212 0.563033,-0.32455 1.125712,-0.64558 1.688745,-0.96661 0.06491,-0.0388 0.0829,-0.127 -0.006,-0.14816"
       style="fill:#ffffff;fill-opacity:1;fill-rule:nonzero;stroke:none;stroke-width:0.0352777"
       id="path2555" />
    <path
       d="m 7.7223399,136.09973 c -0.01058,0 -0.02646,0.001 -0.04586,0.006 -0.0381,0.0113 -0.06244,0.0314 -0.06632,0.0395 -0.634648,2.41829 0.66675,4.86127 2.238023,6.20536 0.0035,0 0.02998,0.004 0.06985,-0.007 l 0.01588,-0.004 c 0.02646,0 0.0388,-0.007 0.04198,-0.007 l 1.6513541,-0.94897 c -0.55245,-0.14112 -0.989896,-0.57856 -1.381125,-1.03012 -0.4113391,-0.47625 -0.7951621,-1.02517 -1.2442481,-1.7847 -0.491418,-0.83008 -0.917575,-1.66088 -1.267177,-2.46944 -7.93e-4,0 -0.0053,-3.5e-4 -0.01236,-3.5e-4 z m 2.145242,6.44877 c -0.04974,0 -0.104423,-0.0106 -0.147815,-0.0494 -1.94451,-1.66511 -2.868787,-4.23827 -2.299758,-6.40538 0.02928,-0.11219 0.162279,-0.18168 0.272346,-0.19015 0.104775,-0.007 0.188029,0.0363 0.223308,0.11783 0.346427,0.80116 0.769054,1.62454 1.255887,2.44792 0.44309,0.7486 0.820563,1.2887 1.2237881,1.75437 0.382762,0.4445 0.809271,0.86783 1.3335,0.98425 0.07479,0.0141 0.125942,0.067 0.136525,0.13405 0.0113,0.0741 -0.02999,0.1517 -0.103013,0.19403 l -1.688393,0.96661 c -0.0321,0.0176 -0.07056,0.0317 -0.1150071,0.0353 -0.02468,0.007 -0.05715,0.0106 -0.09137,0.0106"
       style="fill:#625751;fill-opacity:1;fill-rule:nonzero;stroke:none;stroke-width:0.0352777"
       id="path2557" />
    <path
       d="m -23.31152,151.7807 c -0.0025,-0.0247 -0.01482,-0.0459 -0.03916,-0.0529 -0.142875,-0.0389 -0.292806,-0.0952 -0.440619,-0.10943 -0.02575,0 -0.04163,0.0142 -0.04798,0.0319 -0.0035,0.007 -0.0056,0.0141 -0.0053,0.0247 0.0018,0.22228 0.0039,0.44443 0.006,0.67027 3.44e-4,0.0283 0.03422,0.0635 0.06738,0.0493 0.04551,-0.0177 0.09031,-0.0353 0.135466,-0.0529 0.02081,-0.007 0.04269,-0.014 0.06279,-0.0247 0.08185,0.0529 0.168628,0.0988 0.252589,0.14814 0.0321,0.0177 0.08502,-0.007 0.08008,-0.0457 -0.02363,-0.21527 -0.04727,-0.42694 -0.07126,-0.6386"
       style="fill:#3d3d3a;fill-opacity:1;fill-rule:nonzero;stroke:none;stroke-width:0.0352777"
       id="path2559" />
    <path
       d="m -14.573567,152.28161 c -0.169334,-0.13409 -0.33902,-0.26459 -0.508706,-0.39508 -0.01447,-0.0106 -0.03881,-0.007 -0.05362,0 -0.127706,0.0776 -0.270228,0.14813 -0.383822,0.24335 -0.01799,0.0142 -0.02011,0.0319 -0.01411,0.0495 0.0021,0.0106 0.006,0.0177 0.01411,0.0247 0.162277,0.15515 0.324555,0.30688 0.48648,0.46207 0.03175,0.0282 0.07408,0.0142 0.08925,-0.0247 0.01693,-0.0387 0.03387,-0.0811 0.0508,-0.11988 0.0081,-0.0212 0.02046,-0.0423 0.02752,-0.0635 0.09313,-0.014 0.188383,-0.0565 0.279752,-0.0812 0.04798,-0.014 0.04727,-0.0706 0.01235,-0.0952"
       style="fill:#3d3d3a;fill-opacity:1;fill-rule:nonzero;stroke:none;stroke-width:0.0352777"
       id="path2561" />
    <path
       d="m -0.9965621,152.33812 c -0.06879,-0.20464 -0.137231,-0.40569 -0.205671,-0.61034 -0.0081,-0.0213 -0.02681,-0.0353 -0.0515,-0.0389 -0.142523,-0.007 -0.297391,-0.0317 -0.439563,-0.014 -0.0032,0.004 -0.0056,0.004 -0.0085,0.004 -0.0028,0 -0.0053,0.004 -0.0078,0.004 -0.0028,0 -0.0053,0 -0.0074,0.004 -0.01976,0.0105 -0.03387,0.0317 -0.02752,0.0599 0.04939,0.21512 0.09878,0.43395 0.148518,0.65264 0.0074,0.0317 0.05045,0.0493 0.07832,0.0317 0.03916,-0.0282 0.07832,-0.0529 0.117829,-0.0776 0.01588,-0.0106 0.04233,-0.0247 0.05856,-0.0388 0.06632,0.0495 0.200376,0.0635 0.279048,0.0882 0.03739,0.0142 0.07832,-0.0281 0.06562,-0.0634"
       style="fill:#3d3d3a;fill-opacity:1;fill-rule:nonzero;stroke:none;stroke-width:0.0352777"
       id="path2563" />
    <path
       d="m 4.8196839,152.3311 c -0.119592,-0.17998 -0.239535,-0.35637 -0.359479,-0.53276 -0.0141,-0.0213 -0.03563,-0.0318 -0.05997,-0.0247 -0.140407,0.0283 -0.294217,0.0493 -0.427567,0.10223 -0.0032,0.004 -0.0049,0.004 -0.0078,0.007 -0.0021,0 -0.0039,0 -0.0056,0.004 -0.0028,0 -0.0056,0.004 -0.0074,0.004 -0.01622,0.0175 -0.02434,0.0387 -0.01093,0.0634 0.105481,0.19763 0.21096,0.39511 0.316441,0.5927 0.01553,0.0283 0.06174,0.0353 0.08396,0.0106 0.0314,-0.0353 0.0635,-0.0742 0.09525,-0.10943 0.01447,-0.0177 0.02893,-0.0353 0.04304,-0.0493 0.09666,0.0106 0.19685,0.007 0.294217,0.0106 0.03881,0.003 0.06844,-0.0459 0.04586,-0.0776"
       style="fill:#3d3d3a;fill-opacity:1;fill-rule:nonzero;stroke:none;stroke-width:0.0352777"
       id="path2565" />
    <path
       d="m -21.992484,139.45993 c 0.462139,0.14288 0.924278,0.28399 1.386417,0.4251 0.06562,0.0212 0.09384,-0.0811 0.02822,-0.1023 -0.462139,-0.14111 -0.924278,-0.28364 -1.386417,-0.42581 -0.06562,-0.0201 -0.09384,0.0829 -0.02822,0.10301 v 0"
       style="fill:#ffffff;fill-opacity:1;fill-rule:nonzero;stroke:none;stroke-width:0.0352777"
       id="path2567" />
    <path
       d="m -22.005184,137.85444 c 0.462139,0.24906 0.924278,0.49813 1.386417,0.74683 0.06033,0.0325 0.1143,-0.0596 0.05362,-0.0921 -0.462139,-0.24906 -0.924278,-0.49777 -1.386417,-0.74647 -0.06032,-0.0328 -0.1143,0.0593 -0.05362,0.0917 v 0"
       style="fill:#ffffff;fill-opacity:1;fill-rule:nonzero;stroke:none;stroke-width:0.0352777"
       id="path2569" />
    <path
       d="m -22.404881,134.44908 c 0.497769,0.0356 0.995186,0.0713 1.492955,0.10654 0.06844,0.005 0.06809,-0.1016 0,-0.10654 -0.497769,-0.0356 -0.995186,-0.0713 -1.492955,-0.10654 -0.06844,-0.005 -0.06809,0.1016 0,0.10654 v 0"
       style="fill:#ffffff;fill-opacity:1;fill-rule:nonzero;stroke:none;stroke-width:0.0352777"
       id="path2571" />
    <path
       d="m -22.831389,130.82288 c 0.639938,0 1.279877,0 1.919463,0 0.06879,0 0.06879,-0.10654 0,-0.10654 -0.639586,0 -1.279525,0 -1.919463,0 -0.06879,0 -0.06879,0.10654 0,0.10654 v 0"
       style="fill:#ffffff;fill-opacity:1;fill-rule:nonzero;stroke:none;stroke-width:0.0352777"
       id="path2573" />
    <path
       d="m -19.752698,129.75431 c 0.533047,0.1778 1.066447,0.3556 1.599495,0.5334 0.06526,0.0219 0.09349,-0.0811 0.02822,-0.10266 -0.533047,-0.1778 -1.066095,-0.3556 -1.599495,-0.5334 -0.06526,-0.0219 -0.09313,0.0811 -0.02822,0.10266 v 0"
       style="fill:#ffffff;fill-opacity:1;fill-rule:nonzero;stroke:none;stroke-width:0.0352777"
       id="path2575" />
    <path
       d="m -18.153203,128.79476 c 0.782108,0.21307 1.564216,0.42651 2.346325,0.63994 0.06632,0.018 0.09454,-0.0847 0.02858,-0.10302 -0.782109,-0.21307 -1.564217,-0.4265 -2.346678,-0.63993 -0.06597,-0.018 -0.09455,0.085 -0.02822,0.10301 v 0"
       style="fill:#ffffff;fill-opacity:1;fill-rule:nonzero;stroke:none;stroke-width:0.0352777"
       id="path2577" />
    <path
       d="m -18.378981,132.09535 c 0.248708,0.1778 0.497416,0.3556 0.746478,0.5334 0.05574,0.0399 0.109361,-0.0526 0.05362,-0.0921 -0.248709,-0.1778 -0.497417,-0.3556 -0.746478,-0.5334 -0.05609,-0.0399 -0.109008,0.0526 -0.05362,0.0921 v 0"
       style="fill:#ffffff;fill-opacity:1;fill-rule:nonzero;stroke:none;stroke-width:0.0352777"
       id="path2579" />
    <path
       d="m -25.215462,135.5 c 0.209903,0.20003 0.511881,0.32491 0.767645,0.45332 0.207786,0.10443 0.417689,0.20532 0.629355,0.30163 0.06209,0.0282 0.116417,-0.0639 0.05398,-0.0921 -0.20073,-0.0914 -0.399697,-0.18697 -0.5969,-0.28539 -0.256822,-0.12771 -0.568677,-0.25224 -0.778933,-0.45297 -0.04939,-0.0473 -0.124883,0.0279 -0.07514,0.0755 v 0"
       style="fill:#ffffff;fill-opacity:1;fill-rule:nonzero;stroke:none;stroke-width:0.0352777"
       id="path2581" />
    <path
       d="m -24.884909,133.16215 c 0.181328,0.0801 0.411339,0.0586 0.603956,0.049 0.163689,-0.008 0.327378,-0.0219 0.489303,-0.042 0.06738,-0.008 0.06844,-0.11501 0,-0.10654 -0.138289,0.0173 -0.277989,0.0293 -0.417337,0.0378 -0.188383,0.0116 -0.443441,0.0487 -0.621947,-0.0307 -0.06244,-0.0275 -0.116416,0.0646 -0.05398,0.0924 v 0"
       style="fill:#ffffff;fill-opacity:1;fill-rule:nonzero;stroke:none;stroke-width:0.0352777"
       id="path2583" />
    <path
       d="m -24.857745,128.47655 c 0.817386,0 1.635125,0 2.452864,0 0.06844,0 0.06844,-0.10654 0,-0.10654 -0.817739,0 -1.635478,0 -2.452864,0 -0.06879,0 -0.06879,0.10654 0,0.10654 v 0"
       style="fill:#ffffff;fill-opacity:1;fill-rule:nonzero;stroke:none;stroke-width:0.0352777"
       id="path2585" />
    <path
       d="m -22.005184,126.86965 c 0.3556,0.1778 0.710847,0.3556 1.066447,0.53305 0.06138,0.0307 0.115359,-0.061 0.05397,-0.0921 -0.3556,-0.1778 -0.7112,-0.35525 -1.0668,-0.53305 -0.06103,-0.0307 -0.115005,0.0614 -0.05362,0.0921 v 0"
       style="fill:#ffffff;fill-opacity:1;fill-rule:nonzero;stroke:none;stroke-width:0.0352777"
       id="path2587" />
    <path
       d="m -19.752698,126.55497 c 0.462139,0.10654 0.924278,0.21343 1.386417,0.31997 0.06668,0.0155 0.09525,-0.0875 0.02822,-0.10301 -0.462139,-0.10654 -0.924278,-0.21308 -1.386417,-0.31962 -0.06668,-0.0155 -0.09525,0.0871 -0.02822,0.10266 v 0"
       style="fill:#ffffff;fill-opacity:1;fill-rule:nonzero;stroke:none;stroke-width:0.0352777"
       id="path2589" />
    <path
       d="m -13.460554,127.83485 c 0.568678,0.21343 1.137709,0.42651 1.706739,0.63994 0.06421,0.024 0.09172,-0.079 0.02822,-0.10266 -0.56903,-0.21343 -1.137708,-0.42686 -1.706386,-0.63994 -0.06456,-0.0243 -0.09243,0.0787 -0.02858,0.10266 v 0"
       style="fill:#ffffff;fill-opacity:1;fill-rule:nonzero;stroke:none;stroke-width:0.0352777"
       id="path2591" />
    <path
       d="m -11.007337,127.40834 c 0.497417,0.14217 0.995186,0.28434 1.4929559,0.42651 0.06597,0.0187 0.09419,-0.084 0.02822,-0.10266 -0.497417,-0.14252 -0.9951859,-0.28469 -1.4929559,-0.42686 -0.06632,-0.0187 -0.09419,0.084 -0.02822,0.10301 v 0"
       style="fill:#ffffff;fill-opacity:1;fill-rule:nonzero;stroke:none;stroke-width:0.0352777"
       id="path2593" />
    <path
       d="m -10.566718,125.59718 c 0.3556,0 0.7108479,0 1.0664479,0 0.06879,0 0.06879,-0.10654 0,-0.10654 -0.3556,0 -0.7108479,0 -1.0664479,0 -0.06879,0 -0.06879,0.10654 0,0.10654 v 0"
       style="fill:#ffffff;fill-opacity:1;fill-rule:nonzero;stroke:none;stroke-width:0.0352777"
       id="path2595" />
    <path
       d="m -15.472445,126.02369 c 0.568678,0.0709 1.137355,0.14217 1.706033,0.21343 0.06809,0.008 0.06738,-0.0984 0,-0.10654 -0.568678,-0.0713 -1.137355,-0.14252 -1.706033,-0.21343 -0.06809,-0.008 -0.06738,0.0981 0,0.10654 v 0"
       style="fill:#ffffff;fill-opacity:1;fill-rule:nonzero;stroke:none;stroke-width:0.0352777"
       id="path2597" />
    <path
       d="m -7.7667201,123.66995 c 0.284338,-0.17744 0.568677,-0.35524 0.853016,-0.53304 0.05821,-0.0363 0.0046,-0.12877 -0.05397,-0.0921 -0.284339,0.17745 -0.568678,0.35525 -0.853016,0.53305 -0.05821,0.0363 -0.0046,0.12876 0.05397,0.0921 v 0"
       style="fill:#ffffff;fill-opacity:1;fill-rule:nonzero;stroke:none;stroke-width:0.0352777"
       id="path2599" />
    <path
       d="m -6.4998951,124.84858 c 0.5334,-0.14216 1.0668,-0.28433 1.599848,-0.4265 0.06632,-0.0176 0.0381,-0.12065 -0.02822,-0.10301 -0.5334,0.14252 -1.0668,0.28433 -1.599848,0.42686 -0.06632,0.0176 -0.0381,0.12065 0.02822,0.10265 v 0"
       style="fill:#ffffff;fill-opacity:1;fill-rule:nonzero;stroke:none;stroke-width:0.0352777"
       id="path2601" />
    <path
       d="m -5.7407181,127.4027 c 0.569031,-0.24871 1.138063,-0.49742 1.70674,-0.74648 0.06279,-0.0272 0.0085,-0.11924 -0.05398,-0.0921 -0.568677,0.24906 -1.137709,0.49777 -1.706386,0.74648 -0.0628,0.0275 -0.0085,0.11959 0.05362,0.0921 v 0"
       style="fill:#ffffff;fill-opacity:1;fill-rule:nonzero;stroke:none;stroke-width:0.0352777"
       id="path2603" />
    <path
       d="m -7.8206951,128.78947 c 0.350661,0.16792 0.782461,0.19685 1.163108,0.24271 0.29598,0.0356 0.593019,0.0646 0.890059,0.0843 0.06879,0.005 0.06844,-0.10196 0,-0.10654 -0.272698,-0.0183 -0.545042,-0.0445 -0.816329,-0.0759 -0.381705,-0.0441 -0.830791,-0.0684 -1.182863,-0.23707 -0.06174,-0.0293 -0.116064,0.0628 -0.05397,0.0924 v 0"
       style="fill:#ffffff;fill-opacity:1;fill-rule:nonzero;stroke:none;stroke-width:0.0352777"
       id="path2605" />
    <path
       d="m -6.4998951,130.82111 c 0.42686,-0.1778 0.853369,-0.3556 1.279877,-0.5334 0.06244,-0.0261 0.03528,-0.12911 -0.02858,-0.10266 -0.426508,0.1778 -0.853017,0.3556 -1.279525,0.53305 -0.06244,0.0261 -0.03528,0.12947 0.02822,0.10301 v 0"
       style="fill:#ffffff;fill-opacity:1;fill-rule:nonzero;stroke:none;stroke-width:0.0352777"
       id="path2607" />
    <path
       d="m -10.993226,134.12911 c 0.09137,-0.005 0.185914,-0.0392 0.27305,-0.0632 0.171097,-0.0469 0.341489,-0.097 0.511528,-0.14711 0.2412999,-0.0716 0.4822469,-0.14428 0.7224889,-0.21802 0.06562,-0.0205 0.03775,-0.12347 -0.02822,-0.10301 -0.229659,0.0706 -0.460023,0.14006 -0.6903869,0.2085 -0.163688,0.0487 -0.327025,0.0967 -0.491419,0.14216 -0.09384,0.0261 -0.198967,0.0692 -0.297039,0.0741 -0.06844,0.003 -0.06879,0.11007 0,0.10654 v 0"
       style="fill:#ffffff;fill-opacity:1;fill-rule:nonzero;stroke:none;stroke-width:0.0352777"
       id="path2609" />
    <path
       d="m -12.607184,132.63404 c 0.65158,0.1778 1.394883,0.10901 2.054578,0 0.06773,-0.0109 0.03916,-0.11395 -0.02822,-0.10266 -0.639939,0.10548 -1.366661,0.17215 -1.998133,0 -0.06632,-0.0183 -0.09454,0.0847 -0.02822,0.10266 v 0"
       style="fill:#ffffff;fill-opacity:1;fill-rule:nonzero;stroke:none;stroke-width:0.0352777"
       id="path2611" />
    <path
       d="m -12.152101,131.35451 c 0.710847,-0.28469 1.421695,-0.56903 2.132895,-0.85337 0.06279,-0.0254 0.03563,-0.12841 -0.02858,-0.10301 -0.710848,0.28434 -1.421695,0.56903 -2.132895,0.85337 -0.06279,0.025 -0.03528,0.12841 0.02858,0.10301 v 0"
       style="fill:#ffffff;fill-opacity:1;fill-rule:nonzero;stroke:none;stroke-width:0.0352777"
       id="path2613" />
    <path
       d="m -9.5002701,130.92977 c 0.39123,0 0.782108,0 1.173338,0 0.06844,0 0.06879,-0.10689 0,-0.10689 -0.39123,0 -0.782108,0 -1.173338,0 -0.06844,0 -0.06879,0.10689 0,0.10689 v 0"
       style="fill:#ffffff;fill-opacity:1;fill-rule:nonzero;stroke:none;stroke-width:0.0352777"
       id="path2615" />
    <path
       d="m -15.472445,130.92977 c 0.462139,-0.0356 0.924278,-0.0713 1.386416,-0.10689 0.06773,-0.005 0.06844,-0.11183 0,-0.10654 -0.462138,0.0356 -0.924277,0.0713 -1.386416,0.10654 -0.06809,0.005 -0.06879,0.11218 0,0.10689 v 0"
       style="fill:#ffffff;fill-opacity:1;fill-rule:nonzero;stroke:none;stroke-width:0.0352777"
       id="path2617" />
    <path
       d="m -16.951642,133.70084 c 0.497769,-0.1778 0.995539,-0.3556 1.493308,-0.5334 0.0642,-0.0229 0.03634,-0.12594 -0.02822,-0.10301 -0.498122,0.1778 -0.995539,0.3556 -1.493309,0.5334 -0.0642,0.0229 -0.03634,0.12594 0.02822,0.10301 v 0"
       style="fill:#ffffff;fill-opacity:1;fill-rule:nonzero;stroke:none;stroke-width:0.0352777"
       id="path2619" />
    <path
       d="m -15.472445,135.51553 c 0.462139,0 0.924278,0 1.386416,0 0.06844,0 0.06879,-0.10654 0,-0.10654 -0.462138,0 -0.924277,0 -1.386416,0 -0.06879,0 -0.06879,0.10654 0,0.10654 v 0"
       style="fill:#ffffff;fill-opacity:1;fill-rule:nonzero;stroke:none;stroke-width:0.0352777"
       id="path2621" />
    <path
       d="m -19.297967,135.51376 c 0.426508,-0.10689 0.853369,-0.21343 1.279877,-0.31997 0.06668,-0.0166 0.03845,-0.11959 -0.02822,-0.10301 -0.426861,0.10689 -0.853369,0.21343 -1.279877,0.31997 -0.06667,0.0169 -0.03845,0.11959 0.02822,0.10301 v 0"
       style="fill:#ffffff;fill-opacity:1;fill-rule:nonzero;stroke:none;stroke-width:0.0352777"
       id="path2623" />
    <path
       d="m -25.590464,139.03307 c 0.498122,-0.14217 0.995539,-0.28434 1.493308,-0.4265 0.06597,-0.0187 0.03775,-0.12171 -0.02822,-0.10302 -0.497769,0.14253 -0.995539,0.2847 -1.493308,0.42687 -0.06597,0.0187 -0.03775,0.1217 0.02822,0.10265 v 0"
       style="fill:#ffffff;fill-opacity:1;fill-rule:nonzero;stroke:none;stroke-width:0.0352777"
       id="path2625" />
    <path
       d="m -24.310587,141.59248 c 0.3556,-0.14111 0.7112,-0.28575 1.066448,-0.42686 0.06315,-0.0247 0.03563,-0.127 -0.02822,-0.10231 -0.3556,0.14111 -0.710848,0.28575 -1.066448,0.42686 -0.06279,0.0247 -0.03563,0.127 0.02822,0.10231 v 0"
       style="fill:#ffffff;fill-opacity:1;fill-rule:nonzero;stroke:none;stroke-width:0.0352777"
       id="path2627" />
    <path
       d="m -20.911926,141.05978 c -0.248708,0 -0.497769,0 -0.746477,0 -0.06844,0 -0.06879,0.10936 0,0.10936 0.248708,0 0.497769,0 0.746477,0 0.06879,0 0.06879,-0.10936 0,-0.10936 v 0"
       style="fill:#ffffff;fill-opacity:1;fill-rule:nonzero;stroke:none;stroke-width:0.0352777"
       id="path2629" />
    <path
       d="m -19.029856,141.07742 c -0.249061,0.28575 -0.49777,0.56797 -0.746478,0.85372 -0.04515,0.0494 0.02999,0.127 0.0755,0.0741 0.248708,-0.28575 0.497416,-0.56797 0.746477,-0.85372 0.0448,-0.0494 -0.03034,-0.127 -0.07549,-0.0741 v 0"
       style="fill:#ffffff;fill-opacity:1;fill-rule:nonzero;stroke:none;stroke-width:0.0352777"
       id="path2631" />
    <path
       d="m -15.472445,138.50179 c -0.498122,0 -0.995539,0 -1.493308,0 -0.06879,0 -0.06879,0.10689 0,0.10689 0.497769,0 0.995186,0 1.493308,0 0.06844,0 0.06844,-0.10689 0,-0.10689 v 0"
       style="fill:#ffffff;fill-opacity:1;fill-rule:nonzero;stroke:none;stroke-width:0.0352777"
       id="path2633" />
    <path
       d="m -14.84697,139.78273 c -0.31997,0.10583 -0.639586,0.21519 -0.959908,0.32102 -0.06456,0.0212 -0.03704,0.12348 0.02858,0.10231 0.319969,-0.10583 0.639938,-0.21167 0.959908,-0.32103 0.06456,-0.0212 0.03704,-0.12347 -0.02858,-0.1023 v 0"
       style="fill:#ffffff;fill-opacity:1;fill-rule:nonzero;stroke:none;stroke-width:0.0352777"
       id="path2635" />
    <path
       d="m -16.246087,141.4937 c -0.639939,0.39158 -1.279878,0.78317 -1.919816,1.17475 -0.05856,0.0353 -0.0049,0.127 0.05397,0.0917 0.639938,-0.39158 1.279877,-0.78317 1.919816,-1.17122 0.05856,-0.0388 0.0049,-0.13053 -0.05398,-0.0953 v 0"
       style="fill:#ffffff;fill-opacity:1;fill-rule:nonzero;stroke:none;stroke-width:0.0352777"
       id="path2637" />
    <path
       d="m -20.286098,143.40928 c -0.5334,0.17639 -1.066447,0.35631 -1.599847,0.5327 -0.06456,0.0212 -0.03704,0.127 0.02822,0.1023 0.5334,-0.17639 1.0668,-0.35278 1.6002,-0.53269 0.06456,-0.0212 0.03669,-0.12347 -0.02858,-0.10231 v 0"
       style="fill:#ffffff;fill-opacity:1;fill-rule:nonzero;stroke:none;stroke-width:0.0352777"
       id="path2639" />
    <path
       d="m -18.378981,144.1607 c -0.3556,0.17992 -0.7112,0.3563 -1.0668,0.53269 -0.06103,0.0318 -0.0074,0.12348 0.05397,0.0952 0.3556,-0.17991 0.710847,-0.3563 1.066447,-0.53622 0.06138,-0.0282 0.0074,-0.11994 -0.05362,-0.0917 v 0"
       style="fill:#ffffff;fill-opacity:1;fill-rule:nonzero;stroke:none;stroke-width:0.0352777"
       id="path2641" />
    <path
       d="m -16.26549,144.18187 c -0.248708,0.39158 -0.497416,0.77963 -0.746477,1.17122 -0.03669,0.06 0.05539,0.11289 0.09207,0.0564 0.249061,-0.39158 0.497769,-0.78317 0.74683,-1.17475 0.03704,-0.06 -0.05539,-0.11289 -0.09243,-0.0529 v 0"
       style="fill:#ffffff;fill-opacity:1;fill-rule:nonzero;stroke:none;stroke-width:0.0352777"
       id="path2643" />
    <path
       d="m -13.033692,141.49017 c -0.462139,0.17639 -0.924278,0.35631 -1.38677,0.5327 -0.06315,0.0247 -0.03563,0.127 0.02858,0.1023 0.462139,-0.17639 0.924278,-0.3563 1.386417,-0.53269 0.0635,-0.0247 0.03598,-0.127 -0.02822,-0.10231 v 0"
       style="fill:#ffffff;fill-opacity:1;fill-rule:nonzero;stroke:none;stroke-width:0.0352777"
       id="path2645" />
    <path
       d="m -12.639287,138.95476 c -0.142169,0.31997 -0.284339,0.64099 -0.426508,0.95849 -0.02752,0.0635 0.0642,0.11642 0.09207,0.0564 0.142169,-0.32102 0.284691,-0.64099 0.426861,-0.96096 0.02752,-0.0621 -0.06456,-0.11642 -0.09243,-0.054 v 0"
       style="fill:#ffffff;fill-opacity:1;fill-rule:nonzero;stroke:none;stroke-width:0.0352777"
       id="path2647" />
    <path
       d="m -11.753815,136.58409 c -0.56903,0.14217 -1.138061,0.28434 -1.706739,0.42651 -0.06632,0.0166 -0.0381,0.11959 0.02858,0.10266 0.568678,-0.14182 1.137356,-0.28434 1.706386,-0.42651 0.06668,-0.0166 0.03845,-0.11959 -0.02822,-0.10266 v 0"
       style="fill:#ffffff;fill-opacity:1;fill-rule:nonzero;stroke:none;stroke-width:0.0352777"
       id="path2649" />
    <path
       d="m -17.205995,136.90935 c -0.284339,0.14217 -0.568678,0.28434 -0.853017,0.42651 -0.06138,0.0307 -0.0074,0.12277 0.05362,0.0921 0.284339,-0.14217 0.569031,-0.28434 0.85337,-0.42651 0.06138,-0.0307 0.0074,-0.12277 -0.05397,-0.0921 v 0"
       style="fill:#ffffff;fill-opacity:1;fill-rule:nonzero;stroke:none;stroke-width:0.0352777"
       id="path2651" />
    <path
       d="m -8.3646791,134.78457 c -0.568677,0.49777 -1.137708,0.99554 -1.7063859,1.49331 -0.05186,0.0451 0.02364,0.1203 0.07514,0.0755 0.56903,-0.49812 1.137708,-0.99554 1.706386,-1.49331 0.05186,-0.0452 -0.02363,-0.12065 -0.07514,-0.0755 v 0"
       style="fill:#ffffff;fill-opacity:1;fill-rule:nonzero;stroke:none;stroke-width:0.0352777"
       id="path2653" />
    <path
       d="m -5.7675281,132.6358 c -0.3556,0 -0.710848,0 -1.066448,0 -0.06844,0 -0.06844,0.10689 0,0.10689 0.3556,0 0.710848,0 1.066448,0 0.06879,0 0.06879,-0.10689 0,-0.10689 v 0"
       style="fill:#ffffff;fill-opacity:1;fill-rule:nonzero;stroke:none;stroke-width:0.0352777"
       id="path2655" />
    <path
       d="m -2.0725351,129.34544 c -0.390877,0.3556 -0.781756,0.71085 -1.172985,1.06645 -0.0508,0.0466 0.02469,0.12136 0.07549,0.0755 0.390876,-0.3556 0.782108,-0.7112 1.172985,-1.06645 0.05115,-0.0462 -0.02469,-0.1217 -0.07549,-0.0755 v 0"
       style="fill:#ffffff;fill-opacity:1;fill-rule:nonzero;stroke:none;stroke-width:0.0352777"
       id="path2657" />
    <path
       d="m -26.068831,131.47834 c -0.248708,0.24906 -0.497769,0.49777 -0.746478,0.74648 -0.04868,0.049 0.02681,0.12417 0.07549,0.0755 0.248708,-0.24871 0.49777,-0.49742 0.746478,-0.74648 0.04833,-0.0487 -0.02681,-0.12383 -0.07549,-0.0755 v 0"
       style="fill:#ffffff;fill-opacity:1;fill-rule:nonzero;stroke:none;stroke-width:0.0352777"
       id="path2659" />
  </g>
</svg>
