<?xml version="1.0" encoding="UTF-8" standalone="no"?>
<svg
   xmlns:dc="http://purl.org/dc/elements/1.1/"
   xmlns:cc="http://creativecommons.org/ns#"
   xmlns:rdf="http://www.w3.org/1999/02/22-rdf-syntax-ns#"
   xmlns:svg="http://www.w3.org/2000/svg"
   xmlns="http://www.w3.org/2000/svg"
   id="svg1759"
   version="1.1"
   viewBox="0 0 102.62987 111.78396"
   height="111.78396mm"
   width="102.62987mm">
  <defs
     id="defs1753" />
  <metadata
     id="metadata1756">
    <rdf:RDF>
      <cc:Work
         rdf:about="">
        <dc:format>image/svg+xml</dc:format>
        <dc:type
           rdf:resource="http://purl.org/dc/dcmitype/StillImage" />
        <dc:title></dc:title>
      </cc:Work>
    </rdf:RDF>
  </metadata>
  <g
     transform="translate(176.80303,-155.01873)"
     id="layer1">
    <path
       d="m -146.13606,245.99567 c -0.15063,4.94591 -0.79375,9.82486 -1.98931,14.62624 -0.39017,1.56626 -2.85221,1.05117 -2.45956,-0.52575 1.14405,-4.59669 1.79175,-9.23918 1.93639,-13.97702 0.0487,-1.60513 2.56187,-1.74625 2.51248,-0.12347 v 0"
       style="fill:#282422;fill-opacity:1;fill-rule:nonzero;stroke:none;stroke-width:0.0352777"
       id="path210" />
    <path
       d="m -131.00506,246.74353 c 0.21801,5.2706 -0.0483,10.50935 -0.77929,15.73388 -0.22437,1.60171 -2.68323,1.06896 -2.45957,-0.52916 0.70133,-5.00945 0.93557,-10.02591 0.72602,-15.08125 -0.0667,-1.61558 2.44581,-1.74625 2.51284,-0.12347 v 0"
       style="fill:#282422;fill-opacity:1;fill-rule:nonzero;stroke:none;stroke-width:0.0352777"
       id="path212" />
    <path
       d="m -97.016337,193.79765 c -0.08749,-0.39688 -0.175329,-0.8195 -0.291042,-1.2767 -0.675568,-2.66524 -1.230135,-5.3654 -1.659466,-8.08073 -0.559859,-3.53871 -2.750965,-14.33548 2.103614,-16.10325 5.292019,-1.92722 5.472994,5.0793 4.929717,8.12871 -0.911931,5.11845 -2.484615,10.32122 -3.699933,15.37017 0.712965,-2.96263 1.43369,-5.94677 2.702277,-8.71784 1.268589,-2.77036 3.135841,-5.3467 5.713941,-6.97089 0.974373,-0.61419 2.157942,-1.09502 3.260019,-0.75988 1.335617,0.4064 2.084213,1.94521 1.961092,3.33551 -0.189794,2.14665 -2.240492,4.69512 -3.885846,5.99863 -3.195815,2.53154 -6.196542,5.30931 -8.966906,8.30016 3.021189,-3.06705 19.790124,-14.52704 20.673834,-4.38009 0.0755,0.86854 -2.15582,2.58445 -2.703686,3.01272 -2.205567,1.72579 -4.877859,2.08457 -7.558971,2.22568 -3.208867,0.16933 -6.388804,1.17863 -9.427279,2.2546 3.91654,-0.71543 8.457493,-1.89794 12.346516,-0.55774 3.061759,1.05516 6.62411,5.00839 2.263775,6.85024 -3.798712,1.60443 -8.326614,0.18626 -11.655776,-1.87784 -1.601613,-0.99307 -3.183115,-2.30858 -4.539547,-3.60186 -1.038225,-0.98989 -1.302102,-1.95333 -1.566333,-3.1496"
       style="fill:#f8db06;fill-opacity:1;fill-rule:nonzero;stroke:none;stroke-width:0.0352777"
       id="path214" />
    <path
       d="m -167.52391,177.47321 c 0,0 -5.29837,-1.0802 -9.27912,4.70182 l 7.27111,2.78448 2.00801,-7.4863"
       style="fill:#f8db06;fill-opacity:1;fill-rule:nonzero;stroke:none;stroke-width:0.0352777"
       id="path216" />
    <path
       d="m -153.23183,174.41639 c 0,0 13.3918,-7.93785 8.52629,-11.27936 0,0 -5.22817,-0.86783 -9.77653,5.33612 0,0 1.52929,-11.80042 -3.48403,-13.44542 0,0 -3.74439,-0.65053 -1.9431,9.1126 0,0 -2.159,-8.70373 -4.84435,-8.99689 0,0 -2.48073,1.75824 1.38465,7.78192 0,0 -4.42453,-7.72266 -8.04015,-5.12021 0,0 -3.47028,1.6129 11.73938,17.78881 l 6.43784,-1.17757"
       style="fill:#da1939;fill-opacity:1;fill-rule:nonzero;stroke:none;stroke-width:0.0352777"
       id="path218" />
    <path
       d="m -100.69546,191.01635 c 2.203454,-0.91969 4.478519,-0.19403 5.825071,1.7519 1.905352,2.75237 1.705682,6.94866 1.513769,10.0965 -0.194734,3.19334 -0.803627,6.30413 -1.338437,9.45021 -1.436159,8.44832 -3.331282,17.30445 -8.116713,24.72016 -6.41667,9.94131 -17.0307,14.97541 -28.76374,14.84132 -0.93062,-0.0104 -1.86055,-0.0529 -2.7887,-0.11641 0,0 -40.64106,-2.62806 -37.84177,-51.32769 -0.5147,-10.11625 -1.72755,-27.67189 12.19553,-28.42436 2.86279,-0.15452 5.70794,0.48225 8.3693,1.50072 5.27897,2.02071 9.93034,5.53402 14.12522,9.25688 10.13495,8.99513 23.57967,13.77986 36.82047,8.25077"
       style="fill:#ef2950;fill-opacity:1;fill-rule:nonzero;stroke:none;stroke-width:0.0352777"
       id="path220" />
    <path
       d="m -144.71118,198.0652 c -0.0173,0.0194 7.24958,3.70699 8.12376,4.01038 6.42655,2.22779 13.19565,3.46357 19.99474,3.65019 0.043,5.44583 0.47872,10.53747 -1.0347,15.92404 -0.7814,2.78024 -1.77941,5.66455 -3.58104,7.96501 -3.64208,4.65004 -10.45457,6.55257 -15.99424,4.78328 -7.52228,-2.40273 -12.74022,-11.93867 -12.73669,-19.72906 10e-4,-3.18311 0.57679,-6.34682 1.58856,-9.3606 0.77928,-2.32022 2.04399,-5.41479 3.63961,-7.24324"
       style="fill:#da1939;fill-opacity:1;fill-rule:nonzero;stroke:none;stroke-width:0.0352777"
       id="path222" />
    <path
       d="m -147.92499,205.69296 c 0.066,-1.88983 0.81245,-3.77331 1.72367,-5.42078 0.4565,-0.82515 0.9525,-1.59103 1.49014,-2.20698 -0.0173,0.0194 7.24958,3.70699 8.12376,4.01038 6.40115,2.21897 13.14238,3.45264 19.91431,3.64667 0.0342,0.0247 0.0571,0.0469 0.06,0.0649 0.009,0.0628 0.0145,0.13017 0.0236,0.19332 0.28434,1.99778 0.23036,5.32694 -0.9959,7.0485 -1.66511,2.33786 -5.93407,2.27788 -7.66162,0.048 -0.65758,-0.84843 -0.94227,-1.91876 -1.21215,-2.95734 0.38735,1.49084 -2.08209,3.81741 -3.24873,4.32329 -1.92087,0.83362 -4.42806,0.18415 -5.95277,-1.16416 -1.61255,-1.36737 -2.24719,-3.60222 -1.97168,-5.64445 -0.34431,2.55129 -2.84197,3.88444 -5.02214,4.09505 -2.01013,0.19402 -3.94335,-1.24319 -4.74098,-3.09845 -0.41204,-0.9592 -0.56374,-1.94945 -0.52952,-2.93793"
       style="fill:#f2578c;fill-opacity:1;fill-rule:nonzero;stroke:none;stroke-width:0.0352777"
       id="path224" />
    <path
       d="m -161.6618,178.14067 c 0.33302,0.60113 0.8075,1.0548 1.57444,1.01035 1.03082,-0.06 1.93816,-1.15323 2.64831,-1.7907 0.23636,-0.21202 0.59196,-0.39899 0.85266,-0.21731 0.15875,0.11042 0.21272,0.31927 0.23142,0.51224 0.12877,1.35466 -0.98319,2.57386 -1.89159,3.43746 -0.54857,0.52211 -1.44533,1.26012 -2.25707,1.25095 -2.78272,-0.0303 -3.10798,-3.78671 -2.77178,-5.76968 0.0314,-0.18415 0.0762,-0.375 0.19932,-0.51505 0.12312,-0.14041 0.34643,-0.20885 0.50094,-0.10513 0.0963,0.0646 0.14605,0.1785 0.18627,0.28716 0.20179,0.5461 0.3937,1.29681 0.72708,1.89971"
       style="fill:#282422;fill-opacity:1;fill-rule:nonzero;stroke:none;stroke-width:0.0352777"
       id="path226" />
    <path
       d="m -149.56647,218.36016 c 0.70485,1.0107 1.50178,1.9558 2.42676,2.80176 1.28094,1.17228 2.86209,2.15476 4.59775,2.19674 1.73567,0.042 3.57753,-1.13171 3.80083,-2.85326 -0.73448,2.79117 1.66723,5.77179 4.52085,6.2043 2.85397,0.43215 5.73758,-1.25201 7.35224,-3.64419 0.1009,2.56222 2.8575,4.4704 5.41232,4.24426 0.6925,-0.061 1.35572,-0.24765 1.98155,-0.52669 -0.48436,1.00294 -1.05128,1.95968 -1.73425,2.83174 -3.64208,4.65004 -10.45457,6.55257 -15.99424,4.78328 -6.36411,-2.03274 -11.06488,-9.17042 -12.36381,-16.03794"
       style="fill:#f2578c;fill-opacity:1;fill-rule:nonzero;stroke:none;stroke-width:0.0352777"
       id="path228" />
    <path
       d="m -147.15911,178.88044 c 1.24284,0.89817 2.32869,1.95721 3.27907,3.15877 0.46919,0.59338 -0.51223,1.23896 -0.97755,0.65053 -0.88829,-1.1236 -1.91911,-2.09127 -3.07869,-2.92982 -0.61313,-0.44309 0.17039,-1.31798 0.77717,-0.87948 v 0"
       style="fill:#f2578c;fill-opacity:1;fill-rule:nonzero;stroke:none;stroke-width:0.0352777"
       id="path230" />
    <path
       d="m -148.46615,185.90319 c 0.94756,0.92569 1.89512,1.85173 2.84303,2.77777 0.5394,0.52705 -0.23636,1.40829 -0.77752,0.87948 -0.94756,-0.92604 -1.89512,-1.85173 -2.84303,-2.77778 -0.5394,-0.52705 0.23636,-1.40829 0.77752,-0.87947 v 0"
       style="fill:#f2578c;fill-opacity:1;fill-rule:nonzero;stroke:none;stroke-width:0.0352777"
       id="path232" />
    <path
       d="m -151.6468,184.52453 c -0.52105,-0.22189 -0.95743,-0.61736 -1.21708,-1.12218 -0.14464,-0.28152 -0.12065,-0.62442 0.16369,-0.81386 0.2413,-0.16016 0.66816,-0.11959 0.81421,0.16369 0.17815,0.34713 0.40852,0.5715 0.768,0.7246 0.69603,0.29669 0.16333,1.34303 -0.52882,1.04775 v 0"
       style="fill:#f2578c;fill-opacity:1;fill-rule:nonzero;stroke:none;stroke-width:0.0352777"
       id="path234" />
    <path
       d="m -155.96797,187.9687 c 0.31679,1.2753 0.81492,2.45463 1.52153,3.56306 0.40605,0.63711 -0.57115,1.28764 -0.9779,0.65017 -0.75988,-1.1931 -1.31727,-2.47262 -1.65841,-3.84598 -0.18097,-0.72884 0.93239,-1.10173 1.11478,-0.36725 v 0"
       style="fill:#f2578c;fill-opacity:1;fill-rule:nonzero;stroke:none;stroke-width:0.0352777"
       id="path236" />
    <path
       d="m -161.8008,187.41096 c 0.0318,0.28328 0.0632,0.56656 0.0945,0.84984 0.0833,0.75036 -1.08938,0.80716 -1.17263,0.0575 -0.0314,-0.28328 -0.0628,-0.56656 -0.0942,-0.84984 -0.0833,-0.75 1.08938,-0.80715 1.17228,-0.0575 v 0"
       style="fill:#f2578c;fill-opacity:1;fill-rule:nonzero;stroke:none;stroke-width:0.0352777"
       id="path238" />
    <path
       d="m -161.375,192.92876 c 0.0575,1.37019 0.30128,2.69028 0.73696,3.99062 0.24024,0.71614 -0.87419,1.08373 -1.11478,0.36689 -0.46778,-1.39559 -0.73307,-2.82928 -0.79481,-4.30001 -0.0317,-0.75353 1.14088,-0.81456 1.17263,-0.0575 v 0"
       style="fill:#f2578c;fill-opacity:1;fill-rule:nonzero;stroke:none;stroke-width:0.0352777"
       id="path240" />
    <path
       d="m -168.11693,187.47446 c -0.42933,2.09409 -0.46108,4.17336 -0.1143,6.28086 0.12206,0.74295 -1.05128,0.79692 -1.17263,0.0575 -0.36195,-2.20239 -0.30904,-4.39879 0.13899,-6.58389 0.15205,-0.74013 1.30034,-0.49601 1.14794,0.24553 v 0"
       style="fill:#f2578c;fill-opacity:1;fill-rule:nonzero;stroke:none;stroke-width:0.0352777"
       id="path242" />
    <path
       d="m -167.94795,200.91 c 0.0963,1.43369 0.19262,2.86703 0.28928,4.30036 0.0504,0.75319 -1.12184,0.8128 -1.17228,0.0579 -0.0967,-1.43369 -0.19297,-2.86702 -0.28963,-4.30071 -0.0505,-0.75319 1.12183,-0.81316 1.17263,-0.0575 v 0"
       style="fill:#f2578c;fill-opacity:1;fill-rule:nonzero;stroke:none;stroke-width:0.0352777"
       id="path244" />
    <path
       d="m -162.57373,208.67217 c 0.14075,1.88137 0.59372,3.66642 1.34796,5.39362 0.30233,0.6918 -0.81421,1.0541 -1.11478,0.36689 -0.79622,-1.82351 -1.2573,-3.72004 -1.40582,-5.70301 -0.0564,-0.75317 1.11584,-0.81209 1.17264,-0.0575 v 0"
       style="fill:#f2578c;fill-opacity:1;fill-rule:nonzero;stroke:none;stroke-width:0.0352777"
       id="path246" />
    <path
       d="m -155.77147,200.42705 c 0.11677,1.36172 0.37923,2.68182 0.78916,3.98604 0.22684,0.71966 -0.88759,1.08867 -1.11478,0.36688 -0.44062,-1.40158 -0.72178,-2.83174 -0.84702,-4.29542 -0.0646,-0.75247 1.10843,-0.81103 1.17264,-0.0575 v 0"
       style="fill:#f2578c;fill-opacity:1;fill-rule:nonzero;stroke:none;stroke-width:0.0352777"
       id="path248" />
    <path
       d="m -154.09049,214.53887 c 0.50201,1.01 0.89782,2.04399 1.16805,3.13972 0.17992,0.72919 -0.9331,1.10172 -1.11478,0.36724 -0.24341,-0.98742 -0.5782,-1.94486 -1.03081,-2.85644 -0.33197,-0.66887 0.6424,-1.32539 0.97754,-0.65052 v 0"
       style="fill:#f2578c;fill-opacity:1;fill-rule:nonzero;stroke:none;stroke-width:0.0352777"
       id="path250" />
    <path
       d="m -138.51958,197.3787 c -1.38959,-1.01635 -2.77919,-2.03271 -4.16878,-3.04906 -0.61066,-0.44697 0.17216,-1.32221 0.77717,-0.87948 1.38995,1.016 2.77954,2.03271 4.16948,3.04906 0.61031,0.44697 -0.17286,1.32221 -0.77787,0.87948 v 0"
       style="fill:#f2578c;fill-opacity:1;fill-rule:nonzero;stroke:none;stroke-width:0.0352777"
       id="path252" />
    <path
       d="m -133.3461,190.9786 c -1.19838,-0.29245 -2.2098,-0.94897 -2.99014,-1.8997 -0.47907,-0.5842 0.50271,-1.22873 0.97719,-0.65018 0.57891,0.70521 1.37584,1.1864 2.25884,1.40194 0.73237,0.17886 0.49071,1.32751 -0.24589,1.14794 v 0"
       style="fill:#f2578c;fill-opacity:1;fill-rule:nonzero;stroke:none;stroke-width:0.0352777"
       id="path254" />
    <path
       d="m -126.12332,200.2489 c -2.16641,-0.87136 -4.27003,-1.8736 -6.31155,-3.00743 -0.65934,-0.36619 -0.133,-1.41535 0.52916,-1.04775 2.04118,1.13383 4.14514,2.13642 6.31155,3.00743 0.70133,0.28222 0.16793,1.32821 -0.52916,1.04775 v 0"
       style="fill:#f2578c;fill-opacity:1;fill-rule:nonzero;stroke:none;stroke-width:0.0352777"
       id="path256" />
    <path
       d="m -166.80813,216.76877 c 0.27835,1.9618 0.80046,3.84281 1.54905,5.6762 0.2854,0.6992 -0.83044,1.06362 -1.11513,0.36689 -0.78881,-1.93252 -1.31339,-3.92007 -1.6062,-5.98594 -0.10618,-0.74647 1.0668,-0.80115 1.17228,-0.0572 v 0"
       style="fill:#f2578c;fill-opacity:1;fill-rule:nonzero;stroke:none;stroke-width:0.0352777"
       id="path258" />
    <path
       d="m -158.15731,224.69569 c 0.75212,1.66511 1.59914,3.27589 2.53647,4.84399 0.38665,0.647 -0.58984,1.29928 -0.9779,0.65017 -0.9906,-1.65805 -1.87819,-3.36691 -2.67335,-5.12727 -0.31079,-0.68756 0.80645,-1.04951 1.11478,-0.36689 v 0"
       style="fill:#f2578c;fill-opacity:1;fill-rule:nonzero;stroke:none;stroke-width:0.0352777"
       id="path260" />
    <path
       d="m -142.66825,240.58413 c -1.17334,-1.09019 -2.34738,-2.1802 -3.52072,-3.27021 -0.55386,-0.51513 0.22331,-1.39347 0.77717,-0.87853 1.17369,1.09019 2.34738,2.18021 3.52107,3.2668 0.55386,0.51495 -0.2233,1.39689 -0.77752,0.88194 v 0"
       style="fill:#f2578c;fill-opacity:1;fill-rule:nonzero;stroke:none;stroke-width:0.0352777"
       id="path262" />
    <path
       d="m -153.8379,240.78158 c -1.80128,-0.44439 -3.3214,-1.60154 -4.17759,-3.25257 -0.34431,-0.66668 0.63041,-1.32292 0.97719,-0.65264 0.71932,1.38991 1.91947,2.38125 3.44593,2.75868 0.73167,0.17999 0.49037,1.32652 -0.24553,1.14653 v 0"
       style="fill:#f2578c;fill-opacity:1;fill-rule:nonzero;stroke:none;stroke-width:0.0352777"
       id="path264" />
    <path
       d="m -142.83229,246.33783 c -1.29646,-0.37041 -2.4832,-0.9453 -3.5881,-1.71799 -0.61913,-0.43395 0.1651,-1.3087 0.77752,-0.87835 0.93027,0.64904 1.96638,1.13591 3.05611,1.44981 0.72179,0.20825 0.4826,1.3582 -0.24553,1.14653 v 0"
       style="fill:#f2578c;fill-opacity:1;fill-rule:nonzero;stroke:none;stroke-width:0.0352777"
       id="path266" />
    <path
       d="m -126.98198,248.84255 c -2.30082,-0.18341 -4.4891,-0.75847 -6.56767,-1.76731 -0.68051,-0.32812 -0.15099,-1.37583 0.52882,-1.04785 1.88524,0.91376 3.89113,1.47821 5.98134,1.64056 0.74189,0.0599 0.81068,1.23472 0.0575,1.1746 v 0"
       style="fill:#f2578c;fill-opacity:1;fill-rule:nonzero;stroke:none;stroke-width:0.0352777"
       id="path268" />
    <path
       d="m -126.71423,240.64753 c -1.40017,0.61736 -2.96298,0.56098 -4.33493,-0.10227 -0.68086,-0.33154 -0.15134,-1.37926 0.52881,-1.04772 1.11725,0.53979 2.30929,0.53263 3.43923,0.0353 0.69074,-0.30346 1.0534,0.81139 0.36689,1.11471 v 0"
       style="fill:#f2578c;fill-opacity:1;fill-rule:nonzero;stroke:none;stroke-width:0.0352777"
       id="path270" />
    <path
       d="m -112.74246,231.60139 c -2.73297,2.04004 -5.76051,3.32341 -9.11366,3.9274 -0.74049,0.13409 -0.7927,-1.03932 -0.0575,-1.17189 3.13372,-0.56512 5.97182,-1.83032 8.52099,-3.73278 0.60678,-0.45332 1.25342,0.52705 0.65017,0.97727 v 0"
       style="fill:#f2578c;fill-opacity:1;fill-rule:nonzero;stroke:none;stroke-width:0.0352777"
       id="path272" />
    <path
       d="m -113.00987,240.79922 c -0.77435,2.15195 -3.28401,2.00039 -4.95582,2.99519 -0.6477,0.38806 -1.29963,-0.58924 -0.65052,-0.97716 1.41569,-0.84324 3.92324,-0.77971 4.55824,-2.5472 0.25541,-0.70897 1.30069,-0.17279 1.0481,0.52917 v 0"
       style="fill:#f2578c;fill-opacity:1;fill-rule:nonzero;stroke:none;stroke-width:0.0352777"
       id="path274" />
    <path
       d="m -112.77633,220.15932 c -0.43533,1.40335 -1.09749,2.68499 -1.99637,3.8474 -0.46355,0.59936 -1.3395,-0.18239 -0.87947,-0.77717 0.7694,-0.99554 1.35537,-2.1142 1.7279,-3.31612 0.22225,-0.71507 1.37266,-0.4773 1.14794,0.24589 v 0"
       style="fill:#f2578c;fill-opacity:1;fill-rule:nonzero;stroke:none;stroke-width:0.0352777"
       id="path276" />
    <path
       d="m -105.00217,221.66886 c -0.0945,0.88194 -0.43285,1.68486 -0.94332,2.40488 -0.1831,0.25894 -0.60855,0.24518 -0.82833,0.0512 -0.25929,-0.22895 -0.23459,-0.56938 -0.0511,-0.82867 0.39335,-0.55527 0.6029,-1.20051 0.67487,-1.8729 0.0339,-0.31538 0.40993,-0.51294 0.69709,-0.4512 0.33619,0.072 0.48507,0.38029 0.45085,0.69673 v 0"
       style="fill:#f2578c;fill-opacity:1;fill-rule:nonzero;stroke:none;stroke-width:0.0352777"
       id="path278" />
    <path
       d="m -103.04531,228.60941 c 0.39335,1.01459 -0.0889,1.95015 -0.46637,2.89912 -0.50976,1.28196 -1.01988,2.56396 -1.53,3.84733 -0.2794,0.7021 -1.32538,0.16591 -1.04775,-0.53015 0.35701,-0.89708 0.71402,-1.79462 1.07068,-2.69198 0.34925,-0.87672 1.21814,-2.22963 0.85866,-3.15743 -0.27305,-0.70485 0.84279,-1.06998 1.11478,-0.36689 v 0"
       style="fill:#f2578c;fill-opacity:1;fill-rule:nonzero;stroke:none;stroke-width:0.0352777"
       id="path280" />
    <path
       d="m -110.92072,210.12844 c 0.46073,-1.73284 0.66534,-3.47768 0.60784,-5.27121 -0.0243,-0.75318 1.14794,-0.81527 1.17263,-0.0575 0.0607,1.88666 -0.14746,3.75003 -0.63253,5.5746 -0.19368,0.72743 -1.34303,0.48718 -1.14794,-0.24589 v 0"
       style="fill:#f2578c;fill-opacity:1;fill-rule:nonzero;stroke:none;stroke-width:0.0352777"
       id="path282" />
    <path
       d="m -114.66722,200.67646 c -1.11936,0.6858 -2.34597,1.06292 -3.65901,1.10667 -0.75318,0.0251 -0.81527,-1.14723 -0.0572,-1.17263 1.10596,-0.037 2.1209,-0.33268 3.06564,-0.91158 0.64382,-0.39406 1.2954,0.58279 0.65052,0.97754 v 0"
       style="fill:#f2578c;fill-opacity:1;fill-rule:nonzero;stroke:none;stroke-width:0.0352777"
       id="path284" />
    <path
       d="m -102.05224,195.63845 c 0.17427,1.38182 -0.0681,2.75131 -0.68015,4.0005 -0.33303,0.67909 -1.38042,0.14992 -1.04775,-0.52882 0.52916,-1.07985 0.70555,-2.22356 0.55527,-3.41418 -0.0945,-0.74895 1.07809,-0.80469 1.17263,-0.0575 v 0"
       style="fill:#f2578c;fill-opacity:1;fill-rule:nonzero;stroke:none;stroke-width:0.0352777"
       id="path286" />
    <path
       d="m -98.540337,206.69415 c -0.08467,1.4291 -0.207785,2.85467 -0.372179,4.27743 -0.08643,0.74965 -1.234014,0.50059 -1.147944,-0.24589 0.152756,-1.32186 0.269173,-2.64618 0.347138,-3.97404 0.0441,-0.74542 1.217435,-0.81315 1.172985,-0.0575 v 0"
       style="fill:#f2578c;fill-opacity:1;fill-rule:nonzero;stroke:none;stroke-width:0.0352777"
       id="path288" />
    <path
       d="m -96.330182,195.87445 c 0.0762,0.83326 0.0039,1.67111 -0.215549,2.47862 -0.197556,0.72602 -1.346906,0.48578 -1.147939,-0.24589 0.196146,-0.72072 0.258939,-1.43122 0.191206,-2.17522 -0.06844,-0.75177 1.103842,-0.80998 1.172282,-0.0575 v 0"
       style="fill:#f2578c;fill-opacity:1;fill-rule:nonzero;stroke:none;stroke-width:0.0352777"
       id="path290" />
    <path
       d="m -129.76611,266.47098 c -1.96673,-1.80977 -4.44182,-2.83986 -7.12258,-2.87513 -1.60902,-0.0248 -1.74802,-2.53657 -0.12347,-2.51533 3.33022,0.0459 6.45513,1.24534 8.91222,3.50655 1.19204,1.09719 -0.47343,2.98097 -1.66617,1.88391 v 0"
       style="fill:#282422;fill-opacity:1;fill-rule:nonzero;stroke:none;stroke-width:0.0352777"
       id="path292" />
    <path
       d="m -148.22309,263.95207 c -1.71803,-1.79216 -3.97545,-2.80816 -6.46994,-2.78336 -1.6129,0.0177 -1.74802,-2.49424 -0.12347,-2.51174 3.11185,-0.0318 6.09635,1.15355 8.25888,3.41133 1.11477,1.16057 -0.54505,3.05152 -1.66547,1.88377 v 0"
       style="fill:#282422;fill-opacity:1;fill-rule:nonzero;stroke:none;stroke-width:0.0352777"
       id="path294" />
  </g>
</svg>
