<?xml version="1.0" encoding="UTF-8" standalone="no"?>
<svg
   xmlns:dc="http://purl.org/dc/elements/1.1/"
   xmlns:cc="http://creativecommons.org/ns#"
   xmlns:rdf="http://www.w3.org/1999/02/22-rdf-syntax-ns#"
   xmlns:svg="http://www.w3.org/2000/svg"
   xmlns="http://www.w3.org/2000/svg"
   id="svg797"
   version="1.1"
   viewBox="0 0 148.5921 69.59729"
   height="69.59729mm"
   width="148.5921mm">
  <defs
     id="defs791" />
  <metadata
     id="metadata794">
    <rdf:RDF>
      <cc:Work
         rdf:about="">
        <dc:format>image/svg+xml</dc:format>
        <dc:type
           rdf:resource="http://purl.org/dc/dcmitype/StillImage" />
        <dc:title></dc:title>
      </cc:Work>
    </rdf:RDF>
  </metadata>
  <g
     transform="translate(177.86153,-3.7549268)"
     id="layer1">
    <path
       d="m -29.537531,18.900029 v -0.0014 c 0.16933,-0.219428 0.26811,-0.344311 0.26811,-0.344311 v 0 c -0.28928,-0.06668 -0.5715,-0.125589 -0.85372,-0.180622 -0.0847,-0.01658 -0.16581,-0.03105 -0.25047,-0.04657 -0.20461,-0.03775 -0.40922,-0.07267 -0.61031,-0.104775 -0.0847,-0.01376 -0.17286,-0.02752 -0.25753,-0.04022 -0.2293,-0.03387 -0.45861,-0.06385 -0.68438,-0.09031 -0.0459,-0.0056 -0.0952,-0.01235 -0.14112,-0.01729 -0.26811,-0.03034 -0.53622,-0.05468 -0.80433,-0.07514 -0.0705,-0.0053 -0.13758,-0.0088 -0.20814,-0.01341 -0.20108,-0.01341 -0.39511,-0.02399 -0.59266,-0.0321 -0.0847,-0.0032 -0.16934,-0.0064 -0.254,-0.0088 -0.19403,-0.0056 -0.38453,-0.0085 -0.57503,-0.0088 -0.0706,-3.44e-4 -0.13759,-0.0014 -0.20461,-0.0011 -0.25048,0.0014 -0.50095,0.0071 -0.74436,0.01693 -0.0635,0.0025 -0.12348,0.0067 -0.18698,0.0099 -0.18344,0.0088 -0.36689,0.01976 -0.55033,0.03351 -0.0917,0.0067 -0.17992,0.01446 -0.27164,0.02223 -0.15522,0.01376 -0.31044,0.02893 -0.46567,0.04586 -0.0882,0.0099 -0.17991,0.01905 -0.26811,0.02999 -0.18697,0.02258 -0.37041,0.04798 -0.55386,0.07514 -0.11289,0.01693 -0.22578,0.03528 -0.33514,0.05362 -0.14816,0.02434 -0.2928,0.04904 -0.43744,0.07585 -0.11289,0.02117 -0.22225,0.04339 -0.33514,0.06597 -0.10583,0.02152 -0.20814,0.04339 -0.31397,0.06632 -0.11995,0.02611 -0.23989,0.05292 -0.35984,0.08079 -0.0811,0.0194 -0.15875,0.03986 -0.23988,0.05997 -0.4692,0.117122 -0.92428,0.247297 -1.36525,0.38982 l -0.0952,0.03034 c -0.16228,0.05256 -0.32103,0.106892 -0.47978,0.162631 v 0 c -3.65478,1.294342 -6.33589,3.367969 -7.78228,4.968169 -2.78342,3.077281 -5.86317,8.205613 -9.525,12.595931 -3.66183,4.390319 -12.30842,3.673475 -12.30842,3.673475 -3.07622,-3.80506 -9.084023,-2.49555 -18.16805,-2.68746 -5.450416,-0.115006 -14.499169,0.346075 -20.870329,0.733425 6.55461,-6.946548 8.85472,-13.729054 8.85472,-13.729054 0,0 -1.905,0 -4.39561,-1.465439 -4.10281,-2.197805 -11.43,-4.835172 -11.43,-4.835172 -1.46408,-8.205634 -4.68847,-14.6530002 -4.68847,-14.6530002 -0.69497,0.8791222 -1.70392,2.2253222 -2.82222,3.7503804 -1.54164,2.0965583 -3.29142,4.5307248 -4.73781,6.5528468 -1.70744,2.389364 -2.99155,4.202995 -2.99155,4.202995 -0.35983,-0.01376 -0.71614,-0.02081 -1.06539,-0.02222 -2.0955,-0.0074 -3.96522,0.202847 -5.61975,0.546805 -0.8255,0.172156 -1.59808,0.377825 -2.31775,0.606073 -0.47978,0.1524 -0.93486,0.314677 -1.36878,0.484363 -0.21519,0.08467 -0.42686,0.17145 -0.63147,0.259292 -0.40958,0.175683 -0.79622,0.357364 -1.16029,0.541161 -0.18168,0.09172 -0.35807,0.184503 -0.52846,0.276931 -0.34113,0.185561 -0.65969,0.371827 -0.95603,0.555977 -0.29633,0.18415 -0.57009,0.365831 -0.82197,0.54222 -1.512,1.058686 -2.23308,1.92405 -2.23343,1.92405 l -16.55728,-5.714647 0.0123,0.02575 0.01,0.0194 c 0.01,0.02011 0.0243,0.04974 0.0406,0.0829 l 0.0254,0.05221 0.036,0.07444 c 0.025,0.05186 0.0536,0.111125 0.0857,0.178152 l 0.0229,0.04833 c 0.55845,1.167342 2.01966,4.303889 3.24944,7.647164 l 7.1e-4,0.0021 c 0.16016,0.434975 0.31609,0.873831 0.46602,1.311981 1.05551,3.090686 1.79141,6.161614 1.32609,7.847894 -1.17228,4.249208 -10.11025,11.428942 -10.11025,11.428942 0,0 15.02833,7.064727 31.71437,5.448652 -0.13759,2.513541 -0.35984,7.915978 0.0811,10.66941 0.58561,3.663243 4.39561,2.637718 5.57036,2.483908 1.17122,-0.154165 1.25942,-3.948993 1.25942,-3.948993 0.81844,0 4.15925,0 4.15925,0 0,0 -0.43745,2.051401 0,2.930525 0.44097,0.87912 4.25097,1.172278 5.12938,0.944033 0.87842,-0.228248 0.73378,-3.874558 0.73378,-3.874558 5.12939,0.293158 36.046834,0 36.046834,0 0,0 -0.440974,2.490962 0.292806,3.367262 0.73025,0.876654 5.566833,0.442383 6.007804,0 0.437446,-0.442384 0.292806,-3.514019 0.292806,-3.514019 l 2.049639,-0.43956 c 0,0 0.21167,2.145593 1.02305,3.224742 1.17475,1.55857 6.17714,0.0081 6.17714,-0.724607 0,-0.732718 0.41981,-19.643725 0.41981,-19.643725 9.37683,-0.146402 18.31622,-4.39561 25.05428,-9.231135 2.39889,-1.719085 5.03414,-4.252735 7.43655,-6.80473 l 0.06,-0.06244 c 3.63362,-3.866797 6.72395,-7.754408 7.62353,-8.905169"
       style="fill:#7d482a;fill-opacity:1;fill-rule:nonzero;stroke:none;stroke-width:0.0352777"
       id="path402" />
    <path
       d="m -124.85808,46.443506 c 0,0 19.0888,-1.409346 28.17283,-1.217787 9.084027,0.19191 15.091833,-1.117248 18.168056,2.687812 0,0 8.646583,0.716491 12.308413,-3.673475 3.66536,-4.390319 6.74159,-9.51865 9.525,-12.595929 2.78342,-3.076928 10.11061,-7.912453 20.22122,-5.567892 0,0 -8.64658,11.282537 -15.38464,16.118062 -6.74158,4.835174 -15.68097,9.084382 -25.0578,9.231138 0,0 -0.41981,18.911004 -0.41981,19.643723 0,0.732721 -5.002383,2.283179 -6.177133,0.724606 -0.81139,-1.079148 -1.023056,-3.224742 -1.023056,-3.224742 l -2.04964,0.439561 c 0,0 0.14464,3.071638 -0.292804,3.514021 -0.440973,0.442383 -5.274027,0.8763 -6.007806,0 -0.733777,-0.8763 -0.292804,-3.367265 -0.292804,-3.367265 0,0 -30.917446,0.292807 -36.046836,0 0,0 0.14817,3.64631 -0.73377,3.874558 -0.87842,0.228249 -4.68842,-0.06491 -5.12587,-0.944033 -0.44097,-0.879123 0,-2.930525 0,-2.930525 0,0 -3.34433,0 -4.16277,0 0,0 -0.0882,3.794832 -1.25942,3.948642 -1.17122,0.154165 -4.98228,1.17969 -5.5686,-2.483557 -0.58596,-3.663243 0,-12.015258 0,-12.015258 l 21.20724,-12.16166"
       style="fill:#f25724;fill-opacity:1;fill-rule:nonzero;stroke:none;stroke-width:0.0352777"
       id="path586" />
    <path
       d="m -156.46873,31.497722 c 0,0 5.12868,-6.154207 16.70579,-5.714646 0,0 7.76464,-10.989733 10.54805,-14.506221 0,0 3.22439,6.447366 4.68842,14.652624 0,0 7.32719,2.63772 11.43,4.835525 2.49061,1.46544 4.39561,1.46544 4.39561,1.46544 0,0 -6.07131,17.940866 -26.66647,25.349197 -20.36869,7.326138 -42.4942,-3.077279 -42.4942,-3.077279 0,0 8.93798,-7.179733 10.11026,-11.428941 1.17228,-4.249561 -5.27509,-17.290345 -5.27509,-17.290345 l 16.55763,5.714646"
       style="fill:#f8e677;fill-opacity:1;fill-rule:nonzero;stroke:none;stroke-width:0.0352777"
       id="path588" />
    <path
       d="m -129.21489,11.276855 c -2.78341,3.516488 -10.54805,14.506221 -10.54805,14.506221 -11.57711,-0.439561 -16.70579,5.714646 -16.70579,5.714646 l -16.55763,-5.714646 c 0,0 2.34633,4.748388 3.95076,9.448446 7.01745,-0.441676 19.36538,-0.269168 24.76888,5.64374 0,0 2.45181,-15.344069 19.44864,-16.638763 -1.56986,-7.380817 -4.35681,-12.959644 -4.35681,-12.959644"
       style="fill:#f25724;fill-opacity:1;fill-rule:nonzero;stroke:none;stroke-width:0.0352777"
       id="path590" />
    <path
       d="m -138.59172,34.281846 c -2.19781,1.904648 1.75683,6.593416 3.81,4.39561 2.04964,-2.197804 -1.61219,-6.30061 -3.81,-4.39561"
       style="fill:#52423b;fill-opacity:1;fill-rule:nonzero;stroke:none;stroke-width:0.0352777"
       id="path592" />
    <path
       d="m -156.17558,39.996139 c -2.06375,1.520473 1.75825,4.98193 3.51649,4.102807 1.7586,-0.879124 -0.73236,-6.154209 -3.51649,-4.102807"
       style="fill:#52423b;fill-opacity:1;fill-rule:nonzero;stroke:none;stroke-width:0.0352777"
       id="path594" />
    <path
       d="m -146.65128,48.49491 c 0.4706,1.223079 4.24956,2.637367 5.71359,1.904646 1.46755,-0.732367 3.66536,-4.688769 2.34597,-5.128329 -1.31939,-0.439563 -8.35942,2.444044 -8.05956,3.223683"
       style="fill:#52423b;fill-opacity:1;fill-rule:nonzero;stroke:none;stroke-width:0.0352777"
       id="path596" />
    <path
       d="m -44.816331,35.81396 c 4.53672,-4.760031 8.35377,-9.737725 8.35377,-9.737725 -7.76816,-1.801284 -13.8818,0.635705 -17.5648,3.257197 0.99836,0.0046 1.96144,0.07126 2.61761,0.259292 0,0 -1.17122,2.197805 -1.46403,3.370086 -0.2928,1.172279 3.22439,-0.293158 4.54378,-0.732721 0,0 0.43744,2.613732 0,3.504848 -0.44097,0.891117 3.51367,-1.944158 3.51367,-1.944158 v 2.023181"
       style="fill:#f8e677;fill-opacity:1;fill-rule:nonzero;stroke:none;stroke-width:0.0352777"
       id="path598" />
  </g>
</svg>
