<?xml version="1.0" encoding="UTF-8" standalone="no"?>
<svg
   xmlns:dc="http://purl.org/dc/elements/1.1/"
   xmlns:cc="http://creativecommons.org/ns#"
   xmlns:rdf="http://www.w3.org/1999/02/22-rdf-syntax-ns#"
   xmlns:svg="http://www.w3.org/2000/svg"
   xmlns="http://www.w3.org/2000/svg"
   id="svg306"
   version="1.1"
   viewBox="0 0 161.50986 113.57515"
   height="113.57515mm"
   width="161.50986mm">
  <defs
     id="defs300" />
  <metadata
     id="metadata303">
    <rdf:RDF>
      <cc:Work
         rdf:about="">
        <dc:format>image/svg+xml</dc:format>
        <dc:type
           rdf:resource="http://purl.org/dc/dcmitype/StillImage" />
        <dc:title></dc:title>
      </cc:Work>
    </rdf:RDF>
  </metadata>
  <g
     transform="translate(-3.9117372,-2.9326606)"
     id="layer1">
    <path
       d="m 76.203595,100.57813 c -0.893585,-0.35771 -1.198385,-7.311317 -1.302102,-12.012077 0.883357,0.39053 1.800932,0.77364 2.655007,1.09114 -0.150284,4.87151 -0.508707,11.258547 -1.352905,10.920937 z M 19.518206,54.470433 c 0,0 -7.32296,3.52601 -6.780388,7.32296 0.542572,3.79695 10.361435,4.33952 10.361435,4.33952 0,0 -4.665839,7.86553 -3.309761,9.76383 1.356078,1.89865 9.221611,-0.8135 9.221611,-0.8135 0,0 -2.712155,10.03511 0,11.66248 2.712155,1.62736 10.577688,-5.6956 10.577688,-5.6956 0,0 -0.271285,11.66248 1.627365,12.20505 1.898296,0.54222 8.679037,-6.50945 8.679037,-6.50945 0,0 -0.271285,9.49289 3.25473,9.13341 3.52566,-0.35948 7.865179,-8.31955 7.865179,-8.31955 0,0 1.3462,2.30575 2.97815,4.48945 0.0028,3.73062 -0.269521,8.089537 -1.389592,10.427397 -2.208387,4.61115 -1.317271,6.50945 -1.317271,6.50945 h 30.919206 c -0.270933,-1.08479 -2.440868,-2.98344 -2.440868,-7.05167 0,-4.068227 1.356076,-13.832417 1.356076,-13.832417 5.695599,0.81386 23.324967,-0.54221 23.324967,-0.54221 0.54257,5.15302 0,11.66247 -1.62737,15.188137 -1.62701,3.52601 -1.62701,6.23816 -1.62701,6.23816 h 26.03712 c -0.81915,-2.43487 -1.08479,-3.79695 -1.62736,-6.23816 -0.54258,-2.44087 -2.44088,-14.103347 0.54257,-20.338347 2.98344,-6.23499 2.98344,-16.62465 2.98344,-16.62465 2.54317,5.8741 8.23313,8.90799 13.96788,9.66293 l 0.0124,10e-4 c 0.22507,0.0296 0.45014,0.0557 0.67486,0.0783 l 0.0445,0.004 c 0.6724,0.066 1.34338,0.1016 2.00836,0.10619 0.067,7.9e-4 0.133,-10e-4 0.19968,-10e-4 0.15981,-2.6e-4 0.31926,-2.6e-4 0.47801,-0.004 l 0.0243,-0.001 c 0.44168,-0.0109 0.87983,-0.0349 1.31269,-0.0723 7.06014,-0.6096 8.19573,-7.62212 7.31449,-12.68024 -0.88124,-5.05813 -8.95032,-9.22161 -10.84897,-6.78039 -1.8983,2.44087 1.89865,0.27128 5.69595,5.96688 3.79695,5.6956 -1.12466,10.47997 -7.86554,8.40775 -0.31996,-0.0981 -0.64099,-0.21978 -0.96167,-0.34149 l 0.004,0.008 c -6.44207,-2.44686 -12.96423,-9.55992 -14.77327,-17.63042 -1.8983,-8.470545 -7.86518,-14.854412 -18.98545,-16.210489 -5.69912,-0.694973 -12.4661,-0.321381 -17.710146,0.208138 0.02998,-0.159454 0.04198,-0.319263 0.02468,-0.479425 -0.327731,-2.983442 -9.979025,-3.796946 -9.979025,-3.796946 0,0 6.238169,-8.67904 2.983442,-9.565923 -3.254727,-0.886883 -8.407752,1.158169 -8.407752,1.158169 0,0 1.898296,-10.035469 0,-11.12026 -1.89865,-1.084792 -9.764183,3.526013 -9.764183,3.526013 0,0 2.169935,-8.4081047 0,-9.4928967 -2.169583,-1.084791 -8.67904,6.7807417 -8.67904,6.7807417 0,0 -0.813504,-10.3067547 -3.254727,-10.5776887 -2.440868,-0.271286 -5.81025,9.2216107 -5.81025,9.2216107 0,0 -5.309658,-9.2216107 -6.937023,-9.2272547 -1.627525,-0.0059 -3.25489,10.8543207 -3.25489,10.8543207 0,0 -6.509456,-9.2212577 -8.136466,-7.5938947 -1.627362,1.627012 0.270933,9.7638307 0.270933,9.7638307 0,0 -8.407752,-4.339519 -10.035116,-2.983442 -1.627364,1.356078 -0.54222,9.690806 -0.54222,9.690806 0,0 -8.408105,-1.011767 -9.764183,0 -1.356077,1.011766 4.665839,10.108493 4.665839,10.108493 0,0 -10.361435,-0.54257 -10.904007,2.169583 -0.54222,2.712157 6.780741,8.67904 6.780741,8.67904 0,0 -8.136819,3.254727 -7.865533,5.789434 0.271286,2.53436 8.407752,5.05954 8.407752,5.05954"
       style="fill:#7d482a;fill-opacity:1;fill-rule:nonzero;stroke:none;stroke-width:0.0352777"
       id="path28" />
    <path
       d="M 69.011516,108.10006 C 67.655439,107.55748 67.655439,91.826783 67.655439,91.826783 H 70.4699 c 0,0 -0.102307,16.815497 -1.458384,16.273277 z M 157.97219,70.400113 c -0.88123,-5.05813 -8.95032,-9.22161 -10.84897,-6.78039 -1.89865,2.44087 1.89865,0.27094 5.6956,5.96689 3.7973,5.69559 -1.12431,10.47961 -7.86518,8.40775 -6.74123,-2.07222 -13.83242,-9.4929 -15.73107,-17.96344 -1.89865,-8.4709 -7.86553,-14.85442 -18.98544,-16.210497 -11.120264,-1.35608 -26.308405,1.356077 -26.308405,1.356077 l -20.070586,16.27329 -7.322962,31.46178 c 0,0 1.084791,12.475977 -1.123596,17.086777 -2.20839,4.61081 -1.317273,6.50946 -1.317273,6.50946 h 30.919208 c -0.271288,-1.08479 -2.440871,-2.98344 -2.440871,-7.05168 0,-4.06858 1.35608,-13.832407 1.35608,-13.832407 5.695595,0.81351 23.324965,-0.54257 23.324965,-0.54257 0.54257,5.153377 0,11.662827 -1.62737,15.188487 -1.62736,3.52601 -1.62736,6.23817 -1.62736,6.23817 h 26.03747 c -0.81915,-2.43487 -1.08515,-3.7973 -1.62737,-6.23817 -0.54257,-2.44087 -2.44122,-14.103347 0.54222,-20.338337 2.98344,-6.235 2.98344,-16.62465 2.98344,-16.62465 3.25473,7.51699 11.66249,10.3833 18.72298,9.7737 7.06014,-0.6096 8.19573,-7.62211 7.31449,-12.68024"
       style="fill:#f79812;fill-opacity:1;fill-rule:nonzero;stroke:none;stroke-width:0.0352777"
       id="path108" />
    <path
       d="m 49.640135,19.681606 c 0,0 3.369381,-9.492896 5.81025,-9.221258 2.440871,0.270934 3.254729,10.577336 3.254729,10.577336 0,0 6.509102,-7.86518 8.679038,-6.780389 2.169583,1.084792 0,9.492545 0,9.492545 0,0 7.865533,-4.610453 9.763831,-3.525661 1.89865,1.084791 0,11.119907 0,11.119907 0,0 5.153377,-2.044699 8.408104,-1.157817 3.254375,0.886884 -2.983442,9.565924 -2.983442,9.565924 0,0 9.651296,0.813503 9.978673,3.796945 0.327732,2.983442 -8.080375,5.966885 -8.080375,5.966885 0,0 10.035469,3.52601 9.764184,6.50946 -0.271286,2.98344 -8.67904,5.42431 -8.67904,5.42431 0,0 9.503481,3.52601 8.684331,7.32296 -0.81915,3.7973 -10.040408,2.71215 -10.040408,2.71215 0,0 5.695598,6.50946 5.42431,8.40811 -0.271285,1.89829 -10.035117,-1.62737 -10.035117,0 0,1.62736 5.424313,7.87153 4.068234,10.03829 -1.356077,2.16641 -11.692112,-2.71533 -11.692112,-2.71533 0,0 3.013075,9.49254 1.927931,10.57769 -1.084792,1.08479 -10.577338,-3.7973 -10.577338,-3.7973 0,0 0.542221,7.594237 -1.627362,9.221607 -2.169938,1.62736 -7.865533,-8.136817 -7.865533,-8.136817 0,0 -4.339521,7.960067 -7.865534,8.319557 -3.525662,0.35947 -3.254375,-9.133067 -3.254375,-9.133067 0,0 -6.780741,7.051677 -8.679391,6.509107 -1.898298,-0.54222 -1.627365,-12.204697 -1.627365,-12.204697 0,0 -7.86518,7.32296 -10.577335,5.69559 -2.712509,-1.62736 0,-11.66248 0,-11.66248 0,0 -7.865533,2.71216 -9.221611,0.81351 -1.356078,-1.8983 3.309761,-9.76383 3.309761,-9.76383 0,0 -9.8192156,-0.54257 -10.3614356,-4.33952 -0.542572,-3.7973 6.7803886,-7.32296 6.7803886,-7.32296 0,0 -8.1364666,-2.52518 -8.4077526,-5.05989 -0.271286,-2.53436 7.8651806,-5.78909 7.8651806,-5.78909 0,0 -7.3229606,-5.96688 -6.7803886,-8.679037 0.542572,-2.712153 10.9040076,-2.169935 10.9040076,-2.169935 0,0 -6.0219162,-9.096727 -4.665839,-10.108142 1.356078,-1.011765 9.76383,0 9.76383,0 0,0 -1.084791,-8.334726 0.542573,-9.690804 1.627363,-1.356078 10.035117,2.983441 10.035117,2.983441 0,0 -1.898651,-8.136819 -0.271288,-9.764183 1.627365,-1.627011 8.136822,7.594247 8.136822,7.594247 0,0 1.627362,-10.860263 3.254726,-10.854619 1.627011,0.006 6.937021,9.227255 6.937021,9.227255"
       style="fill:#592e16;fill-opacity:1;fill-rule:nonzero;stroke:none;stroke-width:0.0352777"
       id="path110" />
    <path
       d="m 34.295008,35.683607 c 0,0 1.627365,-6.237816 -4.068233,-5.424313 -5.695597,0.813859 -11.66248,4.610807 -11.120261,8.67904 0.542573,4.068585 4.068586,4.339519 4.068586,4.339519 0,0 -9.492896,5.42467 -6.780741,17.62937 2.712155,12.20505 19.027774,29.29219 33.245776,29.02091 14.218004,-0.27129 30.49129,-15.73107 31.576433,-28.20706 1.084792,-12.47634 -5.153377,-18.44322 -5.153377,-18.44322 0,0 5.153377,-5.695596 -0.542573,-10.306402 -5.695595,-4.610806 -11.119908,-2.169583 -10.84862,1.627365 0,0 -17.292463,-8.001354 -30.37699,1.084791"
       style="fill:#f79812;fill-opacity:1;fill-rule:nonzero;stroke:none;stroke-width:0.0352777"
       id="path112" />
    <path
       d="m 57.484502,50.465343 c -3.118909,0 -2.576688,5.6956 0.678039,5.28885 3.254727,-0.40675 2.440869,-5.28885 -0.678039,-5.28885"
       style="fill:#592e16;fill-opacity:1;fill-rule:nonzero;stroke:none;stroke-width:0.0352777"
       id="path114" />
    <path
       d="m 36.686841,50.465343 c -3.11926,0 -2.576687,5.6956 0.67804,5.28885 3.254727,-0.40675 2.440869,-5.28885 -0.67804,-5.28885"
       style="fill:#592e16;fill-opacity:1;fill-rule:nonzero;stroke:none;stroke-width:0.0352777"
       id="path116" />
    <path
       d="m 59.654439,69.141053 c -1.085146,-0.50377 -1.825625,1.53035 -5.288846,1.80163 -1.863725,0.1457 -4.474279,-1.44004 -5.398204,-3.97439 2.469092,-0.56515 4.33705,-2.51178 4.448879,-4.29789 0.135467,-2.16994 -3.759552,-2.78589 -6.102702,-2.61162 -3.516135,0.26141 -6.373635,1.11972 -6.373635,2.34033 0,1.19627 2.997552,4.4697 6.181371,4.72652 -0.274461,1.78329 -1.246363,4.08834 -4.418188,4.49509 -5.288843,0.67804 -6.916208,-1.89865 -7.187493,-2.57669 -0.271288,-0.67804 -1.762832,1.03894 0,2.68923 1.762829,1.65029 3.932767,1.78576 7.594245,1.37901 3.661482,-0.40675 4.88174,-3.97158 4.88174,-3.97158 0,0 2.034469,4.22311 6.644921,4.16525 4.610806,-0.0579 6.102704,-3.66112 5.017912,-4.16489"
       style="fill:#592e16;fill-opacity:1;fill-rule:nonzero;stroke:none;stroke-width:0.0352777"
       id="path118" />
    <path
       d="m 144.95364,77.994363 c -0.31997,-0.0984 -0.641,-0.21978 -0.96168,-0.34184 0.6911,1.5053 1.23402,3.29565 1.22414,5.21546 1.83021,0.29986 3.67806,0.36442 5.4416,0.21237 7.06014,-0.6096 8.19573,-7.62211 7.31449,-12.68024 -0.88123,-5.05813 -8.95032,-9.22161 -10.84897,-6.78039 -1.89865,2.44087 1.89865,0.27094 5.6956,5.96689 3.7973,5.69559 -1.12431,10.47961 -7.86518,8.40775"
       style="fill:#592e16;fill-opacity:1;fill-rule:nonzero;stroke:none;stroke-width:0.0352777"
       id="path120" />
  </g>
</svg>
