<?xml version="1.0" encoding="UTF-8" standalone="no"?>
<svg
   xmlns:dc="http://purl.org/dc/elements/1.1/"
   xmlns:cc="http://creativecommons.org/ns#"
   xmlns:rdf="http://www.w3.org/1999/02/22-rdf-syntax-ns#"
   xmlns:svg="http://www.w3.org/2000/svg"
   xmlns="http://www.w3.org/2000/svg"
   id="svg2782"
   version="1.1"
   viewBox="0 0 48.697262 52.802795"
   height="52.802795mm"
   width="48.697262mm">
  <defs
     id="defs2776" />
  <metadata
     id="metadata2779">
    <rdf:RDF>
      <cc:Work
         rdf:about="">
        <dc:format>image/svg+xml</dc:format>
        <dc:type
           rdf:resource="http://purl.org/dc/dcmitype/StillImage" />
        <dc:title></dc:title>
      </cc:Work>
    </rdf:RDF>
  </metadata>
  <g
     transform="translate(46.271248,-31.050983)"
     id="layer1">
    <path
       d="m -27.643095,80.604625 c -4.859161,0 -8.798772,0.726791 -8.798772,1.626375 0,0.895985 3.939611,1.622777 8.798772,1.622777 4.859513,0 8.798983,-0.726792 8.798983,-1.622777 0,-0.899584 -3.93947,-1.626375 -8.798983,-1.626375"
       style="fill:#afaeae;fill-opacity:1;fill-rule:nonzero;stroke:none;stroke-width:0.0352777"
       id="path1179" />
    <path
       d="m 1.2889145,68.454992 c -0.80574397,-0.04233 -1.71661697,0.388057 -2.31775,0.90311 -0.166865,0.141042 -0.282575,0.356307 -0.42545,0.483235 -0.173567,0.155295 -0.448733,0.23989 -0.662869,0.317643 -1.092906,0.388054 -3.003198,0.564444 -3.015546,-1.061931 -0.0113,-1.442863 0.02574,-2.885723 -0.188735,-4.318 -0.173919,-1.16064 -0.518935,-2.808111 -1.7653,-3.28295 -0.766233,-0.291042 -1.639007,0.01976 -2.370315,0.2667 -0.7574115,0.257527 -1.4333345,0.627943 -2.1307765,1.008943 -0.443441,0.23989 -0.7239,0.09525 -1.061154,-0.261056 -0.312208,-0.33161 -0.598312,-0.719664 -0.682625,-1.174748 -0.07373,-0.398991 -0.0141,-0.814212 0.0081,-1.215673 0.03704,-0.658989 0.0053,-1.314098 -0.1016,-1.965677 -0.07796,-0.473075 -0.188383,-0.940506 -0.318558,-1.401587 -0.08149,-0.287161 -0.170744,-0.572205 -0.2667,-0.855133 -0.113594,-0.336197 -0.210609,-0.715081 -0.377119,-1.0287 -0.07585,-0.143228 -0.17004,-0.26282 -0.218016,-0.423334 -0.13194,-0.441325 0.05644,-0.833613 0.455789,-1.0541 0.446262,-0.246591 0.977546,-0.356305 1.462262,-0.500944 0.639234,-0.190853 1.27635,-0.393347 1.892655,-0.650169 1.3832385,-0.575734 2.7107435,-1.443567 3.4663935,-2.774245 0.445203,-0.784225 0.613833,-1.651705 0.652991,-2.54388 0.05186,-1.174397 0.125942,-2.352675 0.303035,-3.515783 0.19685,-1.291167 0.554215,-3.4925 2.123724,-3.798358 0.42545,-0.0829 0.862187,-0.01517 1.29187,-0.06068 0.444855,-0.04763 0.883005,-0.162984 1.280583,-0.371475 0.537634,-0.28187 1.05692303,-0.755298 1.18180703,-1.374423 0.09666,-0.479425 -0.110067,-0.958144 -0.63605903,-1.007533 -0.407106,-0.0381 -0.832556,0.08185 -1.22061,0.189442 -0.561975,0.155928 -1.113366,0.345369 -1.672521,0.510116 -0.608894,0.179564 -1.218494,0.31362 -1.845379,0.40887 -0.437091,0.06632 -0.879829,0.129469 -1.306338,0.249414 -0.662162,0.186266 -1.255183,0.543983 -1.617837,1.143 -0.368654,0.608541 -0.504825,1.324328 -0.593373,2.020358 -0.1016,0.801511 -0.162631,1.607961 -0.25894,2.410178 -0.10583,0.878769 -0.236712,1.767769 -0.5087025,2.612672 -0.203552,0.631825 -0.513999,1.436511 -1.134534,1.771297 -0.493183,0.265994 -1.075973,0.425097 -1.601258,0.618772 -0.557742,0.206022 -1.117248,0.407459 -1.678165,0.605014 -0.575733,0.2032 -1.152877,0.403578 -1.731785,0.597606 -0.406752,-1.247423 -1.234017,-2.54635 -2.384073,-3.207809 -1.97238,-1.13418 -4.424891,0.238478 -5.641269,1.871134 -0.288219,0.386997 -0.55633,0.818797 -0.747889,1.271763 -1.152172,-0.463902 -1.786466,-1.803399 -1.888772,-2.971094 -0.04974,-0.565503 0.01376,-1.1303 -0.07479,-1.694039 -0.05644,-0.358422 -0.155927,-0.707319 -0.286808,-1.04528 -0.236714,-0.6096 -0.562328,-1.183922 -0.616656,-1.84785 -0.09031,-1.095022 0.404637,-2.186869 0.878417,-3.142192 0.384905,-0.775052 0.392313,-1.725083 0.298121,-2.574572 -0.0321,-0.287866 -0.08573,-0.573969 -0.165452,-0.852311 -0.09666,-0.337961 -0.286456,-0.640644 -0.377473,-0.977194 -0.138289,-0.510822 0.02646,-1.057981 0.4191,-1.412169 0.334434,-0.302331 0.848078,-0.456848 1.28905,-0.333728 0.248003,0.0695 0.442031,0.242711 0.655461,0.378883 0.227895,0.14605 0.467784,0.287161 0.724606,0.376414 0.576086,0.200731 1.224139,-0.14993 1.02623,-0.81033 -0.242358,-0.807862 -1.029758,-1.493662 -1.798108,-1.781881 -0.823394,-0.275872 -1.837983,-0.06244 -2.62503,0.237772 -0.884414,0.337609 -1.535994,0.963084 -1.816453,1.882775 -0.166511,0.545395 -0.195086,1.138061 -0.261055,1.702506 -0.07514,0.640997 -0.14852,1.281994 -0.233539,1.92158 -0.181681,1.362781 -0.411692,2.726267 -0.803628,4.046361 -0.227894,0.767644 -0.494594,1.495778 -0.585964,2.296583 -0.08819,0.773642 -0.05644,1.557514 0.06138,2.326569 0.324202,2.117373 1.243541,4.115506 2.2987,5.960181 0.555977,0.972255 1.296105,1.889477 1.684866,2.947811 0.207081,0.563033 0.279753,1.180747 0.03916,1.745544 -0.21202,0.497417 -0.606425,0.887942 -0.986367,1.260122 -0.446264,0.436033 -0.900289,0.863248 -1.290108,1.352198 -1.157464,1.453092 -1.442861,3.30976 -1.112661,5.115983 0.117122,0.638527 0.308327,1.266471 0.566561,1.866194 0.236361,0.546806 0.542925,1.058333 0.782108,1.60514 0.231422,0.529166 0.434622,1.086553 0.51188,1.661583 0.06456,0.479705 -0.0067,0.867762 -0.193675,1.305311 -0.226836,0.529167 -0.286455,1.142932 -0.347133,1.710973 -0.09102,0.853686 -0.131586,1.710974 -0.165453,2.56466 -0.06985,1.763889 -0.05997,3.541818 -0.239183,5.298686 -0.02928,0.289242 -0.06491,0.578522 -0.123119,0.860742 -0.05715,0.278765 -0.124531,0.568008 -0.0071,0.839613 0.222603,0.522145 0.959203,0.543383 1.436864,0.550402 0.69215,0.007 1.397353,-0.105833 2.086681,-0.01765 0.343958,0.0423 0.547863,0.218686 0.859013,0.34216 0.340784,0.130492 0.68827,0.03887 0.966259,-0.187008 0.213783,-0.172791 0.386644,-0.447992 0.347486,-0.733779 -0.04798,-0.349213 -0.396522,-0.43741 -0.69462,-0.497346 -0.440972,-0.09179 -0.898877,-0.116451 -1.329619,-0.253965 -0.218369,-0.07055 -0.464608,-0.169368 -0.523169,-0.409292 -0.100542,-0.412716 -0.02328,-0.910201 0.01693,-1.322917 0.06914,-0.712576 0.18803,-1.42173 0.343253,-2.12023 0.173566,-0.779569 0.3937,-1.552081 0.696736,-2.289493 0.250472,-0.610341 0.557036,-1.25236 1.034697,-1.721591 0.661811,-0.645583 1.750836,-0.36322 2.568928,-0.243345 1.186039,0.17639 2.378428,0.349179 3.581049,0.257564 1.44286,-0.109432 2.822575,-0.603322 4.004379,-1.43937 0.751771,-0.532765 1.413933,-1.178349 1.995664,-1.890959 0.357365,-0.437375 0.683332,-0.899512 0.983898,-1.379291 0.149929,-0.239888 0.294217,-0.483304 0.432859,-0.726721 0.160512,-0.28575 0.384175,-0.60325 0.481893,-0.913696 0.01871,-0.05997 0.03881,-0.14111 0.01799,-0.112887 0.01482,-0.01765 0.04127,-0.02822 0.05856,-0.04586 0.0568,-0.05644 0.163338,-0.116417 0.244123,-0.165804 0.2988015,-0.172863 0.6603995,-0.292806 1.0071785,-0.211667 0.81139,0.1905 1.056923,1.287638 1.31304,1.964971 0.3175,0.836083 0.631825,1.679152 1.045985,2.472902 0.361246,0.695113 0.814213,1.418166 1.496483,1.838044 0.748597,0.462068 1.647122,0.268182 2.428172,-0.007 1.020233,-0.363395 1.927225,-0.966716 2.85926203,-1.502902 0.38594,-0.222288 0.789871,-0.462034 1.22696297,-0.568008 0.397227,-0.09525 0.764116,-0.07761 1.075266,-0.391515 0.603602,-0.606776 -0.292454,-1.47461 -0.937331,-1.50636"
       style="fill:#3b2a15;fill-opacity:1;fill-rule:nonzero;stroke:none;stroke-width:0.0352777"
       id="path2449" />
    <path
       d="m -44.495255,51.287062 c -0.01228,0.02469 -0.03224,0.06244 0,0 z m 4.057227,1.905353 c -0.0053,0.0081 -0.0055,0.0067 0,0 z m 14.983919,16.465479 c -0.858661,0.243522 -1.569509,0.398674 -2.452864,0.437549 -0.359128,0.01405 -0.514703,0.01405 -0.904522,-0.03186 -0.302684,-0.03527 -0.598664,-0.09521 -0.785636,-0.151689 -0.565503,-0.172826 -0.981075,-0.39511 -1.391356,-0.716068 -0.204964,-0.162277 -0.396522,-0.338667 -0.575028,-0.529167 -0.168275,-0.17639 -0.383116,-0.440973 -0.475544,-0.567973 -1.405467,-1.929694 -2.020605,-4.310944 -3.374108,-6.279444 -0.734765,-1.066445 -1.63957,-1.966383 -2.792307,-2.575277 -0.824195,-0.434975 -1.73108,-0.688975 -2.5648,-1.109839 -0.838553,-0.423686 -1.63008,-0.941917 -2.317044,-1.585736 -0.998644,-0.935567 -1.746674,-2.176286 -1.776166,-3.539772 -0.01295,-0.595489 0.08961,-1.059392 0.328683,-1.633714 0.01309,-0.0314 0.02783,-0.06244 0.04216,-0.09313 0.0024,-0.0046 0.0047,-0.0088 0.0073,-0.01411 0.03323,-0.06421 0.06752,-0.127706 0.103787,-0.190148 0.0726,-0.125941 0.151554,-0.248355 0.236044,-0.366536 0.03418,-0.04798 0.06985,-0.09454 0.105833,-0.140758 0.01252,-0.01446 0.07895,-0.09525 0.09783,-0.116417 0.105728,-0.118886 0.217488,-0.232128 0.334469,-0.339725 0.01447,-0.01341 0.09783,-0.08608 0.126788,-0.11183 0.0387,-0.02893 0.167288,-0.128059 0.200343,-0.151342 0.213042,-0.150989 0.268463,-0.188031 0.514702,-0.281517 -0.128023,0.04833 0.12887,-0.03351 0.156845,-0.04022 0.01323,-0.0032 0.05951,-0.01058 0.06847,-0.01235 0.01584,-0.0018 0.03182,-0.0032 0.04766,-0.0039 0.169228,-0.0078 0.198861,-0.0194 0.424463,0.03246 -0.05983,-0.01376 0.105127,0.03422 0.143157,0.04868 0.07525,0.02858 0.148272,0.06209 0.219957,0.09842 0.123049,0.06279 0.232727,0.144286 0.361033,0.254353 0.250683,0.215547 0.45212,0.463197 0.618066,0.744361 0.320781,0.543277 0.523628,1.13418 0.515232,1.756833 -0.0033,0.240594 -0.04339,0.359481 -0.144427,0.575733 -0.06724,-0.03104 -0.139594,-0.06491 -0.188242,-0.103716 -0.142205,-0.113948 -0.279189,-0.236714 -0.394229,-0.378531 -0.374686,-0.462844 -1.660278,0.275872 -1.207171,0.835378 0.436704,0.539044 1.13411,0.90805 1.835538,0.735541 0.972362,-0.23883 1.542592,-1.187449 1.51638,-2.148416 -0.04064,-1.490486 -1.049231,-3.129844 -2.564235,-3.465336 -1.72586,-0.382764 -3.494723,1.03258 -4.295634,2.46133 -0.700017,1.248481 -0.811777,2.702984 -0.305224,4.043539 0.647524,1.713795 2.143408,2.95769 3.6963,3.832932 0.518442,0.291748 1.057522,0.546452 1.608455,0.770819 0.437409,0.178154 0.88706,0.322791 1.311487,0.532341 0.572981,0.282223 1.088495,0.656167 1.57427,1.12889 1.850003,1.799519 2.548115,4.452408 3.850253,6.664325 0.62925,1.072444 1.424411,2.035493 2.537425,2.624595 1.359605,0.716174 2.974622,0.702133 4.451349,0.444572 0.504825,-0.0882 1.002948,-0.204648 1.496131,-0.345758 0.28963,-0.08117 0.715433,-0.33514 0.6985,-0.687916 -0.01729,-0.35278 -0.465667,-0.384459 -0.720372,-0.310481"
       style="fill:#3b2a15;fill-opacity:1;fill-rule:nonzero;stroke:none;stroke-width:0.0352777"
       id="path2451" />
    <path
       d="m -17.925127,51.74391 c -0.04057,-0.06174 -0.08325,-0.116417 -0.115358,-0.182387 -0.01976,-0.04128 -0.03034,-0.08925 -0.05045,-0.128763 -0.01093,-0.02893 -0.01622,-0.05927 -0.01659,-0.09031 -0.06914,-7.14e-4 -0.06597,-0.0078 0.0095,-0.02152 0.0889,-0.08079 0.24765,-0.123119 0.34784,-0.204611 0.143933,-0.116064 0.26811,-0.257881 0.372885,-0.409222 0.227894,-0.330553 0.371827,-0.747184 0.31609,-1.151114 -0.146405,-1.053395 -1.512007,-1.846086 -2.481088,-1.373364 -0.424038,0.206375 -0.758472,0.591961 -0.976488,1.021292 -0.07902,-0.07937 -0.158045,-0.158398 -0.23742,-0.237773 -0.006,-0.0085 -0.01376,-0.01693 -0.02434,-0.02434 -0.0085,-0.0085 -0.0187,-0.01447 -0.02999,-0.01905 -0.7874,-0.533048 -1.809397,-0.480836 -2.497313,0.191205 -0.741186,0.7239 -0.972256,1.956859 0.117122,2.478264 0.57538,0.275167 1.194153,0.257175 1.814336,0.249414 0.226836,-0.0032 0.309386,-0.01093 0.182739,0.210608 -0.07267,0.126648 -0.149225,0.25012 -0.217664,0.379236 -0.3683,0.693914 -0.693561,1.551517 -0.4572,2.339975 0.28963,0.967317 1.468261,1.447095 2.405591,1.336675 0.999067,-0.117827 1.835504,-0.88265 2.0701,-1.856316 0.130529,-0.541867 0.08608,-1.101372 -0.09102,-1.627717 -0.105833,-0.313267 -0.258937,-0.604661 -0.441325,-0.88018"
       style="fill:#b9a88d;fill-opacity:1;fill-rule:nonzero;stroke:none;stroke-width:0.0352777"
       id="path2453" />
    <path
       d="m -20.793915,50.659471 c 0,0.469194 -0.380647,0.849841 -0.849842,0.849841 -0.469547,0 -0.849841,-0.380647 -0.849841,-0.849841 0,-0.469548 0.380294,-0.849842 0.849841,-0.849842 0.469195,0 0.849842,0.380294 0.849842,0.849842"
       style="fill:#ffffff;fill-opacity:1;fill-rule:nonzero;stroke:none;stroke-width:0.0352777"
       id="path2455" />
    <path
       d="m -19.564485,53.114451 c 0.04727,0.07303 0.112538,0.115006 0.144992,0.09349 0.03281,-0.02117 0.02117,-0.09772 -0.02646,-0.170744 -0.04763,-0.07302 -0.112535,-0.114653 -0.145343,-0.09349 -0.03281,0.02117 -0.02082,0.09772 0.02681,0.170744"
       style="fill:#1d0104;fill-opacity:1;fill-rule:nonzero;stroke:none;stroke-width:0.0352777"
       id="path2457" />
    <path
       d="m -19.172195,53.052715 c -0.02822,0.0822 -0.02151,0.159456 0.01553,0.172156 0.03704,0.0127 0.0896,-0.04375 0.118178,-0.125942 0.02858,-0.0822 0.02151,-0.159456 -0.01516,-0.172156 -0.03704,-0.0127 -0.08996,0.04374 -0.118534,0.125942"
       style="fill:#1d0104;fill-opacity:1;fill-rule:nonzero;stroke:none;stroke-width:0.0352777"
       id="path2459" />
    <path
       d="m -17.694056,50.059396 c 0,0.469547 -0.380648,0.850194 -0.850196,0.850194 -0.469193,0 -0.849841,-0.380647 -0.849841,-0.850194 0,-0.469195 0.380648,-0.849842 0.849841,-0.849842 0.469548,0 0.850196,0.380647 0.850196,0.849842"
       style="fill:#ffffff;fill-opacity:1;fill-rule:nonzero;stroke:none;stroke-width:0.0352777"
       id="path2461" />
    <path
       d="m -21.443732,50.913118 c -0.05891,0.03845 -0.03739,0.175683 0.04798,0.306917 0.08537,0.131233 0.202142,0.206375 0.261056,0.168275 0.05891,-0.03845 0.03739,-0.175684 -0.04798,-0.306917 -0.08537,-0.131233 -0.202142,-0.206375 -0.261056,-0.168275"
       style="fill:#1d0104;fill-opacity:1;fill-rule:nonzero;stroke:none;stroke-width:0.0352777"
       id="path2463" />
    <path
       d="m -21.400693,50.97944 c -0.0049,0.02646 0.0056,0.103364 0.06809,0.19932 0.06244,0.09596 0.128059,0.13723 0.15487,0.143227 0.0049,-0.02681 -0.006,-0.103364 -0.06809,-0.199319 -0.06244,-0.09596 -0.128411,-0.137231 -0.15487,-0.143228 z m 0.229659,0.494242 c -0.03387,0 -0.0755,-0.01058 -0.125237,-0.04269 -0.05821,-0.0374 -0.115711,-0.09772 -0.162983,-0.169686 -0.113242,-0.174625 -0.123825,-0.347487 -0.02575,-0.411339 v 0 c 0.09878,-0.06456 0.252236,0.01588 0.365478,0.190147 0.113241,0.174272 0.124178,0.347486 0.02575,0.411339 -0.01623,0.01058 -0.04233,0.02222 -0.07726,0.02222"
       style="fill:#1d0104;fill-opacity:1;fill-rule:nonzero;stroke:none;stroke-width:0.0352777"
       id="path2465" />
    <path
       d="m -18.274729,50.496135 c -0.06738,-0.141464 -0.173214,-0.231423 -0.236714,-0.201084 -0.0635,0.02999 -0.06033,0.168981 0.0071,0.310445 0.06738,0.141111 0.173215,0.231069 0.236715,0.201083 0.06314,-0.02999 0.06032,-0.168981 -0.0071,-0.310444"
       style="fill:#1d0104;fill-opacity:1;fill-rule:nonzero;stroke:none;stroke-width:0.0352777"
       id="path2467" />
    <path
       d="m -18.477577,50.366312 c -0.0088,0.02575 -0.0081,0.103364 0.04127,0.206728 0.04904,0.103364 0.109009,0.152753 0.134409,0.162278 0.0088,-0.02575 0.0081,-0.103717 -0.04092,-0.206728 -0.04939,-0.103364 -0.109008,-0.152753 -0.134763,-0.162278 z m 0.182388,0.521406 c -0.03634,0 -0.08361,-0.01341 -0.13829,-0.05997 -0.05292,-0.0448 -0.101952,-0.112184 -0.138993,-0.189795 -0.03704,-0.07796 -0.05821,-0.15875 -0.05997,-0.227894 -0.0024,-0.121356 0.05433,-0.166864 0.08855,-0.183445 0.03422,-0.01588 0.105479,-0.03175 0.19826,0.04727 0.05256,0.0448 0.101952,0.112183 0.138994,0.189794 0.08925,0.187678 0.07726,0.360539 -0.02893,0.410986 -0.01376,0.0067 -0.03422,0.01305 -0.05962,0.01305"
       style="fill:#1d0104;fill-opacity:1;fill-rule:nonzero;stroke:none;stroke-width:0.0352777"
       id="path2469" />
    <path
       d="m -19.871401,55.179965 c 0.21202,0.168981 0.498122,0.177447 0.826206,-0.274461 0.261408,-0.360892 -0.01622,-0.865364 -0.461786,-0.848783 v 0 c -0.566915,0.04551 -0.809273,0.76835 -0.36442,1.123244"
       style="fill:#ffffff;fill-opacity:1;fill-rule:nonzero;stroke:none;stroke-width:0.0352777"
       id="path2471" />
    <path
       d="m -16.344329,49.859371 -0.200025,1.199797 c 0,0 0.999773,1.099961 1.599848,0 0.599721,-1.099608 -0.40005,-2.199569 -1.399823,-1.199797"
       style="fill:#b9a88d;fill-opacity:1;fill-rule:nonzero;stroke:none;stroke-width:0.0352777"
       id="path2473" />
    <path
       d="m -16.491085,51.04294 c 0.0882,0.08996 0.516467,0.501297 0.938038,0.45085 0.223308,-0.02681 0.413102,-0.180975 0.564443,-0.458611 0.322086,-0.590197 0.164394,-1.142647 -0.157339,-1.383594 -0.383117,-0.286809 -0.843844,-0.0702 -1.151819,0.232127 z m 0.864306,0.555272 c -0.489302,0 -0.93486,-0.483305 -0.954616,-0.505177 l -0.01659,-0.01799 0.20673,-1.239661 0.01164,-0.01129 c 0.514702,-0.515055 1.005769,-0.468136 1.293636,-0.252589 0.356306,0.266348 0.534458,0.871714 0.185208,1.511653 -0.167923,0.307622 -0.383117,0.479072 -0.640644,0.510117 -0.02822,0.0032 -0.05715,0.0049 -0.08537,0.0049"
       style="fill:#b9a88d;fill-opacity:1;fill-rule:nonzero;stroke:none;stroke-width:0.0352777"
       id="path2475" />
    <path
       d="m -24.762312,50.059396 0.200025,1.199797 c 0,0 -0.999772,1.099961 -1.599847,0 -0.599722,-1.099608 0.40005,-2.199569 1.399822,-1.199797"
       style="fill:#b9a88d;fill-opacity:1;fill-rule:nonzero;stroke:none;stroke-width:0.0352777"
       id="path2477" />
    <path
       d="m -25.564529,49.717201 c -0.134761,0 -0.269875,0.03951 -0.396169,0.134409 -0.322086,0.240594 -0.479425,0.793397 -0.157339,1.383594 0.150989,0.277283 0.341136,0.4318 0.564092,0.458611 0.421216,0.05115 0.849841,-0.360892 0.938388,-0.45085 l -0.193322,-1.159228 c -0.206375,-0.202847 -0.481189,-0.366536 -0.75565,-0.366536 z m 0.08431,2.081036 c -0.02822,0 -0.05644,-0.0018 -0.08502,-0.0053 -0.257528,-0.03069 -0.473075,-0.202142 -0.640645,-0.509764 -0.34925,-0.639939 -0.171097,-1.245306 0.185561,-1.512006 0.287514,-0.215194 0.778581,-0.261761 1.293636,0.252942 l 0.01129,0.01129 0.206375,1.239661 -0.01623,0.01764 c -0.01976,0.02187 -0.465314,0.505531 -0.954969,0.505531"
       style="fill:#b9a88d;fill-opacity:1;fill-rule:nonzero;stroke:none;stroke-width:0.0352777"
       id="path2479" />
    <path
       d="m -25.034657,50.678168 c -0.2032,-0.07761 -0.479425,-0.139347 -0.693208,-0.05398 -0.006,-0.174272 0.0254,-0.348897 0.103011,-0.509411 0.03316,-0.06914 -0.112183,-0.06103 -0.136877,-0.01058 -0.09313,0.193675 -0.125237,0.403225 -0.10795,0.6096 -0.0053,0.0063 -0.0046,0.01094 0.0011,0.01376 0.02046,0.215194 0.09419,0.426508 0.208844,0.612069 0.02963,0.04798 0.169334,-0.0021 0.13335,-0.06068 -0.107244,-0.173919 -0.177447,-0.375708 -0.19685,-0.580672 0.1397,-0.109714 0.423334,-0.01411 0.571147,0.04269 0.03704,0.01376 0.168628,-0.04339 0.117475,-0.06279"
       style="fill:#1d0104;fill-opacity:1;fill-rule:nonzero;stroke:none;stroke-width:0.0352777"
       id="path2481" />
    <path
       d="m -15.326212,50.281998 c 0.01659,-0.201436 -0.01376,-0.405341 -0.103717,-0.591961 -0.02011,-0.04092 -0.160514,0.0074 -0.144991,0.03881 0.07197,0.149225 0.105481,0.309033 0.107243,0.469547 -0.206727,-0.0702 -0.47766,0.0056 -0.664633,0.07691 -0.09384,0.03563 -0.0095,0.09454 0.05962,0.06844 0.168979,-0.06456 0.444852,-0.141112 0.599721,-0.01376 -0.02011,0.208139 -0.09137,0.412397 -0.201436,0.59055 -0.01516,0.02505 0.119944,0.01623 0.143582,-0.02258 0.108302,-0.174977 0.17921,-0.376061 0.201787,-0.581377 0.01058,-0.01093 0.01341,-0.02328 0.0028,-0.03457"
       style="fill:#1d0104;fill-opacity:1;fill-rule:nonzero;stroke:none;stroke-width:0.0352777"
       id="path2483" />
  </g>
</svg>
