<?xml version="1.0" encoding="UTF-8" standalone="no"?>
<svg
   xmlns:dc="http://purl.org/dc/elements/1.1/"
   xmlns:cc="http://creativecommons.org/ns#"
   xmlns:rdf="http://www.w3.org/1999/02/22-rdf-syntax-ns#"
   xmlns:svg="http://www.w3.org/2000/svg"
   xmlns="http://www.w3.org/2000/svg"
   id="svg997"
   version="1.1"
   viewBox="0 0 125.76855 107.21695"
   height="107.21695mm"
   width="125.76855mm">
  <defs
     id="defs991" />
  <metadata
     id="metadata994">
    <rdf:RDF>
      <cc:Work
         rdf:about="">
        <dc:format>image/svg+xml</dc:format>
        <dc:type
           rdf:resource="http://purl.org/dc/dcmitype/StillImage" />
        <dc:title></dc:title>
      </cc:Work>
    </rdf:RDF>
  </metadata>
  <g
     transform="translate(219.36642,39.245378)"
     id="layer1">
    <path
       d="m -139.44228,44.682915 c -0.47625,3.51296 -1.23225,6.874227 -2.39113,10.423525 -0.75741,2.318808 -2.19886,5.937251 -0.58032,7.832021 6.22724,7.28909 11.58029,-11.644844 11.91331,-15.037861 l -8.94186,-3.217685"
       style="fill:#f8a6b7;fill-opacity:1;fill-rule:nonzero;stroke:none;stroke-width:0.0352777"
       id="path152" />
    <path
       d="m -112.33625,50.624046 c -1.8729,3.417359 0.121,15.537395 4.37057,16.956265 7.08871,2.36714 4.01284,-17.151352 4.55012,-20.424777 l -8.92069,3.468512"
       style="fill:#f8a6b7;fill-opacity:1;fill-rule:nonzero;stroke:none;stroke-width:0.0352777"
       id="path154" />
    <path
       d="m -128.19502,19.528448 c 5.42819,-8.155516 16.54775,-5.97182 18.70639,3.55318 3.24168,-4.655609 8.53335,-2.255663 11.245152,1.44427 3.62479,4.944182 2.75484,7.07249 0.10442,12.023725 4.02978,-1.489779 5.21159,7.793215 4.1977,10.22844 -1.58503,3.805767 -6.941252,5.348817 -10.632372,5.013677 -0.20919,4.095044 -4.05271,5.687131 -7.67291,5.675135 -6.22759,-0.02011 -6.99629,-3.566583 -9.92611,-8.034512 -1.21426,9.915525 -13.94072,5.581296 -13.24963,-3.397956 -3.62761,3.972631 -8.98278,4.57976 -12.65237,-0.180269 -5.56119,-7.213954 -1.66547,-19.207692 2.96439,-25.912585 2.13678,-3.094567 4.55895,-5.037667 8.46314,-5.064832 1.04281,-0.0074 9.95962,2.386894 8.4522,4.651727"
       style="fill:#adb0ae;fill-opacity:1;fill-rule:nonzero;stroke:none;stroke-width:0.0352777"
       id="path156" />
    <path
       d="m -130.94916,27.263455 c 0.54081,0.287514 1.04811,0.612068 1.47532,1.052335 0.18662,0.192617 0.3556,0.400404 0.49318,0.627592 0.24765,0.407812 0.54293,0.664987 0.91017,0.956733 0.75283,0.598313 2.05528,-0.02998 2.05705,-0.991658 0.004,-2.047521 -1.96779,-3.407127 -3.64737,-4.205111 -1.4792,-0.702381 -2.73191,1.792465 -1.28835,2.560109 v 0"
       style="fill:#d4d6d2;fill-opacity:1;fill-rule:nonzero;stroke:none;stroke-width:0.0352777"
       id="path158" />
    <path
       d="m -119.54385,28.495003 c -0.36865,-0.168275 0.46743,0.407458 0.20849,0.157691 0.25577,0.246592 0.42122,0.561269 0.65793,0.821619 0.11113,0.09807 0.22225,0.196144 0.33373,0.294217 -0.17568,-0.153459 -0.0977,-0.08467 0.23318,0.206023 0.25894,0.143579 0.53094,0.32667 0.84279,0.321379 0.5454,-0.0088 1.02517,-0.179563 1.34126,-0.646994 0.65687,-0.971198 0.27411,-2.003777 -0.38347,-2.95134 -0.50165,-0.722135 -1.26541,-1.213908 -2.04964,-1.572329 -0.88688,-0.405696 -1.9759,0.237771 -2.27718,1.092552 -0.34607,0.981427 0.20955,1.87325 1.09291,2.277182 v 0"
       style="fill:#d4d6d2;fill-opacity:1;fill-rule:nonzero;stroke:none;stroke-width:0.0352777"
       id="path160" />
    <path
       d="m -124.26402,34.785382 c -0.0571,0.230716 -0.14851,0.485071 -0.16651,0.717904 -0.0275,0.354187 0.0737,0.719312 0.12171,1.06821 0.10478,0.769057 0.38347,1.522236 0.85302,2.135363 0.60466,0.788812 1.86231,0.608189 2.38936,-0.150636 1.09256,-1.573741 0.0794,-3.947935 -1.68804,-4.495093 -0.57044,-0.176742 -1.34973,0.08114 -1.50954,0.724252 v 0"
       style="fill:#d4d6d2;fill-opacity:1;fill-rule:nonzero;stroke:none;stroke-width:0.0352777"
       id="path162" />
    <path
       d="m -129.54157,36.15804 c -1.00154,0.04692 -2.09303,0.224721 -2.72274,1.105606 -0.58138,0.813152 -0.72002,2.036586 -0.16475,2.899479 0.31292,0.486482 0.71685,0.842082 1.3275,0.867834 0.54187,0.02223 1.0661,-0.233538 1.37196,-0.686504 0.21413,-0.31609 0.25753,-0.662517 0.32526,-1.027642 -0.15134,0.818092 0.0607,-0.402521 0.0593,-0.248356 7.9e-4,-0.07691 0.002,-0.152752 0.007,-0.229307 0.0247,-0.406045 -0.14182,0.396523 0.004,0.04022 -0.2219,0.545396 -0.10337,0.191206 -0.004,0.0508 -0.20496,0.221192 -0.24977,0.27305 -0.1337,0.155929 0.20496,-0.202496 -0.34467,0.206727 -0.0744,0.04621 0.16756,-0.09948 0.35171,-0.171096 0.53375,-0.238829 0.59337,-0.221546 0.889,-0.987425 0.77681,-1.569157 -0.11077,-0.570793 -0.67451,-1.195916 -1.30563,-1.166283 v 0"
       style="fill:#d4d6d2;fill-opacity:1;fill-rule:nonzero;stroke:none;stroke-width:0.0352777"
       id="path164" />
    <path
       d="m -115.10308,35.303965 c -0.1323,0.747538 0.002,1.502129 0.27587,2.199217 0.27799,0.708025 0.38523,1.410406 0.89041,2.015418 1.02623,1.229432 2.72627,0.369359 2.97568,-0.989541 0.15064,-0.821971 -0.24977,-1.645002 -0.55704,-2.394302 -0.30832,-0.753534 -0.84349,-1.399821 -1.55398,-1.809396 -0.89853,-0.518231 -1.85456,-0.01516 -2.03094,0.978604 v 0"
       style="fill:#d4d6d2;fill-opacity:1;fill-rule:nonzero;stroke:none;stroke-width:0.0352777"
       id="path166" />
    <path
       d="m -105.97108,30.694923 c 0.0783,0.348546 0.18133,0.6985 0.31045,1.031523 0.13864,0.357365 0.40075,0.662165 0.63817,0.960967 0.19509,0.246592 0.39829,0.492125 0.629,0.70626 0.19791,0.223309 0.43709,0.385234 0.71826,0.485423 0.14428,0.03069 0.28892,0.06103 0.43321,0.09172 0.51223,-0.04833 0.60889,-0.04692 0.29069,0.0042 0.96943,0.155927 1.64535,-0.84808 1.52329,-1.706034 0.0452,0.282221 0.0441,0.173213 -0.003,-0.326673 -0.0596,-0.302331 -0.1905,-0.570089 -0.39264,-0.802216 -0.16616,-0.192265 -0.35137,-0.364773 -0.53023,-0.545042 -0.1725,-0.174625 -0.33655,-0.35701 -0.49706,-0.542573 -0.14181,-0.140404 -0.29351,-0.267758 -0.45579,-0.382762 0.0378,0.02822 -0.38276,-0.305507 -0.22966,-0.167571 -0.47589,-0.427919 -1.06327,-0.637821 -1.67957,-0.332669 -0.54751,0.270581 -0.89182,0.918633 -0.7553,1.52541 v 0"
       style="fill:#d4d6d2;fill-opacity:1;fill-rule:nonzero;stroke:none;stroke-width:0.0352777"
       id="path168" />
    <path
       d="m -103.05996,41.081407 c -0.0434,1.068564 -0.12312,2.193573 0.37218,3.18135 0.74225,1.482725 3.029662,1.040693 3.165832,-0.612423 0.091,-1.101019 -0.40146,-2.114902 -0.840322,-3.090334 -0.57467,-1.277054 -2.64054,-0.878062 -2.69769,0.521407 v 0"
       style="fill:#d4d6d2;fill-opacity:1;fill-rule:nonzero;stroke:none;stroke-width:0.0352777"
       id="path170" />
    <path
       d="m -112.81708,45.892238 c -0.33444,1.300337 -0.62089,2.976033 -0.25154,4.296833 0.49777,1.779763 2.99615,2.154767 3.68583,0.271286 0.47519,-1.296459 0.32455,-2.96545 0.11959,-4.306359 -0.26811,-1.755068 -3.09245,-2.057752 -3.55388,-0.26176 v 0"
       style="fill:#d4d6d2;fill-opacity:1;fill-rule:nonzero;stroke:none;stroke-width:0.0352777"
       id="path172" />
    <path
       d="m -121.68027,45.8559 c -0.56445,0.268113 -0.99695,0.67169 -1.30034,1.215673 -0.15487,0.278342 -0.3048,0.569736 -0.40146,0.874536 -0.21802,0.684037 -0.0607,1.287287 0.35419,1.858787 -0.12489,-0.255058 -0.24942,-0.509764 -0.3743,-0.764471 0.0219,0.06456 0.0353,0.131588 0.0402,0.199673 0.18874,1.334559 2.06904,1.656292 2.77707,0.567973 -0.5514,0.434975 -0.57045,0.470959 -0.0564,0.10795 0.13652,-0.122766 0.25188,-0.261408 0.34642,-0.416279 0.0907,-0.160512 0.17181,-0.32526 0.24236,-0.495652 0.14923,-0.347485 -0.19967,0.353483 -0.0194,0.03351 0.079,-0.140055 0.17568,-0.268465 0.27693,-0.392642 0.0974,-0.151696 0.18062,-0.31115 0.25012,-0.478367 -0.2226,0.480129 -0.10336,0.199671 -0.0385,0.08925 0.37958,-0.642056 0.38558,-1.427691 -0.12594,-2.009423 -0.49354,-0.56162 -1.30175,-0.708377 -1.97097,-0.390525 v 0"
       style="fill:#d4d6d2;fill-opacity:1;fill-rule:nonzero;stroke:none;stroke-width:0.0352777"
       id="path174" />
    <path
       d="m -198.78303,-6.7732485 c -4.81859,-7.3751735 -19.02036,-5.8458825 -20.50556,3.673475 -0.54575,3.49673298 1.84891,6.246987 4.98016,7.756522 6.46889,3.118909 13.31772,-0.247295 16.88889,-5.880804 l -1.36349,-5.549193"
       style="fill:#211d1d;fill-opacity:1;fill-rule:nonzero;stroke:none;stroke-width:0.0352777"
       id="path176" />
    <path
       d="m -137.40499,13.041219 c 1.44251,7.21995 3.57152,18.617494 13.61617,14.806436 3.22156,-1.222727 5.02143,-4.799894 5.08987,-8.250415 0.0543,-2.737554 -0.62759,-3.426529 -2.94816,-4.726517 -3.27096,-1.831975 -5.93443,-3.573285 -8.96091,-5.7594495 l -6.79697,3.9299455"
       style="fill:#211d1d;fill-opacity:1;fill-rule:nonzero;stroke:none;stroke-width:0.0352777"
       id="path178" />
    <path
       d="m -196.25396,0.29465348 c -5.82825,8.89423302 -11.56265,16.56044452 -14.45402,27.13636952 -3.13125,11.454342 -4.16348,21.790377 5.49522,29.882394 9.32463,7.812264 22.39398,9.806164 34.16477,10.549824 10.56957,0.66816 23.88305,-1.53071 27.73538,-12.918726 2.23485,-6.607881 2.44264,-14.233525 2.431,-21.169487 -0.0127,-7.77593 0.42933,-15.825965 0.0247,-23.554267 l -55.39706,-9.92610752"
       style="fill:#f8a6b7;fill-opacity:1;fill-rule:nonzero;stroke:none;stroke-width:0.0352777"
       id="path180" />
    <path
       d="m -182.40991,5.7563575 c -0.40781,4.9893365 -9.64141,3.291064 -12.44035,1.838679 -2.7298,-1.416404 -5.07542,-3.417713 -5.55272,-6.556375 -0.43427,-2.855031 1.15675,-5.174543 1.30704,-7.700785 -6.63187,-0.769408 -8.97926,-7.0604955 -7.3279,-12.9476515 0.86289,-3.075869 2.87443,-5.930194 6.0579,-6.926791 3.46639,-1.084792 4.99357,1.197327 7.85742,1.36525 -1.58891,-6.753225 5.19465,-11.973277 11.04829,-13.432719 3.64878,-0.909461 8.15234,-1.141236 11.36333,1.274939 2.44369,1.838678 2.89807,5.115278 4.42136,7.494058 3.99944,-7.958666 12.14649,-8.861072 20.23921,-5.844117 7.47184,2.785181 9.13589,8.145991 8.21867,14.918619 5.4169,-1.758597 12.83335,1.820686 13.68989,7.867297 0.85161,6.0138025 -2.85115,7.8542445 -6.79803,10.9054195 5.63175,0.437798 6.06884,8.617656 3.72604,12.3655655 -2.82681,4.5212 -10.4394,7.497586 -15.34583,4.80554 1.88666,6.08965 -5.66773,7.655277 -10.30711,8.582377 -4.93959,0.987073 -13.76292,-1.600552 -11.43423,-8.214431 -7.33072,5.370689 -22.24864,3.180998 -19.57,-8.4257435 0.4819,-0.119592 0.83221,-0.45085 1.28976,-0.58279 l -0.44274,-0.786341"
       style="fill:#adb0ae;fill-opacity:1;fill-rule:nonzero;stroke:none;stroke-width:0.0352777"
       id="path182" />
    <path
       d="m -139.09973,-9.2035365 c 0.0501,0.960615 0.0268,1.90853 0.0279,2.868438 0.001,1.222375 -0.1083,2.344208 0.73166,3.336218 0.68686,0.810684 1.98614,0.886884 2.77389,0.182034 1.99496,-1.786115 0.56198,-4.947709 -0.15205,-7.040385 -0.55844,-1.6372425 -3.47098,-1.0724475 -3.38137,0.653695 v 0"
       style="fill:#d4d6d2;fill-opacity:1;fill-rule:nonzero;stroke:none;stroke-width:0.0352777"
       id="path184" />
    <path
       d="m -178.18575,-29.213797 c -1.39135,-0.241299 -2.66276,0.732367 -3.5814,1.655233 -0.95638,0.960614 -2.22567,2.452864 -1.391,3.887964 -0.0628,-0.324908 -0.12559,-0.649464 -0.18838,-0.974372 -0.01,0.264583 -0.006,0.52705 0.0469,0.787753 0.0935,0.466019 0.4639,0.990952 0.95461,1.106664 0.23919,0.05644 0.46743,0.120297 0.71402,0.112183 -0.29986,-0.104775 -0.59972,-0.209903 -0.89958,-0.314678 1.39101,0.757061 2.63913,0.118533 3.65901,-0.910872 0.85267,-0.861131 1.94663,-1.597378 2.35338,-2.790119 0.43004,-1.261886 -0.44943,-2.348089 -1.66758,-2.559756 v 0"
       style="fill:#d4d6d2;fill-opacity:1;fill-rule:nonzero;stroke:none;stroke-width:0.0352777"
       id="path186" />
    <path
       d="m -194.90953,-19.405164 c -1.137,0.958497 -1.98296,2.008717 -2.52412,3.398308 -0.25859,0.664987 -0.43533,1.373364 -0.53129,2.07892 -0.10936,0.801864 0.21908,1.308805 0.55528,1.97238 0.44026,0.86995 1.54481,0.84949 2.11102,0.142169 -0.32526,0.240596 -0.27623,0.214138 0.14746,-0.08008 0.2547,-0.223663 0.52775,-0.655815 0.6283,-0.978253 0.17921,-0.575028 0.26775,-1.16452 0.37077,-1.756481 0.17991,-1.037167 0.5662,-2.2225 1.15323,-3.092097 0.82585,-1.223434 -0.79763,-2.622903 -1.91065,-1.684867 v 0"
       style="fill:#d4d6d2;fill-opacity:1;fill-rule:nonzero;stroke:none;stroke-width:0.0352777"
       id="path188" />
    <path
       d="m -186.71485,-13.472147 c -1.27071,1.481315 -1.84221,3.9945025 -0.85408,5.7785005 0.89888,1.622073 3.72816,1.809398 4.27567,-0.261409 0.43638,-1.650293 0.0727,-2.7657765 0.27834,-4.2241605 0.12594,-0.892881 -0.53234,-1.782587 -1.34867,-2.070101 -0.93416,-0.329141 -1.74942,0.0755 -2.35126,0.77717 v 0"
       style="fill:#d4d6d2;fill-opacity:1;fill-rule:nonzero;stroke:none;stroke-width:0.0352777"
       id="path190" />
    <path
       d="m -171.60362,-17.055664 c -0.7172,1.914525 -1.13559,4.151489 -0.22401,6.090002 1.01176,2.1505335 3.85762,1.2234335 4.21851,-0.81562 0.28293,-1.599143 -0.21413,-3.421946 -0.40181,-5.009799 -0.22719,-1.922991 -2.97744,-1.907469 -3.59269,-0.264583 v 0"
       style="fill:#d4d6d2;fill-opacity:1;fill-rule:nonzero;stroke:none;stroke-width:0.0352777"
       id="path192" />
    <path
       d="m -160.09001,-26.071958 c -0.10689,1.157111 0.11395,2.265891 0.46073,3.373614 0.40358,1.290108 0.34149,2.738966 1.38853,3.745441 0.84632,0.813153 1.82351,0.824089 2.77178,0.181681 2.96262,-2.008717 0.4953,-7.216775 -1.84009,-8.640939 -1.14477,-0.698147 -2.65324,-0.04022 -2.78095,1.340203 v 0"
       style="fill:#d4d6d2;fill-opacity:1;fill-rule:nonzero;stroke:none;stroke-width:0.0352777"
       id="path194" />
    <path
       d="m -164.62179,-5.9660945 c -1.23755,0.121356 -2.59221,1.726141 -3.16936,2.735791 -1.03787,1.8161 -1.97626,3.42794198 -1.2005,5.535084 0.44662,1.213556 2.19886,1.695802 3.27342,1.104548 1.03082,-0.566915 1.56845,-1.307748 2.00202,-2.380898 0.35595,-0.88017902 0.86748,-1.96391202 0.92145,-2.921704 0.078,-1.377246 0.33232,-4.283782 -1.82703,-4.072821 v 0"
       style="fill:#d4d6d2;fill-opacity:1;fill-rule:nonzero;stroke:none;stroke-width:0.0352777"
       id="path196" />
    <path
       d="m -152.58995,-7.5871065 c 0.10795,2.761895 -1.05552,5.627158 -0.52847,8.37070998 0.31115,1.62277702 2.44193,2.45603702 3.69253,1.26470802 2.71039,-2.58233302 2.24861,-6.669265 1.24319,-9.884481 -0.30057,-0.960967 -0.94121,-1.714852 -2.01295,-1.798109 -1.10208,-0.08573 -2.44228,0.832205 -2.3943,2.047172 v 0"
       style="fill:#d4d6d2;fill-opacity:1;fill-rule:nonzero;stroke:none;stroke-width:0.0352777"
       id="path198" />
    <path
       d="m -145.12518,-25.746344 c 0.0818,2.072216 -1.11689,4.541661 0.0155,6.4897 0.88653,1.525763 2.70158,1.549047 3.79695,0.255411 0.76059,-0.898525 0.9017,-2.569986 0.67134,-3.716514 -0.23213,-1.155347 -0.7426,-2.119842 -1.10878,-3.219097 -0.24448,-0.734131 -0.71014,-1.312686 -1.54164,-1.377245 -0.84349,-0.06526 -1.87043,0.63747 -1.83339,1.567745 v 0"
       style="fill:#d4d6d2;fill-opacity:1;fill-rule:nonzero;stroke:none;stroke-width:0.0352777"
       id="path200" />
    <path
       d="m -189.82424,48.430473 c 2.15971,1.793169 4.20476,2.877961 7.00158,3.426532 1.79388,0.351718 5.62928,0.526343 6.53133,-1.425575 0.0995,-0.215196 -0.0572,-0.493538 -0.27023,-0.563034 -0.86042,-0.280812 -1.08126,-0.06456 -2.01436,0.187677 -1.13241,0.305859 -2.32445,0.2667 -3.4805,0.166865 -2.42041,-0.208846 -5.28673,-1.126773 -7.36318,-2.390775 -0.40428,-0.24624 -0.75847,0.304094 -0.40464,0.59831 v 0"
       style="fill:#d95277;fill-opacity:1;fill-rule:nonzero;stroke:none;stroke-width:0.0352777"
       id="path202" />
    <path
       d="m -183.6919,51.41215 c -0.14111,1.146882 0.0917,2.290588 0.10583,3.447698 0.013,1.072798 -0.0455,2.143125 0.03,3.215217 0.12101,1.715558 0.12065,3.810356 1.88207,4.576586 0.38347,0.16686 0.80398,-0.10019 0.9465,-0.45403 0.62089,-1.539164 -0.28292,-3.673116 -0.38488,-5.320941 -0.12276,-1.981907 0.002,-4.250973 -1.14053,-5.942542 -0.43039,-0.637117 -1.36172,-0.150283 -1.43898,0.478012 v 0"
       style="fill:#d95277;fill-opacity:1;fill-rule:nonzero;stroke:none;stroke-width:0.0352777"
       id="path204" />
    <path
       d="m -158.81295,38.692396 c 0.67592,-0.304096 0.98954,-1.158168 1.3917,-1.732843 0.44098,-0.630415 1.155,-1.10208 1.85703,-1.385007 1.94521,-0.782814 2.61761,1.294342 3.10232,2.682521 0.37889,1.084088 2.00096,0.600781 2.08986,-0.403929 0.28222,-3.196873 -2.69522,-5.566481 -5.74675,-4.654902 -1.49331,0.44591 -2.54353,1.416754 -3.23215,2.790471 -0.1972,0.392996 -0.60748,3.218391 0.53799,2.703689 v 0"
       style="fill:#211d1d;fill-opacity:1;fill-rule:nonzero;stroke:none;stroke-width:0.0352777"
       id="path206" />
    <path
       d="m -199.54644,29.090844 c 0.62548,-1.591029 1.39277,-2.713921 3.26672,-2.516716 0.79587,0.08396 1.56316,0.554918 2.12161,1.104545 0.52564,0.517525 0.7299,1.167696 1.53987,1.258007 0.2032,0.02294 0.41628,-0.08608 0.52741,-0.254 0.69144,-1.043165 -0.42828,-2.240844 -1.22767,-2.865261 -0.96767,-0.756004 -2.13078,-1.157464 -3.35809,-1.170871 -2.33398,-0.0254 -4.55754,1.931459 -3.83576,4.373034 0.13865,0.469196 0.77329,0.560564 0.96591,0.07126 v 0"
       style="fill:#211d1d;fill-opacity:1;fill-rule:nonzero;stroke:none;stroke-width:0.0352777"
       id="path208" />
  </g>
</svg>
