<?xml version="1.0" encoding="UTF-8" standalone="no"?>
<svg
   xmlns:dc="http://purl.org/dc/elements/1.1/"
   xmlns:cc="http://creativecommons.org/ns#"
   xmlns:rdf="http://www.w3.org/1999/02/22-rdf-syntax-ns#"
   xmlns:svg="http://www.w3.org/2000/svg"
   xmlns="http://www.w3.org/2000/svg"
   id="svg520"
   version="1.1"
   viewBox="0 0 133.47066 123.62363"
   height="123.62363mm"
   width="133.47066mm">
  <defs
     id="defs514" />
  <metadata
     id="metadata517">
    <rdf:RDF>
      <cc:Work
         rdf:about="">
        <dc:format>image/svg+xml</dc:format>
        <dc:type
           rdf:resource="http://purl.org/dc/dcmitype/StillImage" />
        <dc:title></dc:title>
      </cc:Work>
    </rdf:RDF>
  </metadata>
  <g
     transform="translate(-32.294437,-59.896516)"
     id="layer1">
    <path
       d="m 46.624235,160.77352 c 0.38227,-3.18135 -3.646699,-4.6669 -6.417945,-4.37727 -3.988012,0.41698 -6.098215,3.48368 -6.98016,7.24782 -0.360359,0.12418 -0.590078,0.16334 -0.931693,0.33726 2.374498,1.28693 4.329112,2.44051 7.213882,2.47932 2.673526,0.0356 10.687508,-0.83256 7.078451,-5.32906 l 0.03747,-0.35807"
       style="fill:#4d221f;fill-opacity:1;fill-rule:nonzero;stroke:none;stroke-width:0.0352777"
       id="path78" />
    <path
       d="m 57.770354,151.55191 c -0.592808,2.2807 -2.474242,4.29083 -4.005933,6.00462 -1.585312,1.77342 -4.060401,4.57906 -6.613771,4.75051 -1.177396,0.079 -2.177697,-1.45944 -1.024855,-2.28176 0.907733,-0.64735 1.940419,-1.0654 2.850056,-1.72086 1.081088,-0.77928 2.063503,-1.71908 2.980972,-2.68181 1.549083,-1.62631 2.77234,-3.56976 4.425986,-5.0867 0.728733,-0.66852 1.588628,0.24271 1.387545,1.016 v 0"
       style="fill:#211d1d;fill-opacity:1;fill-rule:nonzero;stroke:none;stroke-width:0.0352777"
       id="path80" />
    <path
       d="m 88.265099,164.36233 c 0.483658,5.42466 0.317852,10.01359 -6.23852,8.0966 0.328083,1.77624 0.02752,4.68383 -2.569988,3.94652 -0.137229,-1.13911 -0.292804,-2.38336 -0.433562,-3.4678 -0.742598,0.61313 -2.258132,0.52599 -3.591632,0.27375 1.47814,4.12504 -4.873273,5.00592 -3.39725,0.35772 -8.881287,0.23636 -7.209755,-14.01798 0.28716,-15.95473 l 15.943792,6.74794"
       style="fill:#f15174;fill-opacity:1;fill-rule:nonzero;stroke:none;stroke-width:0.0352777"
       id="path82" />
    <path
       d="m 58.510517,178.90771 c 3.952204,0.97754 4.240213,0.58067 5.363597,-3.03777 0.844868,-2.72768 1.089626,-5.80814 2.04061,-8.40916 5.814975,-1.44393 13.84173,-0.20744 19.76275,0.91228 4.792485,0.90664 13.584767,-2.44334 17.057866,2.04999 -1.63901,2.22426 -0.75459,8.26594 1.07632,10.47538 2.44122,2.94746 7.53675,3.79201 10.08204,0.52987 2.51954,-3.22862 -0.38171,-8.68256 0.37112,-12.46293 5.26662,-0.29598 10.07322,-0.69497 15.40827,-0.2667 -1.31092,3.78284 -1.24001,9.12707 2.95029,11.0744 3.26531,1.5173 6.83824,0.11218 8.21408,-3.1175 1.76071,-4.13737 0.53939,-9.07767 0.48436,-13.43554 -2.6e-4,-0.0977 -0.001,-0.19544 -0.002,-0.28963 0.002,-4.21076 0.26352,-8.45185 0.51435,-12.65414 0.2099,-3.57293 0.60043,-7.24676 0.18027,-10.71598 -0.38806,-3.15842 -1.44533,-6.14821 -3.9236,-8.7443 -4.67218,-4.89832 -10.5791,-7.93891 -16.74213,-10.57945 -8.8646,-3.80118 -18.86655,-5.2638 -28.4106,-3.68018 -4.856692,0.8061 -9.204325,1.86514 -13.187892,3.41877 -6.055783,2.36008 -11.270191,5.87304 -16.161313,11.40425 -3.703357,4.18994 -5.931783,9.63612 -7.369211,15.37899 -1.57219,6.26463 -2.211211,12.88062 -2.809663,18.59598 -0.677475,6.46747 -2.34876,11.71187 5.100249,13.55337"
       style="fill:#fbbf61;fill-opacity:1;fill-rule:nonzero;stroke:none;stroke-width:0.0352777"
       id="path84" />
    <path
       d="m 56.219931,146.75836 c 2.246489,0.49742 4.376101,-1.12501 6.565653,-1.73425 5.807215,-1.61502 9.656373,4.36245 15.40242,2.43698 3.332691,-1.11901 4.225218,-3.19722 3.389841,-6.23252 -0.462491,-1.69263 -2.397125,-2.91712 -1.949804,-4.93042 0.385233,-1.7332 1.851025,-1.45204 2.54635,-2.51954 2.59715,-3.99874 0.961321,-10.70963 -2.423935,-13.80349 -6.055784,2.36008 -11.270192,5.87304 -16.161314,11.40425 -3.703357,4.18994 -5.931783,9.63612 -7.369211,15.37899"
       style="fill:#211d1d;fill-opacity:1;fill-rule:nonzero;stroke:none;stroke-width:0.0352777"
       id="path86" />
    <path
       d="m 108.94811,140.54594 c -7.19349,0.83115 5.52485,9.92682 -2.1964,13.75975 -0.87242,0.43286 -2.96862,1.12783 -3.95181,0.72778 -2.11208,-0.86007 -0.58914,-2.19816 -1.8602,-3.07234 -2.834218,-1.9491 -4.929718,-0.16334 -7.553678,0.80115 -2.770365,1.01883 -4.725458,2.13184 -6.270625,-1.49154 -1.968148,-4.61539 2.155471,-4.56071 4.980517,-6.21877 4.004027,-2.3502 0.859718,-2.47614 2.308225,-6.03779 2.30787,-5.67478 13.410141,-0.72425 16.578081,2.16606 l -2.03411,-0.6343"
       style="fill:#211d1d;fill-opacity:1;fill-rule:nonzero;stroke:none;stroke-width:0.0352777"
       id="path88" />
    <path
       d="m 96.299259,81.210487 c -3.046941,0.6985 -6.994525,-3.100917 -8.393641,-5.570361 -1.365954,-2.413 -0.644525,-8.590139 -3.955696,-6.942666 -2.354791,1.17475 -3.510491,6.198305 -3.508023,8.283221 0.0085,6.963833 4.962173,10.929056 10.899775,13.483872 l 4.957585,-9.254066"
       style="fill:#4d221f;fill-opacity:1;fill-rule:nonzero;stroke:none;stroke-width:0.0352777"
       id="path90" />
    <path
       d="m 155.1934,72.503931 c -1.00013,4.473222 -9.06745,15.324666 -14.57537,9.757833 -4.58188,-4.631972 6.73841,-9.242777 6.59342,-14.527388 -0.0589,-2.148416 -3.21522,-7.485944 0.57644,-7.821083 5.16149,-0.458611 8.29733,8.60425 7.40551,12.590638"
       style="fill:#4d221f;fill-opacity:1;fill-rule:nonzero;stroke:none;stroke-width:0.0352777"
       id="path92" />
    <path
       d="m 147.76989,77.22057 c 3.95958,-5.058833 15.35113,0.567972 17.9952,4.790722 -4.85987,5.344585 -13.3664,3.661834 -19.89914,2.973917 l 1.90394,-7.764639"
       style="fill:#211d1d;fill-opacity:1;fill-rule:nonzero;stroke:none;stroke-width:0.0352777"
       id="path94" />
    <path
       d="m 92.529831,82.625126 c -3.674888,-1.813278 -7.76605,-1.245306 -11.198225,0.821972 -3.010607,1.816805 -8.905524,6.32213 -4.628092,8.978547 3.563056,2.212975 12.897908,0.429683 16.673687,-0.6604 l -0.84737,-9.140119"
       style="fill:#211d1d;fill-opacity:1;fill-rule:nonzero;stroke:none;stroke-width:0.0352777"
       id="path96" />
    <path
       d="m 95.010209,128.51234 c 16.547041,16.55798 48.610661,13.84547 60.048431,-7.40092 0.35489,-0.65793 0.68297,-1.32927 0.98953,-2.0066 4.63057,-10.27642 3.0988,-28.182008 -3.76801,-37.336944 -5.37175,-7.164917 -13.12545,-12.297833 -22.01475,-12.809361 -1.0474,-0.05997 -2.13078,-0.08467 -3.24979,-0.08467 -8.14281,0.03881 -17.97509,1.813278 -26.10732,5.736167 -6.420201,3.100916 -11.779249,7.538861 -14.407091,13.514915 -5.776735,13.151203 -1.62842,30.242933 8.509,40.387413"
       style="fill:#fbbf61;fill-opacity:1;fill-rule:nonzero;stroke:none;stroke-width:0.0352777"
       id="path98" />
    <path
       d="m 85.952289,117.50426 c -1.492602,6.71936 2.672643,13.29373 7.45631,17.63113 10.938231,9.91694 29.482341,8.81345 42.737621,4.98969 12.7127,-3.66712 25.9588,-11.99586 26.6513,-26.57546 0.6985,-14.727056 -15.246,-19.435933 -27.2796,-19.897718 -15.31056,-0.58773 -45.585239,5.94007 -49.565631,23.852358"
       style="fill:#f15174;fill-opacity:1;fill-rule:nonzero;stroke:none;stroke-width:0.0352777"
       id="path100" />
    <path
       d="m 101.0032,120.17726 c 0.037,0.12418 0.0737,0.24836 0.11077,0.37289 -0.17074,-0.37924 -0.34149,-0.75883 -0.51188,-1.13806 1.39065,1.85843 1.69122,5.12057 0.36513,7.0679 -0.984254,1.44498 -3.182413,1.39912 -4.248506,0.0988 -1.540933,-1.8796 -1.1049,-5.09588 0.01553,-7.07672 -0.15381,0.39723 -0.307269,0.7941 -0.461079,1.19133 0.01622,-0.12594 0.0321,-0.25189 0.04833,-0.37747 0.13335,-1.04599 0.909463,-1.91065 1.963563,-2.08422 1.391708,-0.22965 2.351612,0.71191 2.718152,1.94558 v 0"
       style="fill:#cd254b;fill-opacity:1;fill-rule:nonzero;stroke:none;stroke-width:0.0352777"
       id="path102" />
    <path
       d="m 153.94597,109.94353 c 2.24649,1.87925 3.68865,6.63152 0.61666,8.41446 -0.57503,0.33372 -1.45838,0.18767 -1.9625,-0.20638 -1.22379,-0.95744 -1.29223,-2.41547 -1.31939,-3.85163 -0.0169,-0.87136 -0.28187,-2.0574 -0.254,-3.06669 0.0374,-1.36349 1.88947,-2.15124 2.91923,-1.28976 v 0"
       style="fill:#cd254b;fill-opacity:1;fill-rule:nonzero;stroke:none;stroke-width:0.0352777"
       id="path104" />
    <path
       d="m 134.17243,123.48808 c 0.49812,3.2766 -4.25909,5.18372 -6.75782,5.63774 -1.58079,0.28752 -3.28789,0.0374 -4.71029,-0.69956 -1.18392,-0.61312 -2.72415,-1.98155 -2.54494,-3.42723 0.048,-0.38418 0.46567,-0.54257 0.77682,-0.34326 0.98919,0.63359 1.40617,1.85491 2.44581,2.54177 1.22555,0.80927 2.81058,0.74083 4.18218,0.45967 1.2954,-0.266 2.43805,-0.99413 3.45123,-1.8154 0.94932,-0.76905 1.59208,-1.87113 2.61126,-2.56081 0.20285,-0.13723 0.50482,-0.061 0.54575,0.20708 v 0"
       style="fill:#211d1d;fill-opacity:1;fill-rule:nonzero;stroke:none;stroke-width:0.0352777"
       id="path106" />
    <path
       d="m 93.962814,87.465237 c 2.012595,1.453443 2.55552,5.284965 0.609245,6.973358 -0.92216,0.799748 -2.615493,0.4572 -3.054702,-0.72531 -0.337256,-0.907698 -0.176741,-1.68769 -0.23001,-2.613025 -0.05786,-1.002948 -0.149579,-1.90994 0.103717,-2.890663 0.280104,-1.083027 1.770592,-1.322917 2.57175,-0.74436 v 0"
       style="fill:#211d1d;fill-opacity:1;fill-rule:nonzero;stroke:none;stroke-width:0.0352777"
       id="path108" />
    <path
       d="m 144.09889,81.259876 c 0.0342,0.05644 0.0691,0.112888 0.10336,0.169333 -0.14111,-0.172861 -0.28257,-0.34925 -0.42369,-0.522111 1.05516,1.005416 2.28001,2.268361 2.21933,3.820583 -0.0483,1.234722 -1.40123,1.820333 -2.44545,1.485195 -1.05587,-0.335139 -1.5681,-1.397 -1.84574,-2.38125 -0.20249,-0.723195 -0.0748,-1.502834 -0.0208,-2.183695 0.0441,-0.560917 0.50729,-1.026583 1.05198,-1.118305 0.61207,-0.09878 1.06186,0.236361 1.36102,0.73025 v 0"
       style="fill:#211d1d;fill-opacity:1;fill-rule:nonzero;stroke:none;stroke-width:0.0352777"
       id="path110" />
    <path
       d="m 100.9083,74.610015 c -0.0582,1.689805 0.9391,3.563055 3.46604,5.556249 5.97324,4.720167 7.05803,-1.213555 10.31558,-4.265083 4.28237,-4.014611 8.73583,4.09575 12.60192,-0.194028 1.38184,-1.534583 -0.0134,-4.444999 -0.27622,-6.833305 -8.14281,0.03881 -17.97509,1.813278 -26.10732,5.736167"
       style="fill:#211d1d;fill-opacity:1;fill-rule:nonzero;stroke:none;stroke-width:0.0352777"
       id="path112" />
    <path
       d="m 137.65964,152.54815 c -0.44733,3.66042 -4.55825,5.70406 0.0459,9.15423 1.3155,0.98566 2.52271,1.4531 3.61632,1.51765 -2.6e-4,-0.0977 -10e-4,-0.19544 -0.002,-0.28963 0.002,-4.21076 0.26352,-8.45185 0.51435,-12.65414 0.2099,-3.57293 0.60043,-7.24676 0.18027,-10.71598 -1.52541,0.42193 -3.00531,1.30528 -3.8548,2.25849 -3.84705,4.3127 0.0162,6.51157 -0.50024,10.72938"
       style="fill:#211d1d;fill-opacity:1;fill-rule:nonzero;stroke:none;stroke-width:0.0352777"
       id="path114" />
  </g>
</svg>
