<?xml version="1.0" encoding="UTF-8" standalone="no"?>
<svg
   xmlns:dc="http://purl.org/dc/elements/1.1/"
   xmlns:cc="http://creativecommons.org/ns#"
   xmlns:rdf="http://www.w3.org/1999/02/22-rdf-syntax-ns#"
   xmlns:svg="http://www.w3.org/2000/svg"
   xmlns="http://www.w3.org/2000/svg"
   id="svg727"
   version="1.1"
   viewBox="0 0 158.12331 61.169758"
   height="61.169758mm"
   width="158.12331mm">
  <defs
     id="defs721" />
  <metadata
     id="metadata724">
    <rdf:RDF>
      <cc:Work
         rdf:about="">
        <dc:format>image/svg+xml</dc:format>
        <dc:type
           rdf:resource="http://purl.org/dc/dcmitype/StillImage" />
        <dc:title></dc:title>
      </cc:Work>
    </rdf:RDF>
  </metadata>
  <g
     transform="translate(29.168799,-88.855594)"
     id="layer1">
    <path
       d="m 88.28544,96.530461 c -1.83586,5.179129 0.51576,6.413849 4.05165,6.174669 3.53589,-0.23918 4.965,-2.13924 1.9678,-3.630788 -2.9972,-1.491192 4.90749,-5.004153 9.56063,-1.65735 4.65278,3.346798 1.50742,12.193768 -2.7365,13.273268 -4.24427,1.0795 -9.06674,-3.15772 -9.06674,-3.15772 l -3.35986,8.75453 -7.52969,-6.95254 -6.29496,6.16585 -7.372704,-5.84271 -5.793317,5.09376 -4.946295,-5.9249 -6.244873,5.28814 -1.335617,-7.48065 c 0,0 -4.613627,3.70028 -7.94244,4.17124 0,0 -3.468158,-4.82035 -7.906808,-4.19241 -4.439002,0.6283 -7.980185,4.82953 -7.980185,4.82953 0,0 -3.675238,-5.05213 -8.383059,-3.55882 -4.70817,1.4933 -5.873043,6.4904 -5.873043,6.4904 0,0 -10.2686568,2.49767 -20.3877328,2.3622 -10.1190782,-0.13547 -12.7024692,-1.16276 -12.6880052,6.32284 0,0 20.8911462,4.27072 35.987565,2.04752 0,0 -1.77165,5.00239 -9.6435338,5.52556 -7.872235,0.52281 -21.2273432,-4.64009 -24.1853842,0.91546 0,0 30.471532,6.13656 46.295732,6.59659 l -1.478843,2.77777 4.463695,-1.0668 -0.07479,1.31657 3.14678,-1.14195 1.241777,1.39171 c 0,0 1.134885,-0.59619 1.247068,-2.57104 0,0 27.090513,-0.21978 31.918275,0.055 l -3.416651,2.00695 4.827762,0.27482 -0.07479,1.31656 2.269066,-1.19203 1.486251,0.96519 c 0,0 1.39136,-1.24177 1.74802,-3.64313 0,0 20.00638,0.47801 36.97605,-7.5826 16.96967,-8.06063 19.08704,-14.32419 17.93804,-21.2143 -1.149,-6.88975 -11.74115,-18.059396 -20.85763,-20.339399 -9.11648,-2.27965 -17.71721,1.853847 -19.55271,7.032977"
       style="fill:#7d482a;fill-opacity:1;fill-rule:nonzero;stroke:none;stroke-width:0.0352777"
       id="path392" />
    <path
       d="m 3.9073472,121.89589 c 0,0 -10.269007,2.49766 -20.3880842,2.3622 -10.119078,-0.13547 -12.702117,-1.16311 -12.688005,6.32283 0,0 20.8911462,4.27073 35.9875642,2.04753 0,0 -1.77165,5.00239 -9.643532,5.5252 -7.8718832,0.52282 -21.2273442,-4.63973 -24.1850322,0.91581 0,0 30.4715312,6.13657 46.295731,6.59659 l -1.478844,2.77778 4.463698,-1.06716 -0.07514,1.31692 3.147129,-1.14194 1.241779,1.39136 c 0,0 1.134531,-0.59584 1.247069,-2.57069 0,0 27.09051,-0.21979 31.91792,0.0547 l -3.4163,2.0073 4.827765,0.27446 -0.07514,1.31657 2.269419,-1.19168 1.4859,0.9652 c 0,0 1.391708,-1.24178 1.748366,-3.64314 0,0 20.00638,0.47801 36.97569,-7.58261 16.96967,-8.06061 19.0874,-14.32419 17.9384,-21.21429 -1.14935,-6.88975 -11.74115,-18.059749 -20.85763,-20.3394 -9.11649,-2.280002 -17.71721,1.853848 -19.55271,7.03298 -1.83585,5.17913 0.51541,6.4135 4.05165,6.17431 3.5359,-0.23883 4.96465,-2.13889 1.96745,-3.63043 -2.9972,-1.49119 4.90784,-5.00415 9.56062,-1.65735 4.65279,3.3468 1.50778,12.19376 -2.73649,13.27326 -4.24427,1.07915 -9.06639,-3.15771 -9.06639,-3.15771 l -3.35986,8.75453 -7.53004,-6.95254 -6.294608,6.16585 -7.372702,-5.84271 -5.793317,5.09376 -4.94665,-5.9249 -6.244873,5.28814 -1.335616,-7.48066 c 0,0 -4.613275,3.70029 -7.94244,4.17125 0,0 -3.468159,-4.82036 -7.906806,-4.19241 -4.43865,0.62794 -7.979833,4.82952 -7.979833,4.82952 0,0 -3.67524,-5.05213 -8.3834128,-3.55882 -4.707819,1.49331 -5.872692,6.49041 -5.872692,6.49041"
       style="fill:#40b93c;fill-opacity:1;fill-rule:nonzero;stroke:none;stroke-width:0.0352777"
       id="path404" />
    <path
       d="m 92.9788,123.44105 c -2.77389,0.18768 -0.21238,3.73028 1.81257,2.9651 2.02494,-0.76553 3.49144,-3.32387 -1.81257,-2.9651"
       style="fill:#e0ec42;fill-opacity:1;fill-rule:nonzero;stroke:none;stroke-width:0.0352777"
       id="path406" />
    <path
       d="m 82.88653,130.5721 c -1.66088,2.10679 0.49071,6.85236 3.58069,2.84551 3.08999,-4.0072 -1.91981,-4.95265 -3.58069,-2.84551"
       style="fill:#e0ec42;fill-opacity:1;fill-rule:nonzero;stroke:none;stroke-width:0.0352777"
       id="path408" />
    <path
       d="m 73.44373,126.2922 c -1.85561,1.65559 1.23895,5.30614 3.14924,2.68676 1.9103,-2.61902 -1.29399,-4.34234 -3.14924,-2.68676"
       style="fill:#e0ec42;fill-opacity:1;fill-rule:nonzero;stroke:none;stroke-width:0.0352777"
       id="path410" />
    <path
       d="m 63.268909,131.00496 c -1.660522,2.09903 -0.705202,4.65491 2.036588,2.89984 2.741435,-1.75543 -0.376063,-4.99886 -2.036588,-2.89984"
       style="fill:#e0ec42;fill-opacity:1;fill-rule:nonzero;stroke:none;stroke-width:0.0352777"
       id="path412" />
    <path
       d="m 57.467481,124.63239 c -2.907949,0.80574 -1.840442,5.2585 0.855133,4.31658 2.695223,-0.94191 2.05246,-5.12198 -0.855133,-4.31658"
       style="fill:#e0ec42;fill-opacity:1;fill-rule:nonzero;stroke:none;stroke-width:0.0352777"
       id="path414" />
    <path
       d="m 47.908262,130.13113 c -2.281063,1.403 -1.986492,3.96029 0.900994,3.51473 2.887133,-0.44556 1.380418,-4.91808 -0.900994,-3.51473"
       style="fill:#e0ec42;fill-opacity:1;fill-rule:nonzero;stroke:none;stroke-width:0.0352777"
       id="path416" />
    <path
       d="m 38.693354,125.71224 c -2.546705,2.20063 -1.493309,6.89963 2.412293,4.0319 3.905957,-2.86809 0.13476,-6.23253 -2.412293,-4.0319"
       style="fill:#e0ec42;fill-opacity:1;fill-rule:nonzero;stroke:none;stroke-width:0.0352777"
       id="path418" />
    <path
       d="m 28.202095,128.25047 c -1.966735,1.42523 -2.591152,6.85236 0.852311,4.36422 3.443816,-2.48779 2.3622,-6.69396 -0.852311,-4.36422"
       style="fill:#e0ec42;fill-opacity:1;fill-rule:nonzero;stroke:none;stroke-width:0.0352777"
       id="path420" />
    <path
       d="m 25.47971,118.05978 c -2.4511,0.52106 -2.408767,3.64596 -0.169688,2.98239 2.239082,-0.66323 2.62114,-3.50344 0.169688,-2.98239"
       style="fill:#52423b;fill-opacity:1;fill-rule:nonzero;stroke:none;stroke-width:0.0352777"
       id="path422" />
    <path
       d="m 11.40176,118.74029 c -2.4510998,0.52105 -2.4087668,3.64561 -0.169688,2.98238 2.239082,-0.66322 2.62114,-3.50343 0.169688,-2.98238"
       style="fill:#52423b;fill-opacity:1;fill-rule:nonzero;stroke:none;stroke-width:0.0352777"
       id="path424" />
  </g>
</svg>
