<?xml version="1.0" encoding="UTF-8" standalone="no"?>
<svg
   xmlns:dc="http://purl.org/dc/elements/1.1/"
   xmlns:cc="http://creativecommons.org/ns#"
   xmlns:rdf="http://www.w3.org/1999/02/22-rdf-syntax-ns#"
   xmlns:svg="http://www.w3.org/2000/svg"
   xmlns="http://www.w3.org/2000/svg"
   id="svg1009"
   version="1.1"
   viewBox="0 0 206.13271 271.4389"
   height="271.4389mm"
   width="206.13271mm">
  <defs
     id="defs1003" />
  <metadata
     id="metadata1006">
    <rdf:RDF>
      <cc:Work
         rdf:about="">
        <dc:format>image/svg+xml</dc:format>
        <dc:type
           rdf:resource="http://purl.org/dc/dcmitype/StillImage" />
        <dc:title></dc:title>
      </cc:Work>
    </rdf:RDF>
  </metadata>
  <g
     transform="translate(-36.784835,69.951605)"
     id="layer1">
    <g
       id="g388"
       transform="matrix(0.03527778,0,0,-0.03527778,-210.58913,224.16348)">
      <path
         d="m 12745,2288.16 c -14.7,0.05 -30.6,-1.38 -47.4,-4.46 -6.7,-1.22 -13.5,-2.7 -20.5,-4.46 -8.2,-2.07 -16.6,-4.48 -25.2,-7.35 l -0.1,-0.01 c -9.4,-3.16 -19.2,-6 -29,-8.68 -2.2,-0.58 -4.3,-1.16 -6.5,-1.72 -20.7,-5.36 -42.2,-9.72 -64.2,-12.96 l -2.4,-0.36 c -58.7,-8.42 -121.3,-9.24 -183.7,-1.92 v -0.13 c -161,18.87 -320.9,92.11 -411.3,229.98 -146.8,223.89 -218.4,321.74 -525.1,260.58 -89.8,-17.92 -301.5,-33.71 -565.4,-34.51 v 0.1 c -67.7,-0.21 -138.7,0.56 -212.2,2.56 v -0.07 c -155.3,4.22 -320.6,13.84 -485,30.93 l 0.1,0.05 c -82.2,8.55 -164,19.11 -244.36,31.65 l -0.12,-0.22 c -341.84,53.36 -653.85,145.29 -829.26,295.59 l 0.39,0.23 c -28.37,24.31 -53.82,49.87 -74.58,77.33 l -0.21,0.3 c -2.56,3.4 -5.1,7 -7.61,10.72 -1.04,1.53 -2.06,3.13 -3.09,4.71 -1.47,2.27 -2.93,4.58 -4.39,6.95 -1.34,2.2 -2.68,4.41 -4.01,6.7 -0.89,1.53 -1.78,3.13 -2.66,4.7 -10.31,18.32 -20.23,39.33 -29.8,62.94 l -0.05,-0.03 c -35.71,88.22 -66.29,212.54 -92.39,364.05 h 0.02 c -11.4,66.16 -21.95,137.5 -31.7,213.27 h -0.01 c -28.07,218.09 -49.53,472.83 -65.73,746.4 l 0.06,-0.01 c -4.08,69 -7.84,139.13 -11.28,210.23 l -0.04,-0.01 c -9.39,194.49 -16.45,395.75 -21.59,597.98 h 0.02 c -1.81,71.29 -3.39,142.67 -4.75,213.94 h -0.02 c -3.94,206.65 -6.05,412.08 -6.79,610.09 h 0.02 c -0.28,72.13 -0.38,143.37 -0.31,213.22 v 0 c 0.05,47.8 0.17,95 0.36,141.49 h 0.02 c 0.3,72.95 0.75,144.29 1.35,213.4 h -0.01 c 5.09,586.76 20.04,1021.9 27.74,1075.76 24.46,171.24 220.16,500.01 220.16,500.01 0,0 -256.86,-96.37 -379.17,-230.92 0,0 0.14,99.1 -48.93,230.92 0,0 -220.16,-249.26 -366.93,-322.65 -146.78,-73.39 -935.7,-330.25 -954.04,-385.29 -18.35,-55.04 -48.93,-61.15 73.38,-73.39 122.32,-12.23 856.19,-244.62 941.81,-269.08 11.83,-3.38 20.86,-126.6 27.7,-336.56 h -0.01 c 1.54,-47.44 2.98,-99.23 4.31,-155.11 l 0.01,-0.61 c 0.2,-8.4 0.4,-16.91 0.6,-25.48 0.03,-1.32 0.06,-2.64 0.09,-3.96 0.2,-9.07 0.4,-18.23 0.6,-27.5 v 0 c 1.84,-85.4 3.46,-179.17 4.88,-280.06 v 0 c 0.92,-65.18 1.75,-133.4 2.51,-204.24 h 0.01 c 1.95,-181.31 3.4,-380.1 4.46,-591.06 v 0 c 0.33,-65.9 0.62,-132.97 0.88,-201.07 v 0 c 0.74,-196.62 1.18,-401.76 1.4,-611.54 0.07,-69.07 0.11,-138.64 0.14,-208.57 v 0 c 0.09,-247.24 -0.09,-499 -0.43,-749.13 v 0 c -0.1,-70.71 -0.21,-141.27 -0.33,-211.57 v 0 c -0.33,-197.57 -0.75,-393 -1.18,-583.22 v 0 c -0.17,-71.88 -0.34,-142.82 -0.5,-213.04 -0.43,-181 -0.87,-355.95 -1.25,-521.99 v 0 c -0.01,-5.25 -0.02,-10.42 -0.03,-15.64 -0.06,-23.36 -0.11,-46.54 -0.16,-69.53 -0.1,-45 -0.19,-89.38 -0.28,-132.87 v 0 c -1.28,-626.13 -1.35,-1091.19 3.12,-1215.968 v -0.113 c 0.22,-6.168 0.46,-11.508 0.7,-15.988 l 0.04,-0.649 c 0.11,-2.113 0.23,-4.043 0.36,-5.75 l 0.04,-0.512 c 0.11,-1.531 0.23,-2.898 0.34,-4.089 l 0.05,-0.5 c 0.12,-1.18 0.25,-2.161 0.38,-2.981 l 0.08,-0.488 0.4,-1.762 h 330.24 v 0.02 c 0,0.019 -0.01,0.769 -0.03,2.07 -0.17,12.391 -1.18,85.031 -2.29,184.94 v 0 c -2.82,255.64 -6.23,689.51 2.32,749.37 0,0 85.62,-48.92 159.01,-12.23 v -761 0 -163.17 0 h 354.7 v 162.54 749.4 c 0,0 1009.22,0 1575.92,6.74 h 0.5 v 0.01 c 124.3,1.48 227.4,3.28 293.6,5.48 v -811.19 -152.128 0 h 354.7 v 0 0 147.448 0 815.87 c 0,0 123.7,-12.23 233.8,0 v -810.83 -152.488 0 h 326.5 c 0,0 1.4,581.768 1.6,1009.598 0,4.6 0,9.11 0,13.68 0,1.77 0,3.53 0,5.29 0.1,74.64 0,144.24 0,204.56 -0.1,108.84 -0.4,187.79 -1,213.2 16.6,-71.11 357,-223.56 652.7,-208.85 l 1.5,0.08 c 11.3,0.58 22.5,1.42 33.7,2.51 l 2.6,0.24 c 11.5,1.17 22.9,2.59 34.3,4.33 131.6,20.24 191.9,65.62 201.9,106.66 0.9,3.71 1.4,7.4 1.5,11.02 v 0.54 c 0.6,37.72 -42,69.08 -110.3,69.29"
         style="fill:#7d482a;fill-opacity:1;fill-rule:nonzero;stroke:none"
         id="path400" />
      <path
         d="m 8350.51,8123.91 c 0,0 -220.16,-249.27 -366.94,-322.66 -146.77,-73.39 -935.69,-330.25 -954.04,-385.29 -18.34,-55.04 -48.92,-61.15 73.39,-73.38 122.31,-12.23 856.19,-244.63 941.81,-269.09 85.62,-24.46 24.46,-6324.97 48.92,-6391.541 h 330.25 c 0,0 -12.23,850.771 0,936.391 0,0 85.62,-48.92 159.01,-12.23 V 681.949 h 354.7 v 911.931 c 0,0 1501.79,0 1870.09,12.23 V 642.789 h 354.6 v 963.321 c 0,0 123.7,-12.23 233.8,0 V 642.789 h 326.5 c 0,0 3.7,1525.961 0,1452.571 -3.7,-73.39 407.4,-256.85 725.4,-207.93 318,48.92 220.1,244.63 0,171.24 -220.2,-73.39 -550.4,-19.7 -697.2,204.2 -146.8,223.89 -218.4,321.74 -525,260.59 -306.7,-61.16 -2031.33,-97.85 -2410.5,403.63 -379.17,501.48 -281.32,4525.57 -256.86,4696.81 24.47,171.23 220.17,500.01 220.17,500.01 0,0 -256.86,-96.38 -379.17,-230.93 0,0 0.13,99.1 -48.93,230.93"
         style="fill:#f4bf23;fill-opacity:1;fill-rule:nonzero;stroke:none"
         id="path506" />
      <path
         d="m 12156.4,1895.91 c 96.7,-17.07 198.1,-22.86 291.6,-8.48 318,48.93 220.1,244.63 0,171.24 -84.6,-28.2 -185.5,-37.42 -285.9,-25.65 1.3,-39.25 -0.1,-85 -5.7,-137.11"
         style="fill:#7c3214;fill-opacity:1;fill-rule:nonzero;stroke:none"
         id="path508" />
      <path
         d="m 9439.09,2214.81 c -85.62,-82.75 61.16,-380.4 171.24,-237.69 110.08,142.7 -85.62,320.44 -171.24,237.69"
         style="fill:#7c3214;fill-opacity:1;fill-rule:nonzero;stroke:none"
         id="path510" />
      <path
         d="m 8968.39,1995.17 c -94.46,72.51 -367.26,-116.49 -209.9,-204.36 157.36,-87.88 304.35,131.86 209.9,204.36"
         style="fill:#7c3214;fill-opacity:1;fill-rule:nonzero;stroke:none"
         id="path512" />
      <path
         d="m 8411.91,2417.8 c 84.43,-83.97 379.13,68.62 234.29,175.88 -144.85,107.25 -318.71,-91.9 -234.29,-175.88"
         style="fill:#7c3214;fill-opacity:1;fill-rule:nonzero;stroke:none"
         id="path514" />
      <path
         d="m 8815.3,2927.09 c -18.37,24.29 -35.58,57.05 -51.77,97.02 -80.2,-38.8 -129.81,-137.47 -76.55,-190.45 42.16,-41.94 136.78,-24.86 202.89,16.1 -28.36,24.31 -53.81,49.87 -74.57,77.33"
         style="fill:#7c3214;fill-opacity:1;fill-rule:nonzero;stroke:none"
         id="path516" />
      <path
         d="m 8472,3240.6 c -109.63,46.48 -326.28,-204.92 -151.9,-250.5 174.37,-45.57 261.53,204.02 151.9,250.5"
         style="fill:#7c3214;fill-opacity:1;fill-rule:nonzero;stroke:none"
         id="path518" />
      <path
         d="m 8141.75,2880.67 c -15.45,6.56 -33.07,7.02 -51.39,3.14 -0.19,-83.11 -0.38,-165.21 -0.57,-246.07 102.71,46.35 137.75,206.56 51.96,242.93"
         style="fill:#7c3214;fill-opacity:1;fill-rule:nonzero;stroke:none"
         id="path520" />
      <path
         d="m 8199.78,3586.37 c -21.69,54.34 -63,82.5 -107.91,92.23 -0.09,-70.71 -0.2,-141.27 -0.32,-211.57 76.85,0.83 141.31,36.45 108.23,119.34"
         style="fill:#7c3214;fill-opacity:1;fill-rule:nonzero;stroke:none"
         id="path522" />
      <path
         d="m 8671.1,3388.13 c -11.39,66.17 -21.94,137.51 -31.69,213.27 -89.63,11.1 -186.43,-47.11 -168.75,-121.15 14.98,-62.75 118.91,-98.79 200.44,-92.12"
         style="fill:#7c3214;fill-opacity:1;fill-rule:nonzero;stroke:none"
         id="path524" />
      <path
         d="m 8430.04,4013.1 c -59.92,102.9 -384.01,31.44 -271.71,-109.53 112.3,-140.97 331.62,6.63 271.71,109.53"
         style="fill:#7c3214;fill-opacity:1;fill-rule:nonzero;stroke:none"
         id="path526" />
      <path
         d="m 8562.45,4558.02 c -87.74,-16.96 -161.64,-74.06 -98.77,-152.97 31.19,-39.15 70.62,-55.48 110.05,-57.26 -4.09,69 -7.85,139.13 -11.28,210.23"
         style="fill:#7c3214;fill-opacity:1;fill-rule:nonzero;stroke:none"
         id="path528" />
      <path
         d="m 8199.78,4587.97 c -18.13,31.14 -60.5,46.23 -107.62,48.33 0.08,-69.06 0.12,-138.64 0.15,-208.57 80.25,23 142.99,99.25 107.47,160.24"
         style="fill:#7c3214;fill-opacity:1;fill-rule:nonzero;stroke:none"
         id="path530" />
      <path
         d="m 8430.04,4943.78 c -59.92,102.9 -384.01,31.44 -271.71,-109.53 112.3,-140.97 331.62,6.63 271.71,109.53"
         style="fill:#7c3214;fill-opacity:1;fill-rule:nonzero;stroke:none"
         id="path532" />
      <path
         d="m 8540.84,5155.99 c -1.81,71.29 -3.4,142.67 -4.75,213.95 -97.33,-10.4 -191.44,-70.45 -122.87,-156.52 35.83,-44.99 82.54,-60.39 127.62,-57.43"
         style="fill:#7c3214;fill-opacity:1;fill-rule:nonzero;stroke:none"
         id="path534" />
      <path
         d="m 8180.07,5402.01 c -15.86,27.24 -50.29,42.16 -90.18,46.9 0.33,-65.9 0.62,-132.97 0.88,-201.07 71.13,28.48 122.09,97.87 89.3,154.17"
         style="fill:#7c3214;fill-opacity:1;fill-rule:nonzero;stroke:none"
         id="path536" />
      <path
         d="m 8430.04,5748.21 c -59.92,102.9 -384.01,31.44 -271.71,-109.53 112.3,-140.97 331.62,6.63 271.71,109.53"
         style="fill:#7c3214;fill-opacity:1;fill-rule:nonzero;stroke:none"
         id="path538" />
      <path
         d="m 8529.29,5980.02 c -0.27,72.14 -0.37,143.37 -0.3,213.22 -94.72,-12.48 -182.67,-71.77 -115.77,-155.74 32.77,-41.15 74.66,-57.21 116.07,-57.48"
         style="fill:#7c3214;fill-opacity:1;fill-rule:nonzero;stroke:none"
         id="path540" />
      <path
         d="m 8529.37,6334.73 c 0.3,72.96 0.75,144.29 1.34,213.4 -95.37,-11.98 -184.79,-71.44 -117.49,-155.92 32.79,-41.18 74.71,-57.23 116.15,-57.48"
         style="fill:#7c3214;fill-opacity:1;fill-rule:nonzero;stroke:none"
         id="path542" />
      <path
         d="m 8232.36,6691.32 c -24.73,42.48 -94.46,55.18 -159.95,45.61 2.07,-63.34 3.94,-134.42 5.62,-212.66 100,0.18 196.58,94.5 154.33,167.05"
         style="fill:#7c3214;fill-opacity:1;fill-rule:nonzero;stroke:none"
         id="path544" />
      <path
         d="m 8180.07,6196.49 c -16.78,28.83 -54.31,43.96 -97.17,47.72 0.92,-65.18 1.76,-133.4 2.52,-204.24 73.97,27.02 128.27,98.79 94.65,156.52"
         style="fill:#7c3214;fill-opacity:1;fill-rule:nonzero;stroke:none"
         id="path546" />
      <path
         d="m 8485.42,7028.22 c -59.91,102.9 -384,31.44 -271.7,-109.53 112.29,-140.98 331.62,6.62 271.7,109.53"
         style="fill:#7c3214;fill-opacity:1;fill-rule:nonzero;stroke:none"
         id="path548" />
      <path
         d="m 8236.45,2130.16 c -49.81,36.88 -102.84,37.06 -147.83,18.62 -0.17,-74.55 -0.33,-147.34 -0.48,-218.04 112.74,8.92 259.11,117.38 148.31,199.42"
         style="fill:#7c3214;fill-opacity:1;fill-rule:nonzero;stroke:none"
         id="path550" />
      <path
         d="m 9159.87,2282.26 c 88.28,79.92 -48.71,382.2 -163.39,243.16 -114.68,-139.04 75.12,-323.07 163.39,-243.16"
         style="fill:#7c3214;fill-opacity:1;fill-rule:nonzero;stroke:none"
         id="path552" />
      <path
         d="m 9674.72,1595.2 c -9.77,62.13 -48.83,113.88 -103.24,107.57 -43.62,-5.07 -79.81,-52.57 -99.48,-108.15 64.8,0.16 132.89,0.35 202.72,0.58"
         style="fill:#7c3214;fill-opacity:1;fill-rule:nonzero;stroke:none"
         id="path554" />
      <path
         d="m 10318.3,1752.61 c -34.8,-30.31 -36.3,-94.61 -18.4,-154.07 75.9,0.6 148,1.3 214.1,2.09 2.5,112.22 -125.7,213.02 -195.7,151.98"
         style="fill:#7c3214;fill-opacity:1;fill-rule:nonzero;stroke:none"
         id="path556" />
      <path
         d="m 9935.87,1817.77 c 103.13,-59.59 348.93,163.31 181.53,229.95 -167.49,66.64 -284.62,-170.36 -181.53,-229.95"
         style="fill:#7c3214;fill-opacity:1;fill-rule:nonzero;stroke:none"
         id="path558" />
      <path
         d="m 9732,2396.27 c 68.39,-39.53 199.48,45.23 231.2,126.24 -82.21,8.55 -164,19.11 -244.33,31.65 -34.78,-57.66 -37.15,-128.83 13.13,-157.89"
         style="fill:#7c3214;fill-opacity:1;fill-rule:nonzero;stroke:none"
         id="path560" />
      <path
         d="m 10448.1,2491.6 c 16.6,-86.34 96.6,-158.92 161.4,-122.85 34.5,19.21 50.3,67.87 50.9,120.29 -67.8,-0.2 -138.8,0.57 -212.3,2.56"
         style="fill:#7c3214;fill-opacity:1;fill-rule:nonzero;stroke:none"
         id="path562" />
      <path
         d="m 11462.6,2422.58 c 29.4,30.11 42,64.05 43.6,97.5 -55.9,21.6 -124,26.81 -216.1,14.12 19.8,-98.75 93.1,-192.76 172.5,-111.62"
         style="fill:#7c3214;fill-opacity:1;fill-rule:nonzero;stroke:none"
         id="path564" />
      <path
         d="m 11209.3,2247.57 c -94.7,-72.16 16.2,-384.95 142.2,-256.12 126.1,128.84 -47.5,328.27 -142.2,256.12"
         style="fill:#7c3214;fill-opacity:1;fill-rule:nonzero;stroke:none"
         id="path566" />
      <path
         d="m 11542.5,1810.12 c -7.3,-70.56 97.3,-145.95 181.7,-157.73 0.1,81.86 0.1,158.11 0,223.54 -78.4,29 -174.4,4.5 -181.7,-65.81"
         style="fill:#7c3214;fill-opacity:1;fill-rule:nonzero;stroke:none"
         id="path568" />
      <path
         d="m 11195.8,1896.55 c -106.7,52.98 -338,-184.96 -166.7,-240.92 171.3,-55.96 273.3,187.95 166.7,240.92"
         style="fill:#7c3214;fill-opacity:1;fill-rule:nonzero;stroke:none"
         id="path570" />
      <path
         d="m 10633.7,1900.78 c 119,-3.38 229.3,309.64 50.3,288.61 -179,-21.04 -169.3,-285.23 -50.3,-288.61"
         style="fill:#7c3214;fill-opacity:1;fill-rule:nonzero;stroke:none"
         id="path572" />
      <path
         d="m 7971.34,7691.17 c -85.62,6.11 -79.5,-116.2 0,-110.08 79.5,6.11 85.62,103.96 0,110.08"
         style="fill:#52423b;fill-opacity:1;fill-rule:nonzero;stroke:none"
         id="path574" />
      <path
         d="m 8134.87,7580.64 c -85.62,6.12 -79.51,-116.19 0,-110.08 79.5,6.12 85.62,103.97 0,110.08"
         style="fill:#52423b;fill-opacity:1;fill-rule:nonzero;stroke:none"
         id="path576" />
      <path
         d="m 8088.68,874.02 c 0.96,-117.231 2.55,-185.469 4.97,-192.071 h 330.25 c 0,0 -1.11,77.141 -2.32,187.02 -115.91,7.863 -240.34,8.043 -332.9,5.051"
         style="fill:#7c3214;fill-opacity:1;fill-rule:nonzero;stroke:none"
         id="path578" />
      <path
         d="M 8582.9,845.121 V 681.949 h 354.71 V 844.48 c -131.57,7.168 -269.05,5.301 -354.71,0.641"
         style="fill:#7c3214;fill-opacity:1;fill-rule:nonzero;stroke:none"
         id="path580" />
      <path
         d="M 10807.7,794.922 V 642.789 h 354.6 v 147.453 c -124.7,8.637 -259.8,8.328 -354.6,4.68"
         style="fill:#7c3214;fill-opacity:1;fill-rule:nonzero;stroke:none"
         id="path582" />
      <path
         d="M 11396.1,795.281 V 642.789 h 326.5 c 0,0 0.1,57.172 0.3,148.621 -115.2,7.172 -237.1,7 -326.8,3.871"
         style="fill:#7c3214;fill-opacity:1;fill-rule:nonzero;stroke:none"
         id="path584" />
    </g>
  </g>
</svg>
