<?xml version="1.0" encoding="UTF-8" standalone="no"?>
<svg
   xmlns:dc="http://purl.org/dc/elements/1.1/"
   xmlns:cc="http://creativecommons.org/ns#"
   xmlns:rdf="http://www.w3.org/1999/02/22-rdf-syntax-ns#"
   xmlns:svg="http://www.w3.org/2000/svg"
   xmlns="http://www.w3.org/2000/svg"
   id="svg1129"
   version="1.1"
   viewBox="0 0 113.55479 126.57072"
   height="126.57072mm"
   width="113.55479mm">
  <defs
     id="defs1123" />
  <metadata
     id="metadata1126">
    <rdf:RDF>
      <cc:Work
         rdf:about="">
        <dc:format>image/svg+xml</dc:format>
        <dc:type
           rdf:resource="http://purl.org/dc/dcmitype/StillImage" />
        <dc:title></dc:title>
      </cc:Work>
    </rdf:RDF>
  </metadata>
  <g
     transform="translate(207.21192,26.243695)"
     id="layer1">
    <path
       d="m -104.64493,58.020334 c 0.62089,-0.98425 5.732638,-3.997325 7.397748,-4.86692 0.74436,1.726493 -1.22767,3.461453 -2.25778,4.768143 1.16769,-0.390525 4.35328,-3.120318 4.87186,-1.296106 0.77258,2.710391 -5.947828,5.159727 -7.450668,5.58165 l -2.56116,-4.186767"
       style="fill:#3f2016;fill-opacity:1;fill-rule:nonzero;stroke:none;stroke-width:0.0352777"
       id="path116" />
    <path
       d="m -94.463772,92.017875 c -0.76552,4.23228 -2.56822,6.87388 -7.845768,5.23382 -6.28651,-1.95051 0.59619,-5.32095 -3.66889,-8.90764 -4.73781,-3.98463 -19.39573,0.3944 -25.03735,0.0907 -0.19897,3.49285 -0.82726,6.90492 -0.68015,10.31029 -3.40925,1.11301 -8.43704,1.598075 -11.8805,0.52316 -0.15381,-3.08398 1.15817,-8.58978 -1.62243,-10.4147 -2.33786,-1.53176 -8.27969,0.80257 -10.40095,1.68522 -0.46072,4.7625 0.16052,8.07755 -4.77343,9.35778 -5.81237,1.507415 -8.01758,-1.06786 -8.9281,-5.78485 -0.83749,-4.35081 -2.39042,-12.93777 -2.02036,-19.66101 0.17427,-3.119261 0.76059,-5.840588 2.02389,-7.550502 l 26.68764,-25.644513 c -3.22721,3.345744 -0.34855,5.550959 4.65807,7.040737 8.02817,2.393598 21.52791,2.951692 24.11624,3.436763 17.872788,3.36691 22.233118,24.489835 19.372088,40.284745"
       style="fill:#6f4324;fill-opacity:1;fill-rule:nonzero;stroke:none;stroke-width:0.0352777"
       id="path118" />
    <path
       d="m -137.9521,48.296367 c -1.72014,10.9347 -12.75962,22.071894 -21.92549,25.812398 -3.29353,1.34303 -7.66903,1.53846 -11.44411,0.34184 0.17427,-3.119261 0.76059,-5.840588 2.02389,-7.550502 l 26.68764,-25.644473 c -3.22721,3.345744 -0.34855,5.550959 4.65807,7.040737"
       style="fill:#5c3119;fill-opacity:1;fill-rule:nonzero;stroke:none;stroke-width:0.0352777"
       id="path120" />
    <path
       d="m -171.79971,64.159374 c -0.79728,0.19191 -0.36054,7.179733 0.87171,9.274175 0.44979,-0.696738 1.38183,-1.32574 1.85173,-2.108555 1.52929,2.495551 0.84984,6.058611 1.62454,8.876241 0.41664,-0.61983 1.6944,-1.48378 2.08669,-2.47015 0.19896,2.42641 0.0328,4.71523 1.0608,6.85871 1.84538,-3.33199 2.12901,-8.05568 4.31271,-11.193994 0.0716,-0.382411 0.0536,-0.386644 -0.0543,-0.01304 0.23424,0.604304 0.9525,1.515884 1.09678,1.887004 0.73625,-4.133846 3.48262,-7.198427 3.90172,-11.401421 l -16.75235,0.291042"
       style="fill:#211d1d;fill-opacity:1;fill-rule:nonzero;stroke:none;stroke-width:0.0352777"
       id="path122" />
    <path
       d="m -183.78251,-25.16043 c -0.009,1.334205 2.31281,3.459339 2.96827,4.496152 0.61454,0.97155 1.16205,1.979789 1.64712,3.023306 0.9913,2.122664 1.73108,4.388203 2.27577,6.726414 0.24694,1.0766769 0.45649,2.1667609 0.62865,3.2709549 0.43815,2.805642 0.63782,5.677958 0.68403,8.51570201 0.0229,1.06679999 0.0183,2.12795599 -0.002,3.18099799 -0.061,3.250142 -0.2794,6.4092671 -0.52705,9.3168601 l 7.4355,-0.903817 c 1.66582,-1.233662 2.48779,-4.4330031 2.75943,-8.2017281 0.0737,-1.013532 0.10618,-2.0701 0.10654,-3.140075 -8e-4,-3.105151 -0.28893,-6.328481 -0.72108,-9.004301 -0.20602,-1.272469 -0.44274,-2.4154689 -0.70026,-3.3672639 -0.1263,-0.473075 -0.25753,-0.896408 -0.39159,-1.266119 -0.93276,-2.565753 -2.35834,-4.876095 -4.12399,-6.848828 -0.95991,-1.083028 -2.02212,-2.063044 -3.16089,-2.931936 -1.46367,-1.116894 -5.85364,-4.408664 -7.84048,-3.895725 -0.74577,0.192617 -1.03435,0.562681 -1.03787,1.029406"
       style="fill:#5c3119;fill-opacity:1;fill-rule:nonzero;stroke:none;stroke-width:0.0352777"
       id="path124" />
    <path
       d="m -175.57867,0.87209891 c 0.0229,1.06679999 0.0183,2.12795599 -0.002,3.18099799 2.10115,0.0099 4.21217,-0.50165 6.34436,-0.349602 1.08867,0.07938 2.23167,0.242004 3.32352,0.560917 0.0737,-1.013532 0.10618,-2.0701 0.10654,-3.140075 -0.8128,-0.26564199 -1.66053,-0.43250699 -2.42641,-0.53622299 -2.1336,-0.294924 -5.08564,-0.553156 -7.34589,0.283985"
       style="fill:#3f2016;fill-opacity:1;fill-rule:nonzero;stroke:none;stroke-width:0.0352777"
       id="path126" />
    <path
       d="m -176.89135,-10.914558 c 0.24694,1.0766769 0.45649,2.1667609 0.62865,3.2709549 0.56268,-0.130528 1.12677,-0.333728 1.68028,-0.459669 1.32785,-0.298097 2.70369,-0.415572 4.06611,-0.354542 1.35114,0.06138 2.67582,0.25012 3.98886,0.57785 -0.20602,-1.272469 -0.44273,-2.4154689 -0.70026,-3.3672639 -1.15041,-0.26423 -2.29447,-0.38735 -3.15172,-0.457905 -1.49966,-0.123825 -4.572,-0.167923 -6.51192,0.790575"
       style="fill:#3f2016;fill-opacity:1;fill-rule:nonzero;stroke:none;stroke-width:0.0352777"
       id="path128" />
    <path
       d="m -180.81424,-20.664278 c 0.61454,0.971198 1.16205,1.979789 1.64712,3.023306 0.97049,-0.383822 1.95756,-0.740481 2.97497,-0.984603 1.46262,-0.353483 2.95063,-0.603603 4.44888,-0.7366 -0.95991,-1.083028 -2.02212,-2.063044 -3.16089,-2.931936 -0.85125,0.0702 -1.70038,0.214842 -2.528,0.416983 -0.88512,0.220839 -2.20874,0.608189 -3.38208,1.21285"
       style="fill:#3f2016;fill-opacity:1;fill-rule:nonzero;stroke:none;stroke-width:0.0352777"
       id="path130" />
    <path
       d="m -182.33436,9.1733139 c -2.25566,-1.379361 -8.12165,4.0537681 -10.46727,5.1163351 -4.1275,1.870075 -7.84084,0.321381 -11.86286,1.165579 -4.24109,0.890411 -2.49661,5.868104 0.24553,7.622821 4.07776,2.609143 9.70704,2.466975 13.53609,-0.641702 3.31787,-2.693458 5.78873,-7.28486 7.3854,-11.16965 l 1.16311,-2.0933831"
       style="fill:#3f2016;fill-opacity:1;fill-rule:nonzero;stroke:none;stroke-width:0.0352777"
       id="path132" />
    <path
       d="m -133.25451,15.220982 c 1.29717,3.925713 0.14852,8.022873 2.15124,11.862858 1.85667,3.560234 5.24792,5.475465 9.06533,4.244269 3.71828,-1.199444 6.34012,-4.385027 2.21756,-6.744758 -3.21345,-1.839029 -5.87339,-3.440642 -8.02675,-6.621989 -2.55129,-3.76908 -5.22252,-7.315907 -10.05981,-7.159625 l 4.65243,4.419245"
       style="fill:#3f2016;fill-opacity:1;fill-rule:nonzero;stroke:none;stroke-width:0.0352777"
       id="path134" />
    <path
       d="m -120.87377,-20.803625 c -0.40005,1.272822 -3.26179,2.583745 -4.2037,3.369381 -0.88265,0.736247 -1.71309,1.528233 -2.49449,2.37243 -1.59491,1.716617 -2.99367,3.645958 -4.22875,5.7047699 -0.5655,0.948972 -1.09926,1.922286 -1.60161,2.919941 -1.27706,2.536825 -2.34844,5.20947 -3.26214,7.896225 -0.34925,1.00824 -0.66992,2.020006 -0.97366,3.028243 -0.93839,3.112559 -1.69934,6.1863131 -2.35515,9.0297001 l -6.80014,-3.140075 c -1.20721,-1.6852181 -1.00824,-4.9822781 -0.11183,-8.6529331 0.24094,-0.98742499 0.5341,-2.00271799 0.86218,-3.02154 0.95215,-2.95522 2.21545,-5.934781 3.447,-8.349192 0.58596,-1.1479389 1.16205,-2.1632329 1.69898,-2.9901439 0.26528,-0.411692 0.51999,-0.7747 0.76094,-1.085145 1.67463,-2.15653 3.74015,-3.918303 6.02544,-5.254625 1.24566,-0.736247 2.55764,-1.343378 3.90772,-1.821391 1.73567,-0.614186 6.92362,-2.401359 8.65717,-1.303867 0.65087,0.412044 0.81244,0.852664 0.67204,1.298222"
       style="fill:#5c3119;fill-opacity:1;fill-rule:nonzero;stroke:none;stroke-width:0.0352777"
       id="path136" />
    <path
       d="m -163.93453,6.1817569 c 7.21607,0.06421 25.22079,0.655815 30.5876,5.8945651 4.30282,4.200173 1.905,12.078052 0.39687,16.880062 -3.43429,10.932938 -10.03088,26.664356 -19.20946,34.149594 -17.78917,14.505167 -31.78421,-1.44145 -35.33916,-19.232031 -1.5053,-7.532513 -4.14619,-26.120019 1.04846,-32.446735 4.40937,-5.3703381 16.51388,-5.2987231 22.51569,-5.2454551"
       style="fill:#6f4324;fill-opacity:1;fill-rule:nonzero;stroke:none;stroke-width:0.0352777"
       id="path138" />
    <path
       d="m -136.66446,1.4591219 c -0.34925,1.00824 -0.66992,2.020006 -0.97366,3.028243 -2.00272,-0.635 -3.85551,-1.768826 -5.93161,-2.278237 -1.0608,-0.258233 -2.1978,-0.453673 -3.33551,-0.485071 0.24094,-0.98742499 0.5341,-2.00271799 0.86218,-3.02154 0.85443,-0.0032 1.71274,0.09772 2.47333,0.233891 2.12161,0.37323901 5.01015,1.03293401 6.90527,2.522714"
       style="fill:#3f2016;fill-opacity:1;fill-rule:nonzero;stroke:none;stroke-width:0.0352777"
       id="path140" />
    <path
       d="m -131.80071,-9.3570441 c -0.5655,0.948972 -1.09926,1.922286 -1.60161,2.919941 -0.49565,-0.296333 -0.96979,-0.662516 -1.45839,-0.952147 -1.17227,-0.691092 -2.44616,-1.224844 -3.76131,-1.583972 -1.30493,-0.355953 -2.62396,-0.582789 -3.97404,-0.673453 0.58596,-1.1479389 1.16205,-2.1632329 1.69898,-2.9901439 1.1758,0.100894 2.30293,0.334786 3.14042,0.530225 1.46509,0.341841 4.40302,1.24213 5.95595,2.7495499"
       style="fill:#3f2016;fill-opacity:1;fill-rule:nonzero;stroke:none;stroke-width:0.0352777"
       id="path142" />
    <path
       d="m -125.07747,-17.434244 c -0.88265,0.736247 -1.71309,1.528233 -2.49449,2.37243 -0.8061,-0.662869 -1.63654,-1.304925 -2.52977,-1.849261 -1.28411,-0.78493 -2.62361,-1.479197 -4.00897,-2.065514 1.24566,-0.736247 2.55764,-1.343378 3.90772,-1.821391 0.78846,0.328083 1.55257,0.725663 2.27859,1.17228 0.77435,0.481542 1.91558,1.256242 2.84692,2.191456"
       style="fill:#3f2016;fill-opacity:1;fill-rule:nonzero;stroke:none;stroke-width:0.0352777"
       id="path144" />
    <path
       d="m -141.84429,31.28754 c -0.90488,1.083382 -1.55187,2.256015 -1.42593,3.716161 0.0875,1.018471 0.78669,1.875721 1.87536,1.875721 1.10702,0 1.76389,-0.859721 1.87573,-1.875721 0.10618,-0.966962 -0.14429,-1.877484 -0.11924,-2.802467 0.0286,-1.067152 -1.47144,-1.792462 -2.20592,-0.913694 v 0"
       style="fill:#211d1d;fill-opacity:1;fill-rule:nonzero;stroke:none;stroke-width:0.0352777"
       id="path146" />
    <path
       d="m -183.04803,30.07963 c -0.1524,0.572559 -0.4124,1.069621 -0.42051,1.679575 -0.0106,0.752827 -0.0988,1.453444 0.30021,2.136069 0.53517,0.915106 2.09056,1.037873 2.59221,0 0.3683,-0.762 0.29387,-1.375482 0.0931,-2.167467 -0.0765,-0.300567 -0.14146,-0.608893 -0.28822,-0.885473 -0.13864,-0.261408 -0.30021,-0.476602 -0.38452,-0.762704 -0.27023,-0.920046 -1.63866,-0.954265 -1.8923,0 v 0"
       style="fill:#211d1d;fill-opacity:1;fill-rule:nonzero;stroke:none;stroke-width:0.0352777"
       id="path148" />
    <path
       d="m -171.83922,54.944817 c -3.39337,8.637765 12.28936,8.435623 12.89261,3.433586 0.53764,-4.455229 -12.13202,-5.368571 -12.89261,-3.433586"
       style="fill:#211d1d;fill-opacity:1;fill-rule:nonzero;stroke:none;stroke-width:0.0352777"
       id="path150" />
  </g>
</svg>
