<?xml version="1.0" encoding="UTF-8" standalone="no"?>
<svg
   xmlns:dc="http://purl.org/dc/elements/1.1/"
   xmlns:cc="http://creativecommons.org/ns#"
   xmlns:rdf="http://www.w3.org/1999/02/22-rdf-syntax-ns#"
   xmlns:svg="http://www.w3.org/2000/svg"
   xmlns="http://www.w3.org/2000/svg"
   id="svg1394"
   version="1.1"
   viewBox="0 0 64.208 52.344933"
   height="52.344933mm"
   width="64.208mm">
  <defs
     id="defs1388" />
  <metadata
     id="metadata1391">
    <rdf:RDF>
      <cc:Work
         rdf:about="">
        <dc:format>image/svg+xml</dc:format>
        <dc:type
           rdf:resource="http://purl.org/dc/dcmitype/StillImage" />
        <dc:title></dc:title>
      </cc:Work>
    </rdf:RDF>
  </metadata>
  <g
     transform="translate(63.098049,-187.00611)"
     id="layer1">
    <path
       d="m -23.655398,220.55576 c 0,1.538 -0.200377,3.09023 -0.291042,4.62481 -0.142875,2.42012 -0.196143,4.82603 -0.198612,7.24958 0,0.0459 2.65e-4,0.0952 0.01939,0.13755 0.03457,0.0741 0.121002,0.11299 0.197557,0.14827 1.001183,0.46563 1.971675,0.9912 2.942518,1.51335 0.500592,0.26818 1.583267,0.49033 1.349727,1.30186 -0.290335,1.00884 -2.148769,0.14812 -2.732969,-0.0882 -0.7366,-0.29987 -1.302456,-0.49047 -1.987198,-0.93144 0.150284,0.0529 0.190148,0.24352 0.206375,0.40227 0.08714,0.83947 0.43533,1.62262 0.569032,2.45523 0.07867,0.48687 0.258585,1.52053 -0.176035,1.88034 -0.143582,0.11988 -0.356307,0.12706 -0.528109,0.0564 -0.640998,-0.26101 -0.732721,-0.88898 -0.885473,-1.49215 -0.352425,-1.38284 -0.769408,-2.82937 -0.880181,-4.24754 -0.05574,-0.716 -0.05256,-1.44279 -0.07867,-2.16238 -0.07303,-2.01444 -0.146402,-4.02887 -0.219781,-6.04312 -0.0092,-0.25757 -0.279046,-4.06055 -0.148871,-4.09582 l 2.842329,-0.70898"
       style="fill:#ea4b1d;fill-opacity:1;fill-rule:nonzero;stroke:none;stroke-width:0.0352777"
       id="path324" />
    <path
       d="m -33.63019,223.92119 c 0.502357,0.14813 0.673455,0.74429 0.628298,1.32637 -0.08396,1.07954 -0.184856,2.15911 -0.278693,3.2421 -0.106892,1.2241 -0.214138,2.44821 -0.322792,3.67235 -0.04022,0.45155 0.602896,1.32648 0.81421,1.75341 0.232834,0.46923 0.519642,0.9066 0.788107,1.35819 0.414512,0.69494 1.213554,1.84505 0.74295,2.68455 -0.487892,0.86789 -1.321155,-0.0952 -1.682046,-0.56086 -0.301977,-0.39164 -0.539044,-0.81842 -0.80645,-1.23472 -0.469194,-0.7232 -1.025171,-1.39348 -1.540227,-2.08499 -0.01939,-0.0247 -1.383594,1.05131 -1.481314,1.12889 -0.290688,0.22588 -0.575027,0.47625 -0.881944,0.68089 -0.269875,0.17999 -0.500239,0.41272 -0.766939,0.59616 -0.424744,0.29282 -1.359958,0.44454 -1.474611,-0.26458 -0.09349,-0.57852 0.442031,-0.99826 0.794456,-1.37929 0.472722,-0.50807 1.121127,-0.94904 1.637241,-1.39707 0.292453,-0.25397 0.575381,-0.51153 0.886177,-0.74426 0.336198,-0.24694 0.733073,-0.41991 0.831498,-0.85026 0.09384,-0.41631 0.09349,-0.85728 0.123825,-1.2664 0.04657,-0.63158 0.138642,-1.25596 0.18909,-1.88736 0.09983,-1.10783 0.45861,-2.22952 0.4445,-3.33375 -0.01024,-0.81139 0.357362,-1.73221 1.354664,-1.43937"
       style="fill:#ea4b1d;fill-opacity:1;fill-rule:nonzero;stroke:none;stroke-width:0.0352777"
       id="path326" />
    <path
       d="m -48.939086,204.33426 c -1.46251,-3.35668 -4.039446,-6.217 -7.226405,-8.0204 -0.622194,-0.35207 -1.290814,-0.67134 -2.005189,-0.70097 -0.714375,-0.03 -1.485547,0.29492 -1.792428,0.9405 -0.545571,1.14688 0.564585,2.35832 1.561041,3.14572 2.133777,1.68522 4.383546,3.42512 7.057637,3.91689 -2.285083,-0.67698 -4.708348,-1.21814 -7.035729,-0.7052 -2.327346,0.51294 -4.515944,2.35589 -4.705456,4.73149 -0.04808,0.6029 0.03817,1.23293 0.348509,1.75147 0.82423,1.37944 2.788885,1.46061 4.36178,1.13591 2.490682,-0.51495 4.852634,-1.64041 6.820746,-3.2512 -2.401252,1.27925 -4.613133,4.42257 -4.388802,7.13536 0.05969,0.72319 0.387668,1.5875 1.10878,1.66867 0.43367,0.0493 0.835096,-0.21526 1.182653,-0.47985 1.868875,-1.42173 3.530247,-3.2137 4.370034,-5.40452 0.83947,-2.19219 1.280442,-3.71189 0.342829,-5.86387"
       style="fill:#ea4b1d;fill-opacity:1;fill-rule:nonzero;stroke:none;stroke-width:0.0352777"
       id="path328" />
    <path
       d="m -1.3383226,195.3416 c 0.07655,-0.0134 0.154871,-0.0166 0.23495,-0.006 0.39017298,0.0494 0.67944998,0.41628 0.76588098,0.80046 0.347486,1.54128 -0.83960998,4.23121 -1.95121398,5.26238 -0.99695,0.92428 -3.433234,2.46557 -4.855634,2.10997 2.67688,0.55491 6.48511498,2.2789 8.254294,4.41222 -0.87277102,0.83457 -2.704039,0.54187 -3.844571,0.51721 -2.899127,-0.0626 -7.211835,-1.33534 -8.3566004,-4.30713 -0.771173,-2.00202 0.07197,-4.24145 2.2168574,-4.8514 2.434166,-0.69145 4.726868,-1.87643 6.698543,-3.46252 0.251177,-0.20214 0.530577,-0.42122 0.837494,-0.47519"
       style="fill:#ea4b1d;fill-opacity:1;fill-rule:nonzero;stroke:none;stroke-width:0.0352777"
       id="path330" />
    <path
       d="m -33.248131,187.51346 c 1.009298,-0.16016 2.023887,-0.28998 3.042004,-0.381 5.28461,-0.47342 10.86485,0.3355 15.393458,3.24415 7.5501504,4.84963 9.8365024,14.87561 6.4194964,22.87651 -2.1290124,4.98475 -5.1674874,8.89356 -10.1536504,11.41592 -6.893629,3.4925 -15.921919,4.51214 -22.871605,0.61736 -5.978066,-3.35139 -9.517697,-9.81064 -10.237046,-16.5064 -0.148943,-1.38536 -0.181328,-2.7849 -0.09906,-4.17692 0.401567,-6.78286 4.584029,-11.823 10.63699,-14.6805 2.487084,-1.17404 5.154084,-1.97837 7.869413,-2.40912"
       style="fill:#f8c009;fill-opacity:1;fill-rule:nonzero;stroke:none;stroke-width:0.0352777"
       id="path332" />
    <path
       d="m -27.20681,213.35909 c -0.872067,0.71258 -1.867607,1.21349 -2.96545,1.41454 -0.814917,0.14813 -1.737784,-0.0952 -2.238023,-0.75488 -0.619477,-0.81841 -0.438857,-1.97915 -0.117475,-2.95271 -1.008944,0.64544 -2.088798,1.1782 -3.213804,1.5875 -0.545748,0.19745 -1.120776,0.37041 -1.698626,0.3139 -2.267656,-0.22571 -2.569281,-2.8539 -1.272822,-4.33917 -0.57785,0.65966 -2.828326,-0.0423 -3.399967,-0.43286 -0.958673,-0.65302 -1.449811,-1.71453 -1.333923,-2.85887 0.568149,-5.6092 7.997438,-6.63155 12.39975,-6.8658 1.01106,-0.0536 2.03694,-0.0642 3.040592,0.0864 1.944864,0.29281 3.755318,1.20262 4.389614,3.19052 1.146527,3.59382 -0.394054,9.00427 -3.589866,11.6114"
       style="fill:#ea4b1d;fill-opacity:1;fill-rule:nonzero;stroke:none;stroke-width:0.0352777"
       id="path334" />
    <path
       d="m -19.005081,197.97227 c -0.800804,0.9592 -0.971196,2.49025 0.728133,3.29706 1.546931,0.73307 3.073754,-1.3395 2.51954,-2.74708 -0.770467,-1.95721 -2.379486,-1.58962 -3.247673,-0.54998"
       style="fill:#3a3735;fill-opacity:1;fill-rule:nonzero;stroke:none;stroke-width:0.0352777"
       id="path336" />
  </g>
</svg>
