<?xml version="1.0" encoding="UTF-8" standalone="no"?>
<svg
   xmlns:dc="http://purl.org/dc/elements/1.1/"
   xmlns:cc="http://creativecommons.org/ns#"
   xmlns:rdf="http://www.w3.org/1999/02/22-rdf-syntax-ns#"
   xmlns:svg="http://www.w3.org/2000/svg"
   xmlns="http://www.w3.org/2000/svg"
   id="svg877"
   version="1.1"
   viewBox="0 0 122.09221 74.657532"
   height="74.657532mm"
   width="122.09221mm">
  <defs
     id="defs871" />
  <metadata
     id="metadata874">
    <rdf:RDF>
      <cc:Work
         rdf:about="">
        <dc:format>image/svg+xml</dc:format>
        <dc:type
           rdf:resource="http://purl.org/dc/dcmitype/StillImage" />
        <dc:title></dc:title>
      </cc:Work>
    </rdf:RDF>
  </metadata>
  <g
     transform="translate(28.540152,-106.30219)"
     id="layer1">
    <path
       d="m 38.326407,122.75954 c 1.972027,0.43956 5.210527,-1.61149 5.228167,-6.59377 0.01765,-4.98157 -2.215444,-9.9635 -9.958917,-9.8171 -7.739943,0.1464 -11.599333,9.23114 -11.599333,9.23114 0,0 -4.102804,-3.80965 -11.281833,-4.24921 -7.1825543,-0.43956 -10.55158133,4.24921 -10.55158133,4.24921 -0.878417,-4.39561 -5.42113697,-9.81746 -12.45446767,-9.23431 -7.03333,0.58279 -9.670697,8.06203 -8.937978,11.87167 0.732367,3.81 3.662892,4.68913 6.153856,4.10281 2.490964,-0.58596 0.439561,-5.56789 2.63772,-4.98193 2.197805,0.58632 4.6887687,4.39597 4.2492077,6.44737 -0.73272,3.22368 -4.9819277,17.14359 3.516489,25.4956 8.497004,8.35237 14.50481,2.78412 15.8242003,5.8614 1.319387,3.07693 3.66536,4.24921 3.81,5.42149 0.148167,1.17122 -0.292807,4.82918 -0.14464,9.9508 v 0.013 c 0.01765,0.60537 0.07761,1.08444 0.169333,1.46509 0.04233,0.1651 0.08819,0.30974 0.141111,0.43815 0.04233,0.11007 0.09172,0.2092 0.141113,0.29457 0.927803,1.53353 2.931583,-0.73272 2.931583,-0.73272 1.3335,2.93053 2.4765,-0.43956 2.4765,-0.43956 0.05292,0.3429 0.144637,0.641 0.261054,0.89041 l 0.0141,0.0332 c 0.532694,1.10843 1.566333,1.18287 1.922637,-0.48401 v -0.004 c 0.0141,-0.0603 0.02469,-0.12488 0.03881,-0.19297 0.0071,-0.0459 0.0141,-0.096 0.02117,-0.14499 l 0.01058,-0.0695 c 0.335139,-2.4137 0.07761,-8.38023 0.07761,-8.38023 1.612196,0.87912 3.661833,0.29316 3.661833,0.29316 0.148167,12.89437 3.076223,8.93797 3.076223,8.93797 1.280584,1.85985 2.282473,0.67734 2.638777,0.10866 0.02469,-0.036 0.04586,-0.0706 0.0635,-0.10054 0.05292,-0.0938 0.08114,-0.15452 0.08114,-0.15452 0.137583,0.4579 0.416277,0.77258 0.733777,0.92639 0.694973,0.33832 1.576916,-0.1023 1.576916,-1.51271 v 0 c 0,-0.47272 0,-1.07879 0,-1.73037 0,-2.17452 0,-4.8634 0,-4.8634 4.949474,0.73272 21.600584,1.31904 21.600584,1.31904 0.28575,7.48277 2.035527,6.38034 2.39889,6.06954 l 0.0035,-0.002 0.02469,-0.0212 0.0035,-0.005 0.01765,-0.0152 0.0035,-0.003 0.0141,-0.0145 c 1.026583,1.31869 2.988027,0.14676 2.988027,0.14676 0.331613,0.96132 2.180167,0.76412 2.536473,0.0113 l 0.01765,-0.0568 c 0.0141,-0.0335 0.02822,-0.066 0.03175,-0.10125 0.0071,-0.0406 0.0141,-0.0952 0.02117,-0.15628 l 0.0035,-0.0339 c 0.0035,-0.0635 0.01058,-0.13582 0.0141,-0.21696 v -0.0314 c 0.01058,-0.17956 0.01765,-0.39617 0.02117,-0.64206 v -0.005 c 0.03528,-1.99001 -0.0635,-5.83494 -0.05997,-6.53379 0.0071,-0.87912 2.924527,-2.05141 3.598333,-1.905 0.624417,0.13582 0.772584,4.42736 0.98425,7.73818 v 0.009 c 0.01765,0.25717 0.03528,0.5087 0.05292,0.75141 0.243417,3.37009 2.106083,1.30246 2.106083,1.30246 1.178275,1.0093 2.483555,-0.71649 2.483555,-0.71649 0,0 0.97367,0.62971 1.73919,0.70838 0.22931,0.0236 0.44098,-0.002 0.59973,-0.10972 0.16227,-0.10759 0.27164,-0.29633 0.29633,-0.59866 l 0.004,-0.004 c 0.004,-0.0459 0.004,-0.1009 0.007,-0.16298 v -0.0734 c 0.004,-0.0445 0.004,-0.0907 0.004,-0.14147 0,-0.0342 0,-0.0709 -0.004,-0.1083 0,-0.0476 0,-0.0977 0,-0.14993 -0.004,-0.0452 -0.004,-0.0907 -0.004,-0.139 -0.004,-0.0497 -0.004,-0.10301 -0.007,-0.15593 0,-0.0564 -0.004,-0.11112 -0.004,-0.17145 l -0.004,-0.0515 c -0.007,-0.18344 -0.0141,-0.38311 -0.0247,-0.59725 l -0.004,-0.0441 c -0.18345,-3.94547 -0.76553,-12.71517 0.91722,-16.07714 4.1028,-9.96386 0,-14.21307 1.17122,-14.86183 18.4785,-4.54801 15.25411,-16.19073 14.351,-17.50307 l -0.007,-0.007 c -0.0247,-0.0353 -0.0459,-0.0639 -0.067,-0.0829 l -0.004,-0.003 -0.0494,-0.0275 -0.007,-0.002 -0.0318,0.0208 -0.007,0.0123 -0.0106,0.0635 -0.004,0.0155 c 0,0.0332 0.004,0.0759 0.0106,0.12489 l 0.004,0.0374 c 0.007,0.0543 0.0177,0.11395 0.0353,0.18521 v 0.001 c 0.0282,0.22401 0.0423,0.44661 0.0494,0.66851 0.004,0.0388 0.007,0.078 0.007,0.11712 0.004,0.21308 0,0.4251 -0.0106,0.63641 -0.004,0.0384 -0.007,0.0765 -0.007,0.11501 -0.0176,0.21872 -0.0388,0.43674 -0.0706,0.65299 v 0.003 c -0.0353,0.22084 -0.0776,0.43991 -0.127,0.65793 l -0.0212,0.0818 c -0.0494,0.21414 -0.10936,0.42686 -0.17639,0.63782 l -0.0247,0.0748 c -0.14817,0.44874 -0.32809,0.89041 -0.53623,1.32398 v 0.002 c -0.98072,2.0133 -2.59997,3.85339 -4.43441,5.42643 l 0.004,0.002 c -4.51905,3.87129 -10.35752,6.12166 -11.21124,5.34626 -6.152448,-10.27219 -44.104279,-5.69948 -44.104279,-5.69948 0,0 -1.31939,-4.98193 -1.023056,-9.32004 0.292806,-4.33775 4.688416,-7.67715 4.54025,-5.77215 -0.14464,1.90465 0.878416,5.27474 2.850443,5.7143"
       style="fill:#7d482a;fill-opacity:1;fill-rule:nonzero;stroke:none;stroke-width:0.0352777"
       id="path394" />
    <path
       d="m -7.0288193,123.10173 c 0,0 3.370086,-4.68876 10.550173,-4.2492 7.1790263,0.43956 11.2818333,4.2492 11.2818333,4.2492 0,0 3.859387,-9.08473 11.599333,-9.23113 7.743471,-0.14676 9.976554,4.83517 9.958914,9.8171 -0.01764,4.98193 -3.25261,7.03333 -5.224637,6.59377 -1.972027,-0.43956 -2.99861,-3.80965 -2.853973,-5.71465 0.148167,-1.90465 -4.247444,1.43475 -4.54025,5.7725 -0.292804,4.33811 1.026583,9.32004 1.026583,9.32004 0,0 37.948307,-4.57271 44.104277,5.69948 1.46403,1.33561 17.727085,-6.30414 16.555865,-15.74589 -0.73025,-3.28753 7.47183,11.82582 -14.213419,17.16335 -1.171223,0.64876 2.931579,4.89832 -1.171223,14.86217 -2.053166,4.10281 -0.733777,16.26447 -0.878416,17.87631 -0.148167,1.61184 -2.638777,0 -2.638777,0 0,0 -1.30528,1.72579 -2.483557,0.71649 0,0 -1.862666,2.06763 -2.106083,-1.30245 -0.246944,-3.37044 -0.36336,-8.35237 -1.037167,-8.49877 -0.673806,-0.1464 -3.58775,1.02587 -3.594806,1.905 -0.01058,0.87912 0.151696,6.74017 0,7.61929 -0.155221,0.87912 -2.23661,1.17228 -2.589387,0.1464 0,0 -1.961446,1.17228 -2.98803,-0.1464 0,0 -2.144887,2.34456 -2.465916,-6.00745 0,0 -16.651111,-0.58632 -21.597054,-1.31904 0,0 0,4.54237 0,6.59377 0,2.0514 -1.87325,2.0514 -2.310694,0.58632 0,0 -1.17475,2.49096 -2.783416,0.1464 0,0 -2.931584,3.9564 -3.07975,-8.93833 0,0 -2.04964,0.58632 -3.661834,-0.2928 0,0 0.292804,6.74017 -0.148166,8.79157 -0.437447,2.0514 -1.905,1.46509 -2.197807,-0.43956 0,0 -1.139473,3.37009 -2.4765,0.43956 0,0 -3.2385003,3.66324 -3.3831403,-1.46544 -0.148166,-5.12833 0.292807,-8.79157 0.14464,-9.96385 -0.14464,-1.17193 -2.49061,-2.34421 -3.806473,-5.42149 -1.319387,-3.07693 -7.327899,2.49096 -15.8266677,-5.86105 -8.498417,-8.35202 -4.249208,-22.27227 -3.516488,-25.4956 0.439561,-2.05141 -2.051403,-5.86105 -4.249562,-6.44737 -2.197805,-0.58596 -0.146403,4.39596 -2.637367,4.98193 -2.490963,0.58631 -5.421488,-0.29316 -6.154208,-4.10281 -0.732719,-3.80965 1.905,-11.28889 8.938331,-11.87168 7.03333,-0.58314 11.5756967,4.83835 12.4548187,9.23431"
       style="fill:#d79649;fill-opacity:1;fill-rule:nonzero;stroke:none;stroke-width:0.0352777"
       id="path426" />
    <path
       d="m 1.9091567,140.53848 c -5.129387,0 -7.619293,1.27106 -7.179731,4.59176 0.439561,3.32069 4.98192797,3.90666 4.98192797,3.90666 0,0 -0.585611,2.0514 -2.78341697,2.19816 -2.198511,0.1464 -4.788606,1.46508 -2.2479,1.75824 2.540705,0.29316 5.32412297,-0.73272 7.22912,-3.51649 0,0 2.783417,3.90596 7.17903,3.56482 1.7603603,-0.48789 0.843137,-1.77765 -1.905,-1.51377 -2.744613,0.26423 -3.36903,-2.49096 -3.36903,-2.49096 0,0 5.27403,-0.73237 5.422197,-4.98193 0.144637,-4.24921 -7.327197,-3.51649 -7.327197,-3.51649"
       style="fill:#80310f;fill-opacity:1;fill-rule:nonzero;stroke:none;stroke-width:0.0352777"
       id="path428" />
    <path
       d="m 10.70038,136.43568 c -1.9050003,0.1464 -1.6121933,4.59246 0.585611,4.05447 2.197806,-0.53799 1.319389,-4.20088 -0.585611,-4.05447"
       style="fill:#80310f;fill-opacity:1;fill-rule:nonzero;stroke:none;stroke-width:0.0352777"
       id="path430" />
    <path
       d="m -8.2501353,136.43568 c -1.9049997,0.1464 -1.611842,4.59246 0.586316,4.05447 2.197806,-0.53799 1.318683,-4.20088 -0.586316,-4.05447"
       style="fill:#80310f;fill-opacity:1;fill-rule:nonzero;stroke:none;stroke-width:0.0352777"
       id="path432" />
    <path
       d="m 27.111604,144.49453 c -1.612197,1.17228 -0.14464,2.08033 1.17122,1.55328 1.31939,-0.5274 0.440973,-2.72521 -1.17122,-1.55328"
       style="fill:#80310f;fill-opacity:1;fill-rule:nonzero;stroke:none;stroke-width:0.0352777"
       id="path434" />
    <path
       d="m 32.092824,142.44348 c -1.756833,0.73237 -0.878417,3.76202 0.881946,2.68676 1.756834,-1.07527 0.878417,-3.41948 -0.881946,-2.68676"
       style="fill:#80310f;fill-opacity:1;fill-rule:nonzero;stroke:none;stroke-width:0.0352777"
       id="path436" />
    <path
       d="m 37.807824,140.53531 c -1.464027,0.73589 -2.342444,2.9337 0,2.78729 2.345973,-0.14675 1.467556,-3.52284 0,-2.78729"
       style="fill:#80310f;fill-opacity:1;fill-rule:nonzero;stroke:none;stroke-width:0.0352777"
       id="path438" />
    <path
       d="m 44.108434,141.8801 c -1.756833,0.17991 -1.905,3.29952 0,3.25014 1.905,-0.0494 2.63878,-3.52037 0,-3.25014"
       style="fill:#80310f;fill-opacity:1;fill-rule:nonzero;stroke:none;stroke-width:0.0352777"
       id="path440" />
    <path
       d="m 50.264407,141.8801 c -1.435806,0.29174 -0.881943,3.10232 1.023057,3.29811 1.905,0.1958 1.026583,-3.71475 -1.023057,-3.29811"
       style="fill:#80310f;fill-opacity:1;fill-rule:nonzero;stroke:none;stroke-width:0.0352777"
       id="path442" />
    <path
       d="m 56.565018,142.30414 c -1.897944,1.03081 -1.026584,3.47909 0.585612,3.0547 1.612194,-0.42439 2.638777,-4.80589 -0.585612,-3.0547"
       style="fill:#80310f;fill-opacity:1;fill-rule:nonzero;stroke:none;stroke-width:0.0352777"
       id="path444" />
    <path
       d="m 62.280018,145.13024 c -1.608667,0.14852 -2.053167,3.32069 0,3.17429 2.049639,-0.14676 2.63525,-3.41771 0,-3.17429"
       style="fill:#80310f;fill-opacity:1;fill-rule:nonzero;stroke:none;stroke-width:0.0352777"
       id="path446" />
    <path
       d="m 55.485518,146.7135 c -1.266471,0.27235 -0.973667,3.64243 0.931333,3.05612 1.905,-0.58597 0.33514,-3.32846 -0.931333,-3.05612"
       style="fill:#80310f;fill-opacity:1;fill-rule:nonzero;stroke:none;stroke-width:0.0352777"
       id="path448" />
    <path
       d="m 60.226851,149.83806 c -1.464027,0.95744 -1.287637,4.0266 0.673806,3.22474 1.964973,-0.80222 0.790223,-4.18218 -0.673806,-3.22474"
       style="fill:#80310f;fill-opacity:1;fill-rule:nonzero;stroke:none;stroke-width:0.0352777"
       id="path450" />
    <path
       d="m 51.728434,151.43191 c -1.612193,-0.0504 -2.34597,2.73367 0,2.44051 2.345973,-0.29316 1.612196,-2.39042 0,-2.44051"
       style="fill:#80310f;fill-opacity:1;fill-rule:nonzero;stroke:none;stroke-width:0.0352777"
       id="path452" />
    <path
       d="m 49.453018,146.20127 c -1.68275,0.0289 -2.705804,2.82575 -0.948971,3.63679 1.76036,0.81068 3.95111,-3.68865 0.948971,-3.63679"
       style="fill:#80310f;fill-opacity:1;fill-rule:nonzero;stroke:none;stroke-width:0.0352777"
       id="path454" />
    <path
       d="m 42.73613,146.69445 c -1.160639,0.49812 0.246944,2.63561 1.541638,2.34245 1.298223,-0.29281 0.162279,-3.0734 -1.541638,-2.34245"
       style="fill:#80310f;fill-opacity:1;fill-rule:nonzero;stroke:none;stroke-width:0.0352777"
       id="path456" />
    <path
       d="m 44.838684,150.64874 c -1.4605,0.58632 -0.670277,2.85538 0.98425,2.01401 1.658057,-0.84173 0.47978,-2.59998 -0.98425,-2.01401"
       style="fill:#80310f;fill-opacity:1;fill-rule:nonzero;stroke:none;stroke-width:0.0352777"
       id="path458" />
    <path
       d="m 37.807824,145.18527 c -1.234723,0.66887 -0.62089,3.7151 1.44639,3.1242 2.070804,-0.59126 1.337027,-4.63127 -1.44639,-3.1242"
       style="fill:#80310f;fill-opacity:1;fill-rule:nonzero;stroke:none;stroke-width:0.0352777"
       id="path460" />
    <path
       d="m 32.533797,146.7763 c -1.026583,0.79551 -0.42686,3.04835 1.397,2.28811 1.82739,-0.75988 -0.370417,-3.08327 -1.397,-2.28811"
       style="fill:#80310f;fill-opacity:1;fill-rule:nonzero;stroke:none;stroke-width:0.0352777"
       id="path462" />
    <path
       d="m 38.809714,149.83806 c -1.82739,0.49247 -1.037167,3.3729 0.4445,2.82469 1.485193,-0.54857 2.017887,-3.48898 -0.4445,-2.82469"
       style="fill:#80310f;fill-opacity:1;fill-rule:nonzero;stroke:none;stroke-width:0.0352777"
       id="path464" />
    <path
       d="m 85.429299,129.61295 c 0.49389,3.96064 -2.08845,7.6006 -5.35164,10.39778 0.64911,0.28222 1.13241,0.64805 1.10419,1.11372 -0.0247,0.40393 0.0388,0.81844 0.17992,1.18815 8.4455,-6.47276 3.4925,-15.28798 4.06753,-12.69965"
       style="fill:#80310f;fill-opacity:1;fill-rule:nonzero;stroke:none;stroke-width:0.0352777"
       id="path466" />
    <path
       d="m 13.190991,176.54898 c -1.612194,2.01612 -2.928054,0 -2.928054,0 -0.9454463,0.61207 -2.0425833,0.84419 -2.6599463,0.41134 0.0035,0.35595 0.01058,0.71755 0.02117,1.08902 0.14464,5.12868 3.3831403,1.46544 3.3831403,1.46544 1.337027,2.93053 2.4765,-0.43956 2.4765,-0.43956 0.292807,1.90465 1.76036,2.49096 2.197807,0.43956 0.102303,-0.47907 0.165803,-1.21849 0.201083,-2.0634 -1.35114,0.27482 -2.691696,-0.9024 -2.691696,-0.9024"
       style="fill:#80310f;fill-opacity:1;fill-rule:nonzero;stroke:none;stroke-width:0.0352777"
       id="path468" />
    <path
       d="m 19.886714,176.99665 c 0.832556,5.4476 2.68464,2.95769 2.68464,2.95769 1.608666,2.34421 2.783416,-0.1464 2.783416,-0.1464 0.437444,1.46508 2.310694,1.46508 2.310694,-0.58632 0,-0.47237 0,-1.0795 0,-1.73037 -1.181807,-0.0169 -2.24014,-0.94227 -2.24014,-0.94227 -1.612194,2.01612 -2.709333,0 -2.709333,0 -0.917221,0.59513 -2.215444,0.8576 -2.829277,0.44767"
       style="fill:#80310f;fill-opacity:1;fill-rule:nonzero;stroke:none;stroke-width:0.0352777"
       id="path470" />
    <path
       d="m 57.305851,179.95434 c 0.05997,-0.36018 0.07056,-1.55928 0.05997,-2.90689 -1.56986,1.22767 -2.64936,0.0787 -2.64936,0.0787 -1.608667,2.01648 -4.092223,-0.1023 -4.092223,-0.1023 -0.370417,0.23989 -0.719667,0.34643 -1.051277,0.36406 0.691443,4.16243 2.15547,2.56646 2.15547,2.56646 1.026584,1.31869 2.98803,0.14641 2.98803,0.14641 0.352777,1.02587 2.434166,0.73272 2.589387,-0.14641"
       style="fill:#80310f;fill-opacity:1;fill-rule:nonzero;stroke:none;stroke-width:0.0352777"
       id="path472" />
    <path
       d="m 66.756768,177.02382 c -1.612194,2.01612 -3.160888,0 -3.160888,0 -0.356306,0.23318 -1.439333,0.3376 -1.760362,0.36018 0.03528,0.53481 0.06703,1.05728 0.102306,1.54482 0.243417,3.36973 2.106083,1.30245 2.106083,1.30245 1.178277,1.0093 2.483557,-0.71649 2.483557,-0.71649 0,0 2.49061,1.61184 2.638777,0 0.02822,-0.33126 -0.0035,-1.11337 -0.05292,-2.17523 -1.464027,0.60361 -2.356556,-0.31573 -2.356556,-0.31573"
       style="fill:#80310f;fill-opacity:1;fill-rule:nonzero;stroke:none;stroke-width:0.0352777"
       id="path474" />
  </g>
</svg>
