<?xml version="1.0" encoding="UTF-8" standalone="no"?>
<svg
   xmlns:dc="http://purl.org/dc/elements/1.1/"
   xmlns:cc="http://creativecommons.org/ns#"
   xmlns:rdf="http://www.w3.org/1999/02/22-rdf-syntax-ns#"
   xmlns:svg="http://www.w3.org/2000/svg"
   xmlns="http://www.w3.org/2000/svg"
   id="svg659"
   version="1.1"
   viewBox="0 0 241.39433 117.51537"
   height="117.51537mm"
   width="241.39433mm">
  <defs
     id="defs653" />
  <metadata
     id="metadata656">
    <rdf:RDF>
      <cc:Work
         rdf:about="">
        <dc:format>image/svg+xml</dc:format>
        <dc:type
           rdf:resource="http://purl.org/dc/dcmitype/StillImage" />
        <dc:title></dc:title>
      </cc:Work>
    </rdf:RDF>
  </metadata>
  <g
     transform="translate(-35.028971,-75.045883)"
     id="layer1">
    <path
       d="m 262.79706,109.77926 c -0.50624,-0.65758 -1.21038,-0.84173 -1.99919,-0.69074 -2.36643,0.45261 -5.49451,3.91936 -6.32848,6.65127 -0.0522,0.17074 -0.0734,0.33337 -0.0663,0.48966 0.1143,2.44439 7.20725,3.29318 11.92248,8.39505 0.96202,1.04069 1.8235,2.25989 2.50825,3.70416 0.12558,0.26494 0.24517,0.53764 0.35842,0.8181 0.17498,0.43391 0.33549,0.88512 0.47766,1.35819 l 0.008,0.0335 h 7.9e-4 c 3.30482,11.10827 -11.14108,12.56277 -20.40008,4.0446 -9.26852,-8.52734 -17.05398,-30.77174 -28.54712,-40.781815 C 209.23834,83.791177 176.34322,72.29803 148.8576,75.634602 c -27.48527,3.336925 -54.920438,7.044266 -62.706245,55.982308 -0.839965,5.28073 -10.380837,7.04426 -19.2786,5.56119 -8.89776,-1.48273 -7.785452,-15.07067 -5.190418,-21.43796 2.595385,-6.36764 11.860741,-14.84841 11.306175,-18.20827 -0.554567,-3.359855 -2.778832,-8.921044 -11.306175,-10.774891 -8.526992,-1.853494 -18.166292,12.653433 -19.2786,25.420111 -1.112308,12.76667 2.965803,27.22562 9.26853,33.89877 6.302728,6.67349 15.942028,12.23468 27.435173,13.71776 11.401425,1.47108 12.585349,14.61276 11.15554,18.80372 l -0.0035,-0.001 c -0.01093,0.0318 -0.01871,0.0742 -0.02963,0.10512 -1.48308,4.07818 0.741537,6.67357 5.190418,6.30277 0.204259,-0.017 0.402519,-0.0374 0.597607,-0.0595 0.03669,-0.004 0.07408,-0.008 0.11077,-0.0124 0.189797,-0.0229 0.375357,-0.048 0.55598,-0.0766 l 0.08008,-0.013 c 0.379238,-0.0617 0.738013,-0.13695 1.075621,-0.22832 l 0.05327,-0.0147 c 0.171802,-0.0477 0.338667,-0.0991 0.499182,-0.156 l 0.0019,-7.9e-4 c 0.33514,-0.11807 0.645583,-0.25781 0.93204,-0.42083 l 0.0049,-0.003 c 1.798112,-1.02485 2.628902,-2.99766 2.391132,-6.80088 -0.37077,-5.93161 3.33692,-2.9658 3.33692,-0.37042 0,1.3317 -0.19367,2.85789 0.26776,4.0791 l 0.0109,0.0287 c 0.0836,0.21579 0.18874,0.42224 0.31926,0.61584 l 0.0289,0.0427 c 0.0656,0.0938 0.13653,0.18521 0.21555,0.2727 l 0.0187,0.0197 c 0.0737,0.0802 0.15416,0.15709 0.23989,0.23111 l 0.0473,0.0413 c 0.0924,0.0765 0.19156,0.14993 0.29845,0.21897 l 0.0557,0.0339 c 0.0981,0.0608 0.20249,0.11853 0.31291,0.17297 l 0.0603,0.0303 c 0.12418,0.0586 0.25753,0.11218 0.39793,0.16221 l 0.0931,0.0311 c 0.133,0.0443 0.27235,0.0853 0.42052,0.1221 l 0.054,0.0143 c 0.16227,0.0384 0.33584,0.071 0.51682,0.0999 0.0423,0.007 0.0854,0.0127 0.12876,0.019 0.18838,0.0269 0.38276,0.0504 0.59125,0.0663 0.27588,0.0216 0.54117,0.0304 0.79975,0.0321 0.097,7.9e-4 0.18944,-0.004 0.28399,-0.006 0.15381,-0.003 0.30586,-0.008 0.45332,-0.0186 0.11818,-0.008 0.23283,-0.0201 0.34713,-0.0328 0.10795,-0.012 0.21414,-0.0262 0.31821,-0.0423 0.1344,-0.0209 0.2674,-0.0431 0.39581,-0.0703 0.055,-0.0116 0.10795,-0.026 0.16193,-0.0391 2.90618,-0.68834 4.25379,-3.09065 4.10421,-6.86717 -0.19085,-4.81965 100.05096,-3.76202 103.13176,-1.88101 1.21567,0.74225 1.28129,1.71132 1.09397,2.77177 l -0.002,-7.9e-4 c -0.13793,0.78384 -0.41204,1.61742 -0.46566,2.44644 l -0.001,0.0152 c -0.004,0.0699 -0.006,0.13973 -0.007,0.20958 l -2.6e-4,0.092 c 7.9e-4,0.0608 0.003,0.12143 0.006,0.18246 0.002,0.0403 0.006,0.0804 0.0102,0.12058 0.005,0.0551 0.0106,0.10985 0.019,0.16481 0.008,0.0518 0.0187,0.10337 0.0293,0.15519 0.01,0.0484 0.0187,0.0974 0.0314,0.14563 0.0226,0.0879 0.0497,0.17543 0.0818,0.26253 0.013,0.0359 0.0303,0.0719 0.0452,0.10831 0.0254,0.0611 0.0522,0.12209 0.0829,0.18273 0.0194,0.0382 0.0409,0.0759 0.0621,0.11356 0.0335,0.0597 0.0699,0.11864 0.10865,0.17749 0.0243,0.0366 0.049,0.0734 0.0755,0.10967 0.0459,0.0629 0.0967,0.1257 0.14957,0.18811 l 0.0783,0.0923 c 0.084,0.0925 0.17427,0.18425 0.27552,0.2752 0.72249,0.64879 1.63089,1.04567 2.59045,1.24396 2.87902,0.59518 6.21806,-0.59834 6.38281,-2.14601 0.0268,-0.2504 0.0483,-0.49636 0.0674,-0.73974 l 0.006,-0.0758 c 0.0183,-0.24377 0.0335,-0.48302 0.0459,-0.71907 l 0.001,-0.0274 c 0.2092,-4.03263 -0.35454,-6.88696 1.95263,-7.5463 1.83409,-0.52387 2.06551,4.3187 3.74297,7.20619 l 0.0116,0.0204 c 0.0596,0.10171 0.12136,0.2001 0.1845,0.29669 l 0.0483,0.0728 c 0.0557,0.0828 0.11325,0.16259 0.17251,0.24087 0.0257,0.0339 0.0515,0.0674 0.078,0.10058 0.0536,0.0677 0.10865,0.13328 0.16545,0.1972 0.0342,0.0387 0.0695,0.0762 0.10477,0.11328 0.0529,0.0553 0.10654,0.10971 0.16158,0.16125 0.0423,0.0398 0.0861,0.0772 0.12982,0.11452 0.0526,0.0449 0.10548,0.0893 0.16016,0.13063 0.0505,0.0378 0.10266,0.0722 0.15452,0.10721 0.0529,0.0348 0.10512,0.0708 0.1598,0.10266 0.0589,0.0342 0.11995,0.0638 0.18098,0.0938 0.0526,0.026 0.10442,0.0536 0.15875,0.0769 0.0688,0.0289 0.14076,0.0518 0.21237,0.0755 0.0515,0.0172 0.10125,0.0369 0.15381,0.0511 0.0836,0.0226 0.17145,0.0378 0.25929,0.0533 0.0452,0.008 0.0885,0.02 0.13477,0.0261 0.13652,0.0176 0.27693,0.0278 0.42298,0.0278 v 0 c 0.17956,0 0.35172,-0.004 0.51964,-0.0102 0.0413,-0.001 0.0818,-0.004 0.12276,-0.006 0.13582,-0.007 0.26776,-0.0152 0.39582,-0.0265 l 0.0892,-0.008 c 3.76767,-0.36449 4.12539,-2.93976 2.97321,-12.85207 -1.25835,-10.8257 -2.37066,-31.2166 -1.62912,-33.81164 0.74154,-2.59538 10.99996,13.71741 24.40798,10.75161 13.40803,-2.96616 11.55418,-14.82972 9.32992,-18.90818 -2.22462,-4.07811 -10.03829,-14.01586 -12.06324,-16.64723"
       style="fill:#7d482a;fill-opacity:1;fill-rule:nonzero;stroke:none;stroke-width:0.0352777"
       id="path398" />
    <path
       d="m 78.959274,139.13883 c -0.839962,5.28073 -10.380837,7.04427 -19.278598,5.56119 -8.897761,-1.48307 -7.785806,-15.07066 -5.19042,-21.4383 2.595034,-6.36729 11.860389,-14.84842 11.306174,-18.20827 -0.554566,-3.35986 -2.779183,-8.920696 -11.306174,-10.774544 -8.526991,-1.853847 -18.166503,12.653434 -19.278705,25.420104 -1.112238,12.76633 2.965944,27.22563 9.268636,33.89877 6.302728,6.6735 15.942027,12.23469 27.434823,13.71777 11.493145,1.48272 12.605454,14.82971 11.122377,18.90786 -1.482725,4.07804 0.741537,6.67343 5.190418,6.30273 4.448882,-0.37081 6.673498,-1.85389 6.302727,-7.78592 -0.370768,-5.93188 3.336573,-2.9658 3.336573,-0.37069 0,2.59542 -0.741185,5.93192 4.078465,6.30272 4.81965,0.3707 7.0552,-2.22468 6.86435,-7.04423 -0.19121,-4.81968 100.05095,-3.76177 103.13176,-1.88076 3.0808,1.88076 -1.21779,5.21769 1.67287,7.81265 2.89066,2.59542 8.75383,1.16212 8.97361,-0.90205 0.51646,-4.8489 -0.52176,-8.36648 2.07362,-9.10802 2.59504,-0.7415 1.97732,9.26857 6.79697,9.26857 4.81965,0 5.3587,-2.07645 4.10034,-12.90179 -1.25801,-10.82569 -2.37031,-31.2166 -1.62878,-33.81163 0.74154,-2.59539 10.99997,13.71741 24.40799,10.75126 13.40767,-2.96581 11.55418,-14.82972 9.32956,-18.90784 -2.22426,-4.07811 -10.03794,-14.01586 -12.06323,-16.64723 -2.02495,-2.63137 -7.21537,2.31811 -8.32767,5.96054 -1.11231,3.64278 11.8558,3.62549 15.20049,14.76481 3.34468,11.13931 -11.12238,12.60545 -20.39091,4.07846 -9.26853,-8.52734 -17.05399,-30.77175 -28.54713,-40.78217 C 202.04626,91.312751 169.15079,79.819957 141.66552,83.156529 114.1799,86.493101 86.74508,90.200796 78.959274,139.13883"
       style="fill:#7d7c7f;fill-opacity:1;fill-rule:nonzero;stroke:none;stroke-width:0.0352777"
       id="path490" />
    <path
       d="m 126.41459,96.132754 c -1.46156,7.307086 11.49314,8.355896 9.26853,21.602696 -2.22462,13.24716 -10.75161,11.02255 -15.94203,11.39331 -5.19042,0.37077 -15.94203,7.41504 0,22.24476 15.94203,14.82972 48.19685,1.11231 51.53342,-20.02014 3.33657,-21.13245 -5.56119,-37.816012 -20.02014,-41.152584 -14.45895,-3.336925 -23.72747,0.370769 -24.83978,5.931958"
       style="fill:#d3d2d2;fill-opacity:1;fill-rule:nonzero;stroke:none;stroke-width:0.0352777"
       id="path492" />
    <path
       d="m 111.0991,105.4154 c -3.29142,1.8616 -2.96475,5.55554 0.53727,4.78966 3.50203,-0.76553 2.75449,-6.65092 -0.53727,-4.78966"
       style="fill:#52423b;fill-opacity:1;fill-rule:nonzero;stroke:none;stroke-width:0.0352777"
       id="path494" />
    <path
       d="m 83.067372,186.11786 c -0.01093,0.0321 -0.01871,0.0744 -0.02999,0.10555 -1.482725,4.07804 0.741537,6.67343 5.190418,6.30273 3.645959,-0.30385 5.795082,-1.35929 6.249107,-4.99333 -4.891972,0.26572 -8.83144,-0.57986 -11.40954,-1.41495"
       style="fill:#d3d2d2;fill-opacity:1;fill-rule:nonzero;stroke:none;stroke-width:0.0352777"
       id="path496" />
    <path
       d="m 97.828299,186.18524 c -0.01199,2.12686 0.378179,4.19943 4.117271,4.48701 3.97616,0.30579 6.16585,-1.4334 6.71301,-4.74842 -4.71876,0.93416 -8.57638,0.63253 -10.830281,0.26141"
       style="fill:#d3d2d2;fill-opacity:1;fill-rule:nonzero;stroke:none;stroke-width:0.0352777"
       id="path498" />
    <path
       d="m 213.03317,184.51836 c -0.28681,1.62775 -1.1691,3.46989 0.58138,5.04155 2.89066,2.59542 8.75383,1.16212 8.97361,-0.90205 0.11359,-1.06715 0.15063,-2.06485 0.16898,-2.98761 -3.99415,0.13508 -7.30885,-0.46672 -9.72397,-1.15189"
       style="fill:#d3d2d2;fill-opacity:1;fill-rule:nonzero;stroke:none;stroke-width:0.0352777"
       id="path500" />
    <path
       d="m 227.38276,184.3709 c 0.76024,2.25602 1.82104,4.44751 4.07599,4.44751 3.14678,0 4.46123,-0.90385 4.64961,-4.53253 -3.66289,0.54723 -6.69642,0.37151 -8.7256,0.085"
       style="fill:#d3d2d2;fill-opacity:1;fill-rule:nonzero;stroke:none;stroke-width:0.0352777"
       id="path502" />
    <path
       d="m 267.66786,133.94841 c -2.22426,-4.07811 -10.03794,-14.01586 -12.06323,-16.64723 -2.02495,-2.63137 -7.21537,2.31811 -8.32767,5.96054 -1.11231,3.64278 11.8558,3.62549 15.20049,14.76481 l 0.009,0.0339 c 2.14876,-0.11466 4.3882,-0.13159 6.52744,0.0328 -0.28222,-1.68381 -0.80186,-3.14749 -1.34584,-4.14479"
       style="fill:#d3d2d2;fill-opacity:1;fill-rule:nonzero;stroke:none;stroke-width:0.0352777"
       id="path504" />
  </g>
</svg>
