<?xml version="1.0" encoding="UTF-8" standalone="no"?>
<svg
   xmlns:dc="http://purl.org/dc/elements/1.1/"
   xmlns:cc="http://creativecommons.org/ns#"
   xmlns:rdf="http://www.w3.org/1999/02/22-rdf-syntax-ns#"
   xmlns:svg="http://www.w3.org/2000/svg"
   xmlns="http://www.w3.org/2000/svg"
   id="svg892"
   version="1.1"
   viewBox="0 0 85.339142 92.424843"
   height="92.424843mm"
   width="85.339142mm">
  <defs
     id="defs886" />
  <metadata
     id="metadata889">
    <rdf:RDF>
      <cc:Work
         rdf:about="">
        <dc:format>image/svg+xml</dc:format>
        <dc:type
           rdf:resource="http://purl.org/dc/dcmitype/StillImage" />
        <dc:title></dc:title>
      </cc:Work>
    </rdf:RDF>
  </metadata>
  <g
     transform="translate(172.69338,46.212422)"
     id="layer1">
    <path
       d="m -110.11996,33.195204 c -2.1844,-0.4572 -5.41796,0.09102 -7.15645,1.510593 0.20038,-0.163689 -0.10971,-1.855964 -0.16368,-2.162881 -0.15699,-0.889 -0.3863,-1.786467 -0.73378,-2.620079 -1.3836,-3.318581 -4.55295,-4.685593 -7.81897,-5.571418 -2.09515,-0.567974 -4.24744,-0.948267 -6.41703,-1.023057 -3.23532,-0.111477 -6.47171,0.845257 -8.21161,3.92924 -0.60466,1.071737 -0.83255,2.3622 -0.89499,3.577164 -0.0205,0.397933 -0.50624,2.790473 -0.0656,3.044121 -1.155,-0.66534 -2.45604,-1.180042 -3.73627,-1.552929 -2.52519,-0.735894 -5.74217,-1.699684 -8.24851,-0.449792 -1.93975,0.967671 -2.73639,3.368323 -1.55155,5.258858 0.50697,0.808567 1.39142,1.297871 2.27376,1.661584 1.38373,0.569737 2.86787,0.575029 4.33895,0.524581 2.76472,-0.09525 5.43631,-0.541515 8.06732,0.605015 -1.47531,-0.643115 -4.97205,0.730954 -4.24603,2.736495 0.36583,1.011063 1.58362,0.34925 2.30717,0.264232 0.95426,-0.112184 1.89406,-0.327025 2.85044,-0.420511 5.24369,-0.510471 10.51877,-0.720021 15.7861,-0.600075 2.61585,0.05927 5.23028,0.200377 7.83696,0.430388 1.0167,0.08961 1.99813,0.41275 3.01519,0.499533 0.78952,0.06738 3.62585,0.705556 2.92806,-1.029758 -0.67593,-1.681692 -2.69664,-2.100438 -4.32435,-2.265538 0.6865,0.0695 1.51094,-0.127706 2.19992,-0.159808 1.80763,-0.08361 5.80213,-1.142296 5.10046,-3.73239 -0.35666,-1.317273 -1.88877,-2.192514 -3.13549,-2.453568"
       style="fill:#72bc2d;fill-opacity:1;fill-rule:nonzero;stroke:none;stroke-width:0.0352777"
       id="path422" />
    <path
       d="m -142.62173,35.805758 c -2.38865,-1.245659 -5.24721,-1.764242 -8.16045,-1.478138 -0.22754,0.02151 -0.39441,0.222954 -0.37324,0.45085 0.0215,0.226836 0.2159,0.386292 0.4505,0.372534 2.76824,-0.271288 5.45429,0.216252 7.70114,1.388179 2.5467,1.329266 4.61998,3.303764 6.07941,5.752041 0.30586,-0.02434 0.61102,-0.05433 0.91688,-0.0762 -1.54411,-2.742493 -3.80895,-4.945591 -6.61424,-6.409266"
       style="fill:#5f9e31;fill-opacity:1;fill-rule:nonzero;stroke:none;stroke-width:0.0352777"
       id="path424" />
    <path
       d="m -135.81382,35.600795 c 0.078,-0.309739 0.27411,1.964619 0.30339,2.187927 0.16933,1.299986 0.44873,2.569282 0.78634,3.836459 0.34149,1.283758 0.78458,2.665235 1.52047,3.782131 0.96767,1.467908 1.50954,0.428271 1.92652,-1.057275 0.78282,-2.790121 1.24319,-5.858581 1.25307,-8.749242 h -5.78979"
       style="fill:#72bc2d;fill-opacity:1;fill-rule:nonzero;stroke:none;stroke-width:0.0352777"
       id="path426" />
    <path
       d="m -125.1684,36.389958 c -7.9e-4,2.561521 -0.17956,4.920191 0.3803,7.439731 0.14111,0.635706 0.0903,1.634067 0.67027,2.054931 2.51566,1.827036 2.77813,-4.532137 2.98697,-5.56895 0.33479,-1.662641 0.46355,-3.367616 0.37783,-5.061656 l -4.41537,1.135944"
       style="fill:#72bc2d;fill-opacity:1;fill-rule:nonzero;stroke:none;stroke-width:0.0352777"
       id="path428" />
    <path
       d="m -131.38011,42.104958 c -0.049,0.232129 -0.0977,0.465666 -0.13547,0.709437 -0.0663,0.429684 -0.22436,2.202392 -0.85795,2.293761 -0.2533,0.03669 -0.48049,-0.324909 -0.59972,-0.499886 -0.31574,-0.462139 -0.54469,-1.006829 -0.72567,-1.535289 -0.22472,-0.657932 -0.35701,-1.342319 -0.55104,-2.009423 -0.43815,-1.504244 -0.69391,-3.066344 -0.70379,-4.634794 -0.002,-0.272344 -0.008,-0.574675 -0.19826,-0.769408 -0.63571,-0.65264 -0.52035,0.589491 -0.49177,0.837493 0.0497,0.429684 0.0773,0.862542 0.13335,1.291873 0.16933,1.299986 0.44873,2.569282 0.78634,3.836459 0.34149,1.283758 0.78458,2.665235 1.52047,3.782131 0.96767,1.467908 1.50954,0.428271 1.92652,-1.057629 0.41311,-1.472494 0.72567,-2.973917 0.93839,-4.488392 0.11254,-0.801158 0.19685,-1.60655 0.24977,-2.413704 0.0272,-0.414515 0.12312,-0.825148 0.11712,-1.241425 -0.005,-0.379238 -0.3362,-0.76694 -0.43603,-0.197204 -0.17816,1.021998 -0.34361,2.020358 -0.47625,3.051881 -0.13088,1.019881 -0.28469,2.037644 -0.49601,3.044119"
       style="fill:#5f9e31;fill-opacity:1;fill-rule:nonzero;stroke:none;stroke-width:0.0352777"
       id="path430" />
    <path
       d="m -120.92342,35.765895 c -0.054,0.006 -0.10725,0.03986 -0.1397,0.08537 -0.0483,0.06668 -0.0624,0.152048 -0.0744,0.23354 -0.15523,1.037873 -0.29669,2.097968 -0.39406,3.135135 -0.12629,1.346906 -0.25541,2.694871 -0.49177,4.028371 -0.10795,0.6096 -0.41028,2.504369 -1.26859,2.497667 -1.25553,-0.01024 -1.01564,-2.462742 -1.09255,-3.202871 -0.133,-1.277054 -0.21343,-2.559402 -0.33972,-3.837517 -0.0448,-0.45226 -0.0808,-0.905579 -0.14676,-1.354667 -0.0459,-0.309737 -0.066,-0.921454 -0.28575,-1.172985 -0.25718,-0.293865 -0.29951,0.0095 -0.3108,0.321381 -0.0145,0.398992 0.13512,0.785988 0.14006,1.183569 0.008,0.705202 0.12488,1.405467 0.13405,2.110317 0.0166,1.355018 0.11077,2.710391 0.40534,4.036483 0.14111,0.635706 0.0903,1.634067 0.67028,2.054931 2.51566,1.826684 2.77813,-4.532137 2.98697,-5.56895 0.16898,-0.839612 0.25612,-1.691923 0.31679,-2.545291 0,-0.58773 0.10372,-1.161698 0.072,-1.745898 -0.005,-0.09384 -0.0208,-0.204611 -0.10512,-0.24624 -0.024,-0.01164 -0.0501,-0.01516 -0.0762,-0.01236"
       style="fill:#5f9e31;fill-opacity:1;fill-rule:nonzero;stroke:none;stroke-width:0.0352777"
       id="path432" />
    <path
       d="m -117.07285,42.253124 c 1.2326,-3.331985 3.33445,-5.69242 7.41644,-6.684785 0.22225,-0.05397 0.35772,-0.277635 0.30445,-0.499533 -0.054,-0.221898 -0.27446,-0.359127 -0.49988,-0.304094 -4.63727,1.127125 -6.85518,3.99556 -8.07826,7.427383 0.28575,0.02011 0.5715,0.0388 0.85725,0.06103"
       style="fill:#5f9e31;fill-opacity:1;fill-rule:nonzero;stroke:none;stroke-width:0.0352777"
       id="path434" />
    <path
       d="m -88.501031,-15.105365 c -0.18556,-0.74295 -0.392993,-1.483077 -0.6223,-2.218973 -2.267302,-7.273924 -6.876695,-14.372518 -13.544899,-19.89596 -7.02028,-5.815541 -14.67379,-7.948083 -24.62777,-8.851194 -18.82069,-1.707797 -35.27718,12.432947 -41.38687,24.676805 -3.18794,6.389157 -4.33941,13.317007 -3.93153,20.123856 0.62012,10.350851 9.27573,19.168533 20.8219,24.239008 15.78077,6.930318 42.0539,5.412317 54.471674,-5.414433 4.014962,-3.500615 6.272387,-7.95655 7.971718,-12.357807 2.371725,-6.14397705 2.595385,-13.308893 0.848077,-20.301302"
       style="fill:#94ce41;fill-opacity:1;fill-rule:nonzero;stroke:none;stroke-width:0.0352777"
       id="path436" />
    <path
       d="m -155.35309,-37.420676 c -2.65849,-2.187575 -6.11476,-2.74708 -8.47012,1.156406 -1.24506,2.06375 -0.82723,4.858455 0.63941,6.711244 1.63752,2.069042 4.27814,3.686175 7.08187,3.500261 7.13303,-0.473075 4.9264,-7.930091 0.74884,-11.367911"
       style="fill:#94ce41;fill-opacity:1;fill-rule:nonzero;stroke:none;stroke-width:0.0352777"
       id="path438" />
    <path
       d="m -93.838206,-31.778701 c -1.080558,1.400528 -2.748137,2.474031 -4.61645,2.708981 -1.868664,0.235303 -3.904894,-0.460375 -4.945234,-1.885597 -0.83115,-1.138767 -0.96944,-2.595387 -0.74754,-3.945467 0.44133,-2.687461 3.32952,-6.660797 6.826604,-6.711244 5.485693,-0.07867 5.888566,6.714419 3.48262,9.833327"
       style="fill:#94ce41;fill-opacity:1;fill-rule:nonzero;stroke:none;stroke-width:0.0352777"
       id="path440" />
    <path
       d="m -153.00214,-16.302692 c 1.57826,-1.061156 2.07673,-2.646539 -0.11896,-4.244623 -2.71113,-1.97238 -10.96447,-1.649589 -9.24606,2.953102 1.25607,3.364442 6.76988,3.036358 9.36502,1.291521"
       style="fill:#cbe36b;fill-opacity:1;fill-rule:nonzero;stroke:none;stroke-width:0.0352777"
       id="path442" />
    <path
       d="m -100.43374,-20.506393 c -2.22955,0.509764 -4.34834,1.88701 -3.92148,3.790951 0.65547,2.918529 4.694419,3.102327 7.265814,2.472267 1.89865,-0.465315 2.785182,-3.07975 1.977673,-4.646438 -0.865365,-1.678516 -3.439231,-2.046816 -5.322007,-1.61678"
       style="fill:#cbe36b;fill-opacity:1;fill-rule:nonzero;stroke:none;stroke-width:0.0352777"
       id="path444" />
    <path
       d="m -96.518258,-33.379254 c 2.696282,-0.686152 0.740482,-5.773913 -2.134306,-3.853391 -1.980146,1.323269 -0.203904,4.448528 2.134306,3.853391"
       style="fill:#131210;fill-opacity:1;fill-rule:nonzero;stroke:none;stroke-width:0.0352777"
       id="path446" />
    <path
       d="m -158.51775,-31.172981 c 3.41436,-0.305859 2.21283,-5.910792 -1.41139,-3.802592 -2.08083,1.210381 -1.0462,4.022372 1.41139,3.802592"
       style="fill:#131210;fill-opacity:1;fill-rule:nonzero;stroke:none;stroke-width:0.0352777"
       id="path448" />
    <path
       d="m -100.64752,-15.880771 c 0.26105,-0.147812 -0.0931,-0.940859 -0.20496,-1.213909 -0.18627,-0.455083 -0.34467,-1.00471 -0.63994,-1.41605 -0.0885,-0.123825 -0.2085,-0.257175 -0.37113,-0.258937 -0.18132,-0.0019 -0.31291,0.175329 -0.31044,0.339725 0.008,0.602896 0.47519,2.175934 1.11019,2.480379 0.20743,0.09984 0.33902,0.11289 0.41628,0.06879"
       style="fill:#94ce41;fill-opacity:1;fill-rule:nonzero;stroke:none;stroke-width:0.0352777"
       id="path450" />
    <path
       d="m -97.929723,-16.14994 c 0.504122,-0.425098 -0.283985,-3.05435 -1.008943,-2.895248 -0.802923,0.177096 0.318206,2.117373 0.4826,2.49414 0.195792,0.448733 0.386998,0.518583 0.526343,0.401108"
       style="fill:#94ce41;fill-opacity:1;fill-rule:nonzero;stroke:none;stroke-width:0.0352777"
       id="path452" />
    <path
       d="m -158.25387,-16.725673 c 0.0189,-0.560565 -0.59944,-3.652661 -1.70448,-3.159831 -0.82889,0.369358 0.63623,2.685346 0.93362,3.141487 0.0759,0.116769 0.16013,0.236361 0.28882,0.305859 0.12873,0.06914 0.31475,0.06985 0.40859,-0.03422 0.0617,-0.06914 0.0703,-0.164393 0.0734,-0.253293"
       style="fill:#94ce41;fill-opacity:1;fill-rule:nonzero;stroke:none;stroke-width:0.0352777"
       id="path454" />
    <path
       d="m -154.82625,-17.199455 c 0.0192,-0.56021 -0.59919,-3.65266 -1.70437,-3.159829 -0.82875,0.369711 0.63623,2.685344 0.93362,3.141838 0.0761,0.116771 0.16013,0.236363 0.28882,0.305858 0.12873,0.06915 0.31475,0.06985 0.40859,-0.03457 0.0619,-0.06879 0.0704,-0.164042 0.0733,-0.253297"
       style="fill:#94ce41;fill-opacity:1;fill-rule:nonzero;stroke:none;stroke-width:0.0352777"
       id="path456" />
    <path
       d="m -155.18538,-7.773231 c 9.59785,10.951278 25.26083,13.302895 38.8075,9.743368 4.21534,-1.10772305 8.27758,-2.73720205 12.15849,-4.71311 0.58349,-0.297392 0.0691,-1.175457 -0.51365,-0.878771 -12.61815,6.425141 -28.02114,8.912931 -40.99454,2.014008 -3.30553,-1.757537 -6.26971,-4.068231 -8.73848,-6.885162 -0.43226,-0.493183 -1.14953,0.2286 -0.71932,0.719667 v 0"
       style="fill:#131210;fill-opacity:1;fill-rule:nonzero;stroke:none;stroke-width:0.0352777"
       id="path458" />
  </g>
</svg>
