<?xml version="1.0" encoding="UTF-8" standalone="no"?>
<svg
   xmlns:dc="http://purl.org/dc/elements/1.1/"
   xmlns:cc="http://creativecommons.org/ns#"
   xmlns:rdf="http://www.w3.org/1999/02/22-rdf-syntax-ns#"
   xmlns:svg="http://www.w3.org/2000/svg"
   xmlns="http://www.w3.org/2000/svg"
   id="svg681"
   version="1.1"
   viewBox="0 0 78.982643 117.93536"
   height="117.93536mm"
   width="78.982643mm">
  <defs
     id="defs675" />
  <metadata
     id="metadata678">
    <rdf:RDF>
      <cc:Work
         rdf:about="">
        <dc:format>image/svg+xml</dc:format>
        <dc:type
           rdf:resource="http://purl.org/dc/dcmitype/StillImage" />
        <dc:title></dc:title>
      </cc:Work>
    </rdf:RDF>
  </metadata>
  <g
     transform="translate(47.050849,-21.919223)"
     id="layer1">
    <path
       d="m 22.808645,131.3597 c -3.559175,6.10553 -11.977158,7.2891 -18.3126941,7.82285 -4.59528305,0.38806 -9.215612,0.42404 -13.81901,0.17709 -6.9476059,-0.37112 -18.1334829,-0.2741 -20.4582879,-8.81873 -0.797631,-2.92841 -0.371475,-6.95996 -0.342195,-10.01289 0.09102,-9.43293 1.286934,-18.97098 3.021542,-28.342875 0.732014,-3.953578 1.558925,-7.877878 2.440517,-11.753495 17.5069489,-14.188369 38.982295,-1.415346 38.982295,-1.415346 1.550812,2.964039 2.884312,6.031441 4.023783,9.172929 2.670881,7.34201 4.295071,15.078777 5.202767,22.813077 0.48895,4.1649 0.767998,8.3566 0.835379,12.55113 0.04621,2.84409 -0.09313,5.26379 -1.574096,7.80626"
       style="fill:#f57691;fill-opacity:1;fill-rule:nonzero;stroke:none;stroke-width:0.0352777"
       id="path22" />
    <path
       d="M 18.344595,88.189233 C 12.713558,95.56511 6.1201409,99.632637 -5.9388611,98.5863 -12.608126,98.008095 -21.156989,96.43012 -27.102,92.185145 c 0.732014,-3.953578 1.558925,-7.877878 2.440517,-11.753495 17.5069489,-14.188369 38.982295,-1.415346 38.982295,-1.415346 1.550812,2.964039 2.884312,6.031441 4.023783,9.172929"
       style="fill:#ef5579;fill-opacity:1;fill-rule:nonzero;stroke:none;stroke-width:0.0352777"
       id="path24" />
    <path
       d="m -20.402399,101.54152 c 0,0 -2.106787,33.65535 0.935567,35.47674 1.265063,2.09691 4.301421,2.04823 6.135158,0.75882 2.68605,-1.88912 2.488142,-6.04308 2.839157,-8.92175 0.432506,-3.55176 0.8657159,-7.10388 1.2982229,-10.656 0.583493,-4.78437 1.166283,-9.56874 1.749425,-14.35347 -0.753533,4.47005 -1.506363,8.93974 -2.259896,13.40979 -0.5799669,3.44029 -1.1595789,6.88058 -1.7395459,10.32157 -0.385233,2.28812 -0.267758,4.79531 -1.277056,6.93773 -1.200857,2.55093 -4.467932,3.2706 -5.754865,0.49883 -0.92357,-1.98861 -0.300567,-4.50039 -0.511879,-6.60683 -0.2159,-2.1463 -0.404283,-4.29436 -0.559154,-6.44631 -0.490009,-6.79484 -0.728134,-13.60804 -0.855134,-20.41912"
       style="fill:#d04665;fill-opacity:1;fill-rule:nonzero;stroke:none;stroke-width:0.0352777"
       id="path26" />
    <path
       d="m -1.0920491,102.88313 1.74307495,35.01355 c 0,0 2.05458005,2.85185 5.16114005,1.67181 0,0 4.3324651,-0.23354 5.1025771,-6.32919 l -1.0336371,-29.94271 -0.91158,28.96869 c 0,0 -0.07055,6.66256 -4.783312,5.04402 0,0 -1.556104,0.66181 -2.1336,-3.1429 l -3.144663,-31.28327"
       style="fill:#d04665;fill-opacity:1;fill-rule:nonzero;stroke:none;stroke-width:0.0352777"
       id="path28" />
    <path
       d="m 7.0786389,32.442584 c 3.7002851,-4.942416 9.4689061,-7.821083 15.0216291,-10.523361 1.91911,3.291417 3.351742,6.9215 3.70205,10.713861 0.350308,3.792361 -0.446617,7.761111 -2.642658,10.872611 L 7.0786389,32.442584"
       style="fill:#d04665;fill-opacity:1;fill-rule:nonzero;stroke:none;stroke-width:0.0352777"
       id="path30" />
    <path
       d="m -37.829972,51.806556 c -5.328003,-4.596695 -7.316258,-11.867445 -9.037108,-18.690167 -0.161572,-0.642055 -0.315384,-1.354666 -0.0025,-1.936749 0.176742,-0.328084 8.879417,2.07786 9.713736,2.33186 3.328811,1.005417 6.282972,2.384778 8.855075,4.769556 l -9.529233,13.5255"
       style="fill:#d04665;fill-opacity:1;fill-rule:nonzero;stroke:none;stroke-width:0.0352777"
       id="path32" />
    <path
       d="M -15.418352,28.928918 C -7.5870401,27.546029 0.56142285,28.495001 8.0942849,31.042056 20.272878,35.1625 32.414433,44.860361 31.917016,58.674081 c -0.296333,8.254646 -3.507671,16.397462 -9.025821,22.543911 -5.51815,6.1468 -13.3194771,10.226675 -21.5314371,11.116378 -4.842934,0.524934 -9.741607,-0.0254 -14.5369149,-0.88406 -6.527094,-1.169106 -13.132857,-2.996493 -18.420996,-6.997348 -8.204553,-6.208183 -13.178013,-13.936837 -12.102041,-24.741362 1.547636,-15.546211 13.307483,-28.140377 28.281842,-30.782682"
       style="fill:#f57691;fill-opacity:1;fill-rule:nonzero;stroke:none;stroke-width:0.0352777"
       id="path34" />
    <path
       d="m -7.6300771,60.858127 c 0.221543,1.50989 0.443087,3.019425 0.664633,4.529315 0.254,1.731433 0.526343,3.514725 1.43016,5.013325 0.903817,1.4986 2.610557,2.655358 4.33705,2.371725 2.12019395,-0.348544 3.3782,-2.645482 3.626557,-4.779786 0.248353,-2.133954 -0.183799,-4.308475 0.112535,-6.436431 l -10.170935,-0.698148"
       style="fill:#d04665;fill-opacity:1;fill-rule:nonzero;stroke:none;stroke-width:0.0352777"
       id="path36" />
    <path
       d="m 11.92016,51.026917 c -3.2187441,-12.999861 -31.035977,-15.088306 -31.563734,0.254 -0.189441,5.5245 4.660197,10.171641 9.9546839,11.763375 6.684433,2.009775 14.395804,0.102658 19.373498,-4.790724 0.9916581,-0.975428 1.9014701,-2.097262 2.2923501,-3.432526 0.358775,-1.228374 0.250825,-2.552349 -0.0568,-3.794125"
       style="fill:#f8a2bb;fill-opacity:1;fill-rule:nonzero;stroke:none;stroke-width:0.0352777"
       id="path38" />
    <path
       d="M 5.5525229,50.469527 C 5.1704639,50.03914 4.6860989,49.704 4.1325909,49.538193 c -0.269523,-0.08114 -0.594783,-0.137583 -0.868185,-0.148166 -0.226483,-0.02469 -0.219075,-0.01765 0.02082,0.02117 -0.08608,-0.02117 -0.173919,-0.0388 -0.262819,-0.04586 -0.860777,-0.116416 -1.622777,0.0141 -2.18898505,0.74436 -0.547513,0.709084 -0.51788,1.52753 -0.162983,2.314224 0.40569305,0.899583 1.53634505,1.526823 2.46450305,1.74766 1.051632,0.250121 2.274713,0.276579 3.2258,-0.294217 0.875597,-0.525637 1.426634,-1.693333 1.099963,-2.702277 -0.319265,-0.987777 -1.226256,-1.788583 -2.308225,-1.756833 -0.266348,0.0071 -0.546806,0.03528 -0.806804,0.08819 -0.0448,0.01058 -0.298096,0.05645 -0.318559,0.0882 0.04763,-0.07056 0.522817,-0.01058 0.14464,-0.02117 -0.09419,-0.0035 -0.541867,-0.0635 -0.184502,0.02117 0.343959,0.07761 -0.02893,-0.0141 -0.09842,-0.02822 -0.108304,-0.02117 -0.214841,-0.04233 -0.321029,-0.07408 -0.363361,-0.10936 -0.715434,-0.17639 -1.098902,-0.201083 0.599368,1.044223 1.19874,2.088443 1.797756,3.132667 -0.178858,0.208139 -0.188738,0.239889 -0.02858,0.09172 -0.270581,0.15875 -0.541163,0.3175 -0.811741,0.47625 0.101951,-0.04233 0.20602,-0.07056 0.31256,-0.09525 -0.198967,0.01765 -0.192617,0.02117 0.01905,0.01058 0.106891,-0.0035 0.213431,-0.0071 0.319616,-0.01058 0.185915,0.0071 0.205669,0.01058 0.05927,0.0035 1.439333,0.29986 2.398183,-1.322917 1.415698,-2.43064 v 0"
       style="fill:#d04665;fill-opacity:1;fill-rule:nonzero;stroke:none;stroke-width:0.0352777"
       id="path40" />
    <path
       d="m -16.629086,50.652973 c -0.321029,1.326444 0.722842,2.20486 1.746602,2.815167 0.237067,0.141816 0.43674,0.31397 0.151694,0.0141 0.498829,0.522465 1.20015,0.74789 1.906058,0.748948 1.171223,0.0013 2.262365,-0.745421 2.578806,-1.895475 0.3030359,-1.100667 -0.270226,-2.226029 -1.195916,-2.822223 -0.513292,-0.33161 -1.241425,-0.41275 -1.826684,-0.33161 -0.339018,0.0141 -0.654401,0.112887 -0.946856,0.29986 0.307271,-0.127 0.324556,-0.155223 0.05151,-0.09172 0.06491,-0.01058 0.129824,-0.02117 0.195086,-0.03175 -0.135819,0.0141 -0.271637,0.02468 -0.407811,0.03175 -0.294568,0.02117 -0.60325,0.03175 -0.892526,0.102306 -0.551747,0.134057 -1.215322,0.564444 -1.359959,1.16064 v 0"
       style="fill:#d04665;fill-opacity:1;fill-rule:nonzero;stroke:none;stroke-width:0.0352777"
       id="path42" />
    <path
       d="m 15.923835,38.577389 c -1.113367,0.511528 -1.427692,1.9685 -1.151115,3.058583 0.247298,0.977195 1.360313,1.464028 2.25919,1.086556 0.418393,-0.176389 0.708377,-0.469195 0.884766,-0.885472 0.220134,-0.522111 0.148519,-0.987778 -0.08431,-1.49225 -0.0113,-0.02117 -0.02257,-0.04586 -0.03351,-0.07056 0.05574,0.134056 0.111829,0.264584 0.167569,0.398639 -0.03881,-0.102305 -0.06632,-0.204611 -0.08502,-0.310444 0.01976,0.144639 0.03916,0.289277 0.05856,0.433916 -0.01164,-0.109361 -0.01376,-0.211666 -0.0053,-0.321027 -0.01905,0.141111 -0.03845,0.282222 -0.0575,0.426861 0.03104,-0.229306 0.10936,-0.462139 0.183796,-0.680861 0.187679,-0.546806 -0.08819,-1.192389 -0.521404,-1.527528 -0.49248,-0.381 -1.068213,-0.366889 -1.615723,-0.116417 v 0"
       style="fill:#211d1d;fill-opacity:1;fill-rule:nonzero;stroke:none;stroke-width:0.0352777"
       id="path44" />
    <path
       d="m -27.796267,39.741556 c -0.462491,-0.127 -0.942622,-0.04939 -1.3589,0.179916 -0.39758,0.218723 -0.722841,0.680862 -0.811036,1.128889 -0.09631,0.490361 -0.06562,0.994834 0.192617,1.435806 0.250119,0.426861 0.656519,0.758472 1.140883,0.878416 0.968022,0.246945 1.935692,-0.381 2.069747,-1.375833 0.133703,-0.998361 -0.625122,-1.855611 -1.628775,-1.880305 -0.01023,0 -0.02011,0 -0.02963,0 0.146403,0.01764 0.293158,0.0388 0.439914,0.05997 -0.01905,-0.0035 -0.03739,-0.0071 -0.05503,-0.01411 0.131586,0.05644 0.262819,0.109361 0.394052,0.165806 -0.01693,-0.0071 -0.03246,-0.01411 -0.04727,-0.02469 0.110772,0.08467 0.221897,0.169333 0.332317,0.257528 -0.01447,-0.01411 -0.02787,-0.02469 -0.03951,-0.03881 0.08502,0.109361 0.170391,0.22225 0.256116,0.331611 -0.01834,-0.02469 -0.03175,-0.04586 -0.04515,-0.07055 0.05468,0.127 0.109361,0.257527 0.163689,0.388055 -0.01482,-0.0388 -0.02469,-0.07408 -0.03034,-0.112889 0.0187,0.141111 0.0381,0.28575 0.0575,0.430389 -0.0025,-0.03175 -0.0028,-0.05997 -7.15e-4,-0.08819 -0.01905,0.141111 -0.0381,0.282222 -0.05715,0.426861 0.02681,-0.179917 0.05645,-0.356306 0.07726,-0.532695 -0.01834,0.141111 -0.0374,0.278695 -0.05645,0.419806 0.0028,-0.01764 0.0074,-0.03175 0.01376,-0.04586 -0.05256,0.123472 -0.105128,0.246944 -0.157339,0.370416 0.0064,-0.01411 0.01482,-0.02822 0.02469,-0.04233 -0.07973,0.102306 -0.160161,0.208139 -0.239889,0.310445 0.01023,-0.01411 0.02222,-0.02469 0.03634,-0.03528 -0.102305,0.07761 -0.204258,0.15875 -0.306563,0.236361 0.0078,-0.0035 0.01588,-0.01058 0.02328,-0.01411 0.513997,-0.328084 0.799394,-0.885472 0.71755,-1.495778 -0.07867,-0.585611 -0.497417,-1.090083 -1.075972,-1.248833 v 0"
       style="fill:#211d1d;fill-opacity:1;fill-rule:nonzero;stroke:none;stroke-width:0.0352777"
       id="path46" />
  </g>
</svg>
