<?xml version="1.0" encoding="UTF-8" standalone="no"?>
<svg
   xmlns:dc="http://purl.org/dc/elements/1.1/"
   xmlns:cc="http://creativecommons.org/ns#"
   xmlns:rdf="http://www.w3.org/1999/02/22-rdf-syntax-ns#"
   xmlns:svg="http://www.w3.org/2000/svg"
   xmlns="http://www.w3.org/2000/svg"
   id="svg1594"
   version="1.1"
   viewBox="0 0 106.90241 125.19003"
   height="125.19003mm"
   width="106.90241mm">
  <defs
     id="defs1588" />
  <metadata
     id="metadata1591">
    <rdf:RDF>
      <cc:Work
         rdf:about="">
        <dc:format>image/svg+xml</dc:format>
        <dc:type
           rdf:resource="http://purl.org/dc/dcmitype/StillImage" />
        <dc:title></dc:title>
      </cc:Work>
    </rdf:RDF>
  </metadata>
  <g
     transform="translate(102.5881,-31.143079)"
     id="layer1">
    <path
       d="m -27.899947,135.01181 c 0.03246,0.0565 0.05151,0.12347 0.07549,0.18341 1.024115,2.62819 1.754716,5.4047 2.596798,8.09283 0.446617,1.42875 0.918985,2.84688 1.388533,4.26861 0.229307,0.69494 0.457907,1.38645 0.682625,2.08139 0.03457,0.10925 0.284692,1.5839 0.300567,1.59452 0.42404,0.23992 0.90311,0.45861 1.347965,0.66326 0.656166,0.29986 1.345493,0.52556 1.985433,0.8643 0.398992,0.20807 0.651227,0.94188 0.02257,1.03368 -0.260702,0.0387 -0.514702,-0.0848 -0.749652,-0.20465 -0.754592,-0.37744 -1.529998,-0.70916 -2.299758,-1.06193 -0.07585,0.55742 -0.01553,1.09019 0.0078,1.65103 0.024,0.57148 0.263525,1.26297 0.06703,1.82039 -0.123825,0.35278 -0.654754,0.43381 -0.925335,0.20808 -0.345017,-0.2858 -0.282223,-1.13591 -0.304094,-1.55925 -0.01304,-0.24694 -0.02611,-0.49388 -0.03881,-0.74442 -0.02716,-0.51855 -0.05398,-1.04069 -0.0011,-1.55578 -0.0095,0.0918 -1.483431,0.32106 -1.621014,0.3423 -0.684742,0.10583 -1.376892,0.17639 -2.070452,0.15515 -0.158044,-0.004 -0.332669,-0.0211 -0.439209,-0.13751 -0.504825,-0.55041 0.689327,-0.78314 1.013532,-0.85369 0.858308,-0.18359 1.674635,-0.4093 2.523066,-0.62798 -0.06562,-0.42333 -0.117475,-0.90318 -0.238479,-1.32652 -0.126646,-0.44097 -0.333727,-0.85368 -0.472369,-1.2912 -0.392993,-1.23818 -0.785635,-2.4765 -1.178631,-3.71464 -0.97931,-3.09041 -1.959327,-6.18063 -2.938992,-9.26744 -0.08819,-0.2788 -0.176387,-0.55742 -0.264583,-0.83622 l 1.531056,0.22228"
       style="fill:#48433e;fill-opacity:1;fill-rule:nonzero;stroke:none;stroke-width:0.0352777"
       id="path338" />
    <path
       d="m -51.690926,134.52494 c -1.169106,2.33193 -2.093383,4.81902 -3.123848,7.21089 -0.423333,0.98417 -0.801864,1.98959 -1.202973,2.98097 -0.153104,0.38103 -1.22696,2.43057 -1.047043,2.67049 0.559858,0.74785 5.148791,3.14674 4.189589,4.31793 -0.778581,0.9525 -2.162881,-0.81139 -2.632781,-1.23472 -0.267758,-0.23989 -1.716969,-1.22051 -1.743427,-1.5875 0.06703,0.93144 0.892527,5.23173 -0.06456,5.50693 -0.224721,0.0635 -0.472017,-0.0282 -0.644525,-0.187 -0.65264,-0.59973 -0.715434,-1.70738 -0.762707,-2.52939 -0.02999,-0.52215 -0.06103,-1.04429 -0.09737,-1.56284 -0.01834,-0.26098 0.09737,-0.85729 -0.05115,-1.05833 -0.05257,-0.074 -3.626557,1.5875 -4.247446,1.50632 -0.886529,-0.11627 -0.7747,-0.82183 -0.245534,-1.23472 0.6731,-0.52917 1.535642,-0.74425 2.29094,-1.12183 0.493183,-0.24681 2.07786,-0.83951 2.293408,-1.36166 l 5.998282,-14.50618 1.091141,2.19064"
       style="fill:#48433e;fill-opacity:1;fill-rule:nonzero;stroke:none;stroke-width:0.0352777"
       id="path340" />
    <path
       d="m -32.019332,57.454713 c 4.824587,2.521302 9.934575,0.794102 15.038562,0.685094 2.7813,-0.05891 4.055533,-0.04022 6.207125,-2.201685 1.8813652,-1.890184 3.1478382,-4.354689 3.6893502,-6.959248 0.475192,-2.284588 -0.04621,-3.915127 -1.81892,-5.449711 -2.0813902,-1.801283 -4.0594152,-0.413455 -5.1008152,1.705681 -1.378657,2.804936 -1.340202,7.083778 -1.167342,10.155061 -0.296685,-5.272264 -1.073856,-9.473847 -6.395508,-11.943997 -1.89724,-0.880534 -4.103865,-0.408164 -4.374092,2.032 -0.466725,4.212872 6.213123,8.441619 9.012767,10.622844 -4.166307,-3.303411 -10.468327,-8.578497 -15.919098,-5.118805 -1.207559,0.766233 -2.078567,2.213327 -1.787877,3.61315 0.27164,1.3081 1.43651,2.233788 2.615848,2.859616"
       style="fill:#df173f;fill-opacity:1;fill-rule:nonzero;stroke:none;stroke-width:0.0352777"
       id="path342" />
    <path
       d="m -93.076345,52.19903 c 2.735439,-1.069622 5.724878,-1.263297 8.750653,-0.02681 5.252508,2.146653 8.890352,7.415036 11.50126,12.220573 2.148065,3.953934 3.817408,8.155871 5.313892,12.393084 1.115483,3.157714 3.325283,7.373408 3.541535,10.720916 -0.51435,-7.963605 -1.543402,-15.894051 -3.079044,-23.725363 -0.82056,-4.187121 -1.799873,-8.385881 -3.640666,-12.235392 -2.120546,-4.433711 -4.352571,-9.4742 -8.991953,-11.621911 -5.044722,-2.335741 -10.319808,-1.303866 -14.423318,2.335389 -3.970514,3.52037 -7.891994,9.514064 -8.461024,14.793031 -0.0363,0.339019 -0.0554,0.712258 0.1457,0.987425 0.26035,0.357365 0.80327,0.396168 1.20579,0.213077 0.40217,-0.183092 0.69991,-0.531987 0.99484,-0.861483 1.993544,-2.229203 4.444291,-4.137025 7.142335,-5.192536"
       style="fill:#ad7667;fill-opacity:1;fill-rule:nonzero;stroke:none;stroke-width:0.0352777"
       id="path344" />
    <path
       d="m -91.372781,70.18858 c -3.61703,5.154787 -5.023202,11.293121 -4.691239,17.527762 0.136173,2.553407 0.574323,5.08988 1.301045,7.541332 0.245533,0.828675 1.967794,5.651496 3.314347,2.84621 0.77858,-1.621367 0.308327,-4.536721 0.60325,-6.354937 1.085144,-6.689725 6.170083,-15.696496 14.204244,-13.185423 2.294115,0.716843 4.223456,2.287764 5.914319,3.996618 2.394656,2.419705 5.484283,4.264732 6.036381,7.919509 -2.642306,-8.384821 -5.356225,-18.219561 -11.969398,-24.012171 -2.719916,-2.382308 -5.622924,-3.095979 -9.065683,-1.438629 -2.322688,1.118306 -4.166305,3.049058 -5.647266,5.159729"
       style="fill:#ad7667;fill-opacity:1;fill-rule:nonzero;stroke:none;stroke-width:0.0352777"
       id="path346" />
    <path
       d="m -79.921615,32.663255 c 1.008592,1.154642 1.995664,2.200981 3.096331,3.304469 3.039885,3.267428 5.789435,6.979356 7.210777,11.266664 2.218267,6.691842 3.045177,13.761154 3.677002,20.752152 0.572558,6.33095 0.727781,12.696825 0.62089,19.050707 0.01939,-1.152525 2.167466,-3.920773 2.681464,-5.060598 1.92405,-4.267552 3.449461,-8.739011 4.443236,-13.315244 2.487435,-11.450814 1.156052,-24.026989 -8.424334,-31.898872 -1.474258,-1.211439 -3.0988,-2.228145 -4.791427,-3.103386 -2.504723,-1.2954 -5.002036,-2.248606 -7.887406,-2.500136 -0.242005,-0.02117 -0.492477,-0.03387 -0.722136,0.04657 -0.229305,0.08008 -0.434622,0.275167 -0.456494,0.517173 -0.02293,0.25788 0.156986,0.485069 0.326319,0.680508 0.0755,0.08749 0.150636,0.173919 0.225778,0.259997"
       style="fill:#d08c78;fill-opacity:1;fill-rule:nonzero;stroke:none;stroke-width:0.0352777"
       id="path348" />
    <path
       d="m -83.596148,66.971599 c -4.30918,-0.275519 -7.909278,2.450748 -10.568516,5.571418 -1.433336,1.681692 -2.663472,3.530955 -3.786717,5.430663 -0.509763,0.861483 -0.915811,2.050696 -1.563158,2.803877 -2.515301,2.926644 -2.101851,-2.468385 -1.975551,-3.686527 0.30903,-2.979208 0.91792,-5.931606 1.902879,-8.763354 2.195336,-6.309784 5.573889,-11.899546 11.527366,-15.302793 1.406172,-0.803628 2.966508,-1.476022 4.583994,-1.394531 1.23437,0.06209 2.404533,0.559506 3.498497,1.134886 1.955095,1.0287 3.773664,2.338917 5.275793,3.958872 3.766254,4.061882 6.200069,9.040989 7.405156,14.426495 1.375833,6.148917 2.258483,11.905544 2.746375,18.19416 -2.288469,-4.23686 -4.427008,-9.098491 -7.315552,-12.96035 -2.593269,-4.3561 -6.240991,-9.06145 -11.730566,-9.412816"
       style="fill:#d08c78;fill-opacity:1;fill-rule:nonzero;stroke:none;stroke-width:0.0352777"
       id="path350" />
    <path
       d="m -64.220888,89.572659 c -1.237896,-4.028369 -3.933119,-7.592129 -7.472186,-9.880246 -7.696552,-4.975931 -13.490221,6.029677 -15.08266,12.043834 -0.373945,1.411816 -1.001536,2.748491 -1.214614,4.205814 -0.268817,1.838325 0.835378,3.296708 2.372078,1.467556 3.651955,-4.347985 7.318375,-8.300508 13.048896,-9.745485 1.472494,-0.371475 3.019777,-0.575381 4.510617,-0.285398 1.491192,0.289631 2.926292,1.129242 3.671006,2.453217 l 0.166863,-0.259292"
       style="fill:#d08c78;fill-opacity:1;fill-rule:nonzero;stroke:none;stroke-width:0.0352777"
       id="path352" />
    <path
       d="m -27.190157,126.66862 c 0.474837,-0.11988 0.808919,-0.20465 0.935919,-0.24335 0.438501,0.58911 0.561623,1.35118 0.660751,2.08139 0.351367,2.58932 0.567267,5.19631 0.645938,7.80701 0.04515,1.4957 -0.100541,4.0357 -1.302104,5.14695 -2.156884,1.9968 -4.740627,-1.64041 -5.767562,-3.22791 -1.88454,-2.91744 -3.310822,-6.13834 -4.625975,-9.34159 0.02188,0.0529 6.849533,-1.56986 9.453033,-2.2225"
       style="fill:#d08c78;fill-opacity:1;fill-rule:nonzero;stroke:none;stroke-width:0.0352777"
       id="path354" />
    <path
       d="m -43.054222,124.21723 c -1.115483,2.22208 -2.579862,4.33875 -3.950758,6.40952 -1.120775,1.68991 -2.307871,3.25617 -3.550002,4.85429 -1.005065,1.29466 -2.718152,1.45701 -4.06259,0.54681 -0.379235,-0.25757 -0.706966,-1.0866 -0.86007,-1.51335 -0.432155,-1.20304 -0.602546,-2.46242 -0.848432,-3.71136 -0.854427,-4.33557 -0.634293,-8.83948 0.153811,-13.16595 l 13.483521,5.85149 -0.36548,0.72855"
       style="fill:#d08c78;fill-opacity:1;fill-rule:nonzero;stroke:none;stroke-width:0.0352777"
       id="path356" />
    <path
       d="m -4.6610628,68.407051 c 0.583848,-0.436738 8.975368,-4.436886 8.975368,-4.436886 0,0 -2.84127,-2.337152 -10.862729,-2.347735 l 1.887361,6.784621"
       style="fill:#f9de05;fill-opacity:1;fill-rule:nonzero;stroke:none;stroke-width:0.0352777"
       id="path358" />
    <path
       d="m -13.809649,122.65055 c 0.106892,1.149 -3.984273,4.02167 -4.732514,4.54381 -4.313767,3.02327 -9.607902,4.14514 -14.814902,3.95813 -3.48615,-0.12347 -6.93914,-0.80436 -10.27924,-1.78854 -2.034469,-0.59987 -4.03225,-1.3195 -5.994752,-2.12387 -9.788525,-4.01214 -19.354094,-10.42522 -22.041554,-21.49503 -0.958146,-3.94547 -1.33209,-8.405283 -0.355248,-12.462578 0.775052,-3.218392 3.458985,-8.889648 7.095419,-9.681634 2.561518,-0.557741 5.498041,0.326319 7.854243,1.292225 11.953171,4.901494 40.318973,6.177492 40.318973,6.177492 0,0 2.9464,31.546515 2.949575,31.579995"
       style="fill:#f8d3cf;fill-opacity:1;fill-rule:nonzero;stroke:none;stroke-width:0.0352777"
       id="path360" />
    <path
       d="m -60.615147,94.948992 c 8.714317,8.135408 20.010615,8.178798 30.73259,4.825294 -1.617488,1.715914 -12.520435,13.118744 -6.628694,14.073014 4.652431,0.75353 9.573329,-0.29669 13.512446,-2.88396 -1.176867,1.24848 -2.052815,2.77848 -2.53365,4.42524 -0.08537,0.29316 -0.156282,0.61983 -0.02082,0.89394 0.237067,0.48049 0.915458,0.4886 1.44004,0.37747 3.938058,-0.83255 7.700081,-3.18135 9.093906,-7.16385 -0.735541,2.10185 -1.117248,4.30812 -1.495425,6.50275 -0.541163,3.13796 -1.082323,6.27592 -1.623483,9.41419 -0.08961,0.51968 -0.15593,1.12505 0.20461,1.5095 0.543632,0.58209 1.510948,0.17297 2.150534,-0.29986 8.2260732,-6.08429 14.6695582,-15.45301 16.65851824,-25.56644 C 2.6671852,91.944032 1.7051552,82.38058 -0.81226476,73.500105 -2.4403348,67.755824 -8.0128098,49.895391 -17.219958,55.640377 c -1.175454,0.733072 -1.866546,2.021063 -2.505075,3.250495 -1.083379,2.086679 -1.702152,4.002968 -2.460625,6.163733 -0.851959,2.4257 -2.900537,4.768496 -4.556125,6.691842 -3.285067,3.817054 -7.755819,6.466768 -12.367681,8.371062 -2.349854,0.970492 -4.775554,1.755775 -7.237238,2.391129 -2.212268,0.570442 -4.228745,1.061154 -6.498518,1.267177 -1.494015,0.135819 -4.040365,0.13194 -4.696177,1.8034 -1.37654,3.507317 8.236654,4.675011 10.326862,4.366684 -3.467452,0.511175 -6.934904,1.02235 -10.402358,1.533173 -0.9525,0.140758 -1.960034,0.305152 -2.692046,0.930979 -0.731663,0.625475 -1.010004,1.882071 -0.306213,2.538941"
       style="fill:#d08c78;fill-opacity:1;fill-rule:nonzero;stroke:none;stroke-width:0.0352777"
       id="path362" />
    <path
       d="m -18.770412,63.911957 c 0.941213,-2.365727 2.902305,-3.925358 5.606699,-3.241323 1.744133,0.440973 2.995435,2.021417 3.095625,3.804708 0.04304,0.771525 -0.168627,1.534232 -0.421569,2.264482 -0.226483,0.65546 -0.49248,1.306689 -0.907346,1.862666 -0.705202,0.94474 -1.839029,1.556809 -3.01625,1.627717 -1.812219,0.10936 -4.695471,-1.863725 -4.884912,-3.76696 -0.08714,-0.872773 0.203552,-1.736373 0.527753,-2.55129"
       style="fill:#ffffff;fill-opacity:1;fill-rule:nonzero;stroke:none;stroke-width:0.0352777"
       id="path364" />
    <path
       d="m -15.793672,65.636334 c 0.02716,-1.183569 0.581377,-2.605262 1.469319,-2.682875 1.71309,-0.149577 1.092554,3.320346 0.213431,3.944763 -1.212498,0.860777 -1.70956,-0.0822 -1.68275,-1.261888"
       style="fill:#3a3735;fill-opacity:1;fill-rule:nonzero;stroke:none;stroke-width:0.0352777"
       id="path366" />
    <path
       d="m -0.61470476,92.07209 c 0.13229,1.839032 0.004,3.662537 -0.38841004,5.463821 -0.16792,0.771525 -1.36772,0.532341 -1.20015,-0.238125 0.37077,-1.702859 0.49319,-3.408889 0.3676,-5.147027 -0.0568,-0.78881 1.16416004,-0.864304 1.22096004,-0.07867 v 0"
       style="fill:#f1afa2;fill-opacity:1;fill-rule:nonzero;stroke:none;stroke-width:0.0352777"
       id="path368" />
    <path
       d="m -5.0921568,95.649609 c -0.275521,1.262592 -0.55104,2.524831 -0.826913,3.786717 -0.168275,0.770814 -1.36807,0.531989 -1.199795,-0.238125 0.275518,-1.26224 0.551037,-2.524125 0.82691,-3.786365 0.168275,-0.771171 1.368073,-0.531987 1.199798,0.237773 v 0"
       style="fill:#f1afa2;fill-opacity:1;fill-rule:nonzero;stroke:none;stroke-width:0.0352777"
       id="path370" />
    <path
       d="m -3.3194488,102.71539 c -0.0113,1.27389 -0.258588,2.48497 -0.747889,3.66149 -0.303036,0.72883 -1.394177,0.17568 -1.093259,-0.54822 0.402873,-0.96838 0.61101,-1.98649 0.620535,-3.0353 0.0071,-0.78528 1.227667,-0.86678 1.220613,-0.078 v 0"
       style="fill:#f1afa2;fill-opacity:1;fill-rule:nonzero;stroke:none;stroke-width:0.0352777"
       id="path372" />
    <path
       d="m -8.2791528,106.27951 c -0.467784,1.45627 -1.017762,2.87655 -1.665817,4.26191 -0.3344332,0.71543 -1.4266332,0.1651 -1.0929042,-0.54787 0.601134,-1.28622 1.1246542,-2.59997 1.5589252,-3.95181 0.238829,-0.74331 1.440392,-0.51118 1.199796,0.23777 v 0"
       style="fill:#f1afa2;fill-opacity:1;fill-rule:nonzero;stroke:none;stroke-width:0.0352777"
       id="path374" />
    <path
       d="m -8.6837878,114.77722 c -0.233892,1.22555 -0.775052,2.32198 -1.6016112,3.25614 -0.522113,0.5902 -1.431573,-0.2279 -0.908404,-0.8195 0.6858,-0.77541 1.11619,-1.65806 1.3102162,-2.67477 0.148167,-0.77611 1.347613,-0.53516 1.199799,0.23813 v 0"
       style="fill:#f1afa2;fill-opacity:1;fill-rule:nonzero;stroke:none;stroke-width:0.0352777"
       id="path376" />
    <path
       d="m -13.241324,103.42695 c -0.602898,1.8415 -1.467204,3.50943 -2.632429,5.05707 -0.473779,0.62971 -1.379712,-0.19333 -0.908402,-0.81915 1.025525,-1.36208 1.810102,-2.85503 2.341033,-4.47569 0.24271,-0.74119 1.444625,-0.50942 1.199798,0.23777 v 0"
       style="fill:#f1afa2;fill-opacity:1;fill-rule:nonzero;stroke:none;stroke-width:0.0352777"
       id="path378" />
    <path
       d="m -11.70674,95.246032 c 0.779285,-1.378656 1.448152,-2.803877 2.0101272,-4.28484 0.279751,-0.7366 1.370189,-0.181327 1.093258,0.548571 -0.561975,1.480609 -1.230842,2.905829 -2.0104822,4.284486 -0.386995,0.684035 -1.482018,0.138993 -1.092903,-0.548217 v 0"
       style="fill:#f1afa2;fill-opacity:1;fill-rule:nonzero;stroke:none;stroke-width:0.0352777"
       id="path380" />
    <path
       d="m -19.622015,100.77194 c -0.937684,1.3148 -1.939222,2.57599 -3.006725,3.78672 -0.521055,0.59125 -1.430515,-0.22684 -0.908405,-0.81915 1.067858,-1.21109 2.069042,-2.47262 3.006373,-3.786718 0.456848,-0.640643 1.361723,0.183798 0.908757,0.819148 v 0"
       style="fill:#f1afa2;fill-opacity:1;fill-rule:nonzero;stroke:none;stroke-width:0.0352777"
       id="path382" />
    <path
       d="m -19.061453,111.26144 c -0.526344,0.88265 -1.18251,1.6263 -1.989312,2.26236 -0.618773,0.48824 -1.282348,-0.53975 -0.667105,-1.02517 0.627946,-0.4953 1.153938,-1.0989 1.563513,-1.78541 0.40146,-0.67345 1.497187,-0.12947 1.092904,0.54822 v 0"
       style="fill:#f1afa2;fill-opacity:1;fill-rule:nonzero;stroke:none;stroke-width:0.0352777"
       id="path384" />
    <path
       d="m -32.669855,107.23342 c 1.718733,-1.26506 3.277658,-2.69064 4.697942,-4.28237 0.524581,-0.58773 1.434041,0.23001 0.908401,0.8195 -1.489778,1.66899 -3.137603,3.1623 -4.939241,4.48839 -0.635352,0.46744 -1.300692,-0.5588 -0.667102,-1.02552 v 0"
       style="fill:#f1afa2;fill-opacity:1;fill-rule:nonzero;stroke:none;stroke-width:0.0352777"
       id="path386" />
    <path
       d="m -28.651715,111.51191 c -0.669925,0.40675 -1.340205,0.8128 -2.01013,1.21885 -0.672393,0.40816 -1.343729,-0.6149 -0.667454,-1.02518 0.670277,-0.40604 1.340554,-0.81244 2.010479,-1.21849 0.672396,-0.40781 1.343732,0.61489 0.667105,1.02482 v 0"
       style="fill:#f1afa2;fill-opacity:1;fill-rule:nonzero;stroke:none;stroke-width:0.0352777"
       id="path388" />
    <path
       d="m -21.495972,92.716615 c 1.146175,-1.355373 2.041525,-2.841625 2.71921,-4.480631 0.301625,-0.729544 1.392767,-0.176035 1.093259,0.548571 -0.718609,1.737077 -1.690862,3.316817 -2.904067,4.751562 -0.50941,0.60184 -1.41746,-0.21731 -0.908402,-0.819502 v 0"
       style="fill:#f1afa2;fill-opacity:1;fill-rule:nonzero;stroke:none;stroke-width:0.0352777"
       id="path390" />
    <path
       d="m -14.515205,88.182363 c 1.051277,-2.295173 1.930752,-4.644673 2.637367,-7.068962 0.219075,-0.752121 1.420283,-0.517877 1.199798,0.238479 -0.736955,2.5273 -1.647473,4.98475 -2.743907,7.3787 -0.32879,0.71755 -1.42099,0.167217 -1.093258,-0.548217 v 0"
       style="fill:#f1afa2;fill-opacity:1;fill-rule:nonzero;stroke:none;stroke-width:0.0352777"
       id="path392" />
    <path
       d="m -6.3999048,84.709265 c 0.134056,-1.507418 0.08961,-3.012016 -0.105833,-4.511675 -0.102307,-0.784577 1.119364,-0.855485 1.22061,-0.07832 0.20955,1.608314 0.228954,3.2131 0.08502,4.828116 -0.06985,0.786342 -1.268942,0.537986 -1.199798,-0.238125 v 0"
       style="fill:#f1afa2;fill-opacity:1;fill-rule:nonzero;stroke:none;stroke-width:0.0352777"
       id="path394" />
    <path
       d="m -5.6248528,71.654724 c -0.03457,-1.00824 -0.220837,-1.976261 -0.563385,-2.924527 -0.268111,-0.743305 0.893233,-1.126421 1.160639,-0.385588 0.375354,1.039283 0.585259,2.127604 0.623359,3.231798 0.02716,0.78881 -1.193448,0.866423 -1.220613,0.07832 v 0"
       style="fill:#f1afa2;fill-opacity:1;fill-rule:nonzero;stroke:none;stroke-width:0.0352777"
       id="path396" />
    <path
       d="m -12.055287,74.045499 c -0.03916,1.565627 -0.537985,2.970741 -1.503537,4.204406 -0.486129,0.620887 -1.392766,-0.200731 -0.908756,-0.81915 0.749652,-0.957792 1.161343,-2.090208 1.191331,-3.30694 0.01939,-0.783873 1.240367,-0.866423 1.220962,-0.07832 v 0"
       style="fill:#f1afa2;fill-opacity:1;fill-rule:nonzero;stroke:none;stroke-width:0.0352777"
       id="path398" />
    <path
       d="m -19.698922,75.002584 c -0.511881,1.221317 -1.200856,2.336096 -2.051402,3.350331 -0.506589,0.604309 -1.414639,-0.215193 -0.908404,-0.81915 0.783166,-0.934156 1.39559,-1.9558 1.866548,-3.07975 0.305152,-0.727781 1.396293,-0.174977 1.093258,0.548569 v 0"
       style="fill:#f1afa2;fill-opacity:1;fill-rule:nonzero;stroke:none;stroke-width:0.0352777"
       id="path400" />
    <path
       d="m -23.102522,86.261488 c -0.91299,1.113719 -1.955448,2.090561 -3.116085,2.941813 -0.636058,0.466373 -1.30175,-0.559859 -0.667105,-1.025171 1.077738,-0.790223 2.028122,-1.702506 2.874788,-2.735792 0.499886,-0.610306 1.407229,0.210254 0.908402,0.81915 v 0"
       style="fill:#f1afa2;fill-opacity:1;fill-rule:nonzero;stroke:none;stroke-width:0.0352777"
       id="path402" />
    <path
       d="m -30.297424,94.823757 c -1.312688,0.663927 -2.688873,1.094317 -4.148666,1.283052 -0.78458,0.1016 -0.85584,-1.119717 -0.07832,-1.22061 1.239308,-0.160161 2.444044,-0.523523 3.559879,-1.087967 0.695325,-0.351719 1.371954,0.668867 0.667104,1.025525 v 0"
       style="fill:#f1afa2;fill-opacity:1;fill-rule:nonzero;stroke:none;stroke-width:0.0352777"
       id="path404" />
    <path
       d="m -42.133824,94.405363 c -1.205441,0.4064 -2.436989,0.358775 -3.623027,-0.08361 -0.738716,-0.275167 -0.182739,-1.365604 0.548217,-1.093258 0.875242,0.326318 1.810102,0.31256 2.689225,0.01622 0.748242,-0.252235 1.133121,0.908756 0.385585,1.16064 v 0"
       style="fill:#f1afa2;fill-opacity:1;fill-rule:nonzero;stroke:none;stroke-width:0.0352777"
       id="path406" />
    <path
       d="m -39.11828,99.997594 c -1.937102,-0.01164 -3.858683,-0.18415 -5.765446,-0.526343 -0.778229,-0.139349 -0.536223,-1.33844 0.238125,-1.199799 1.804104,0.32385 3.615619,0.494242 5.449004,0.505532 0.785638,0.0042 0.86713,1.224846 0.07832,1.22061 v 0"
       style="fill:#f1afa2;fill-opacity:1;fill-rule:nonzero;stroke:none;stroke-width:0.0352777"
       id="path408" />
    <path
       d="m -52.484324,96.497686 c -0.721077,-0.159809 -1.441802,-0.319617 -2.162527,-0.479777 -0.770114,-0.170744 -0.531637,-1.370187 0.238125,-1.199796 0.720725,0.159806 1.441802,0.319614 2.162175,0.479423 0.770467,0.171098 0.531636,1.370896 -0.237773,1.20015 v 0"
       style="fill:#f1afa2;fill-opacity:1;fill-rule:nonzero;stroke:none;stroke-width:0.0352777"
       id="path410" />
    <path
       d="m -35.119545,85.231024 c 1.989667,-1.128184 3.767667,-2.509661 5.342467,-4.169834 0.541163,-0.570793 1.45274,0.245534 0.908404,0.81915 -1.64465,1.73355 -3.504496,3.197225 -5.583766,4.376209 -0.682273,0.386643 -1.355373,-0.635 -0.667105,-1.025525 v 0"
       style="fill:#f1afa2;fill-opacity:1;fill-rule:nonzero;stroke:none;stroke-width:0.0352777"
       id="path412" />
    <path
       d="m -23.298665,72.833355 c -0.965907,1.668285 -2.364317,2.898421 -4.135967,3.653367 -0.726723,0.309737 -1.106313,-0.853371 -0.385588,-1.16064 1.45909,-0.621948 2.634546,-1.669698 3.428296,-3.041298 0.393346,-0.679096 1.489075,-0.13476 1.093259,0.548571 v 0"
       style="fill:#f1afa2;fill-opacity:1;fill-rule:nonzero;stroke:none;stroke-width:0.0352777"
       id="path414" />
    <path
       d="m -39.801609,84.079909 c -1.048104,0.629356 -2.173465,1.101373 -3.361973,1.389592 -0.761648,0.184856 -1.152877,-0.974371 -0.385233,-1.160638 1.090435,-0.264583 2.117725,-0.676275 3.080102,-1.254479 0.673806,-0.404635 1.345496,0.617715 0.667104,1.025525 v 0"
       style="fill:#f1afa2;fill-opacity:1;fill-rule:nonzero;stroke:none;stroke-width:0.0352777"
       id="path416" />
    <path
       d="m -39.544788,90.297265 c -1.27635,-0.06421 -2.539294,-0.208843 -3.794125,-0.452614 -0.775759,-0.150284 -0.535163,-1.349727 0.238125,-1.199796 1.149704,0.223308 2.307873,0.372885 3.477683,0.4318 0.779992,0.03916 0.864306,1.260121 0.07832,1.22061 v 0"
       style="fill:#f1afa2;fill-opacity:1;fill-rule:nonzero;stroke:none;stroke-width:0.0352777"
       id="path418" />
    <path
       d="m -50.418457,87.257732 c -0.949677,-0.160867 -1.899356,-0.321733 -2.848681,-0.4826 -0.779638,-0.132292 -0.537279,-1.331383 0.238125,-1.199798 0.949679,0.160867 1.899004,0.321733 2.848681,0.4826 0.77964,0.132292 0.536927,1.331383 -0.238125,1.199798 v 0"
       style="fill:#f1afa2;fill-opacity:1;fill-rule:nonzero;stroke:none;stroke-width:0.0352777"
       id="path420" />
  </g>
</svg>
